{
.appVersion = "3414";
.formatVersion = 3;
DisplayStrings = (
"ا/alef-ar.fina أ/alefHamzaabove-ar.fina إ/alefHamzabelow-ar.fina آ/alefMadda-ar.fina ٱ/alefWasla-ar.fina",
"/hehgoal-ar.medi",
"/hehgoal-ar.medi/hehgoal-ar.init"
);
axes = (
{
name = Weight;
tag = wght;
},
{
name = Width;
tag = wdth;
}
);
customParameters = (
{
name = "Enforce Compatibility Check";
value = 1;
},
{
name = "Update Features";
value = 1;
},
{
name = fsType;
value = (
);
},
{
name = "Virtual Master";
value = (
{
Axis = Weight;
Location = 400;
},
{
Axis = Width;
Location = 100;
}
);
},
{
name = "Variable Font Origin";
value = "3CC93672-F71B-4D5C-A968-72DE9C2CEAD3";
},
{
name = "Use Typo Metrics";
value = 1;
},
{
name = "Use Line Breaks";
value = 1;
}
);
date = "2025-03-31 20:54:56 +0000";
familyName = Firjar;
featurePrefixes = (
{
automatic = 1;
code = "languagesystem DFLT dflt;

languagesystem arab dflt;
";
name = Languagesystems;
}
);
features = (
{
automatic = 1;
code = "feature init;
feature medi;
feature fina;
";
tag = aalt;
},
{
automatic = 1;
code = "lookup ccmp_arab_1 {
	lookupflag 0;
	sub hamzaabove-ar damma-ar by hamzaaboveDamma-ar;
	sub damma-ar hamzaabove-ar by hamzaaboveDamma-ar;
	sub hamzaabove-ar dammatan-ar by hamzaaboveDammatan-ar;
	sub dammatan-ar hamzaabove-ar by hamzaaboveDammatan-ar;
	sub hamzaabove-ar fatha-ar by hamzaaboveFatha-ar;
	sub fatha-ar hamzaabove-ar by hamzaaboveFatha-ar;
	sub hamzaabove-ar fathatan-ar by hamzaaboveFathatan-ar;
	sub fathatan-ar hamzaabove-ar by hamzaaboveFathatan-ar;
	sub hamzaabove-ar sukun-ar by hamzaaboveSukun-ar;
	sub sukun-ar hamzaabove-ar by hamzaaboveSukun-ar;
	sub hamzabelow-ar kasra-ar by hamzabelowKasra-ar;
	sub kasra-ar hamzabelow-ar by hamzabelowKasra-ar;
	sub hamzabelow-ar kasratan-ar by hamzabelowKasratan-ar;
	sub kasratan-ar hamzabelow-ar by hamzabelowKasratan-ar;
	sub shadda-ar alefabove-ar by shaddaAlefabove-ar;
	sub alefabove-ar shadda-ar by shaddaAlefabove-ar;
	sub shadda-ar damma-ar by shaddaDamma-ar;

glyphs = (
{
glyphname = A;
kernLeft = A;
kernRight = A;
lastChange = "2025-05-04 16:19:42 +0000";
layers = (
{
layerId = "71E51144-4680-4E23-982C-DE3E5ABB4D1F";
shapes = (
{
attr = {
strokePos = 0;
};
closed = 1;
nodes = (
(236,0,l),
(236,440,ls),
(236,465,o),
(249,480,o),
(266,480,cs),
(666,480,ls),
(683,480,o),
(696,465,o),
(696,440,cs),
(696,0,l),
(866,0,l),
(866,440,ls),
(866,552,o),
(778,640,o),
(666,640,cs),
(266,640,ls),
(154,640,o),
(66,552,o),
(66,440,cs),
(66,0,l)
);
},
{
closed = 1;
nodes = (
(862,195,l),
(862,355,l),
(69,355,l),
(69,195,l)
);
}
);
width = 932;
},
{
layerId = "A1E4B453-6299-48B5-AC61-B31B01EA2EEB";
shapes = (
{
attr = {
strokePos = "0";
};
closed = 1;
nodes = (
(110,0,l),
(110,450,ls),
(110,556,o),
(164,610,o),
(270,610,cs),
(530,610,ls),
(636,610,o),
(690,556,o),
(690,450,cs),
(690,0,l),
(720,0,l),
(720,450,ls),
(720,573,o),
(653,640,o),
(530,640,cs),
(270,640,ls),
(147,640,o),
(80,573,o),
(80,450,cs),
(80,0,l)
);
},
{
closed = 1;
nodes = (
(717,259,l),
(717,289,l),
(82,289,l),
(82,259,l)
);
}
);
width = 800;
},
{
layerId = "8544E31D-FA38-4D18-9DEA-5E3E35DDFD01";
shapes = (
{
attr = {
strokePos = 0;
};
closed = 1;
nodes = (
(202,0,l),
(202,480,ls),
(202,500,o),
(202,500,o),
(212,500,cs),
(284,500,ls),
(294,500,o),
(294,500,o),
(294,480,cs),
(294,0,l),
(444,0,l),
(444,480,ls),
(444,583,o),
(387,640,o),
(284,640,cs),
(212,640,ls),
(109,640,o),
(52,583,o),
(52,480,cs),
(52,0,l)
);
},
{
closed = 1;
nodes = (
(442,195,l),
(442,335,l),
(54,335,l),
(54,195,l)
);
}
);
width = 496;
},
{
layerId = "3CC93672-F71B-4D5C-A968-72DE9C2CEAD3";
shapes = (
{
attr = {
strokePos = "0";
};
closed = 1;
nodes = (
(60,0,l),
(60,490,ls),
(60,558,o),
(112,610,o),
(180,610,cs),
(214,610,ls),
(282,610,o),
(334,558,o),
(334,490,cs),
(334,0,l),
(364,0,l),
(364,490,ls),
(364,574,o),
(298,640,o),
(214,640,cs),
(180,640,ls),
(96,640,o),
(30,574,o),
(30,490,cs),
(30,0,l)
);
},
{
closed = 1;
nodes = (
(362,259,l),
(362,289,l),
(32,289,l),
(32,259,l)
);
}
);
width = 394;
}
);
metricLeft = H;
metricRight = H;
unicode = 65;
},
{
glyphname = B;
kernLeft = H;
kernRight = B;
lastChange = "2025-05-04 16:19:42 +0000";
layers = (
{
layerId = "71E51144-4680-4E23-982C-DE3E5ABB4D1F";
shapes = (
{
attr = {
strokePos = "1";
};
closed = 1;
nodes = (
(236,0,l),
(236,480,l),
(641,480,ls),
(651,480,o),
(671,476,o),
(671,450,cs),
(671,435,ls),
(671,409,o),
(651,405,o),
(641,405,c),
(641,245,l),
(753,245,o),
(841,329,o),
(841,435,cs),
(841,450,ls),
(841,556,o),
(753,640,o),
(641,640,cs),
(66,640,l),
(66,0,l)
);
},
{
attr = {
strokePos = "1";
};
closed = 1;
nodes = (
(678,0,ls),
(790,0,o),
(878,84,o),
(878,190,cs),
(878,215,ls),
(878,321,o),
(790,405,o),
(678,405,cs),
(73,405,l),
(73,245,l),
(678,245,ls),
(688,245,o),
(708,241,o),
(708,215,cs),
(708,190,ls),
(708,164,o),
(688,160,o),
(678,160,cs),
(73,160,l),
(73,0,l)
);
}
);
width = 933;
},
{
layerId = "A1E4B453-6299-48B5-AC61-B31B01EA2EEB";
shapes = (
{
attr = {
strokePos = "1";
};
closed = 1;
nodes = (
(110,0,l),
(110,610,l),
(510,610,ls),
(601,610,o),
(670,552,o),
(670,482,cs),
(670,469,ls),
(670,399,o),
(601,341,o),
(510,341,c),
(510,311,l),
(616,311,o),
(700,381,o),
(700,469,cs),
(700,482,ls),
(700,570,o),
(616,640,o),
(510,640,cs),
(80,640,l),
(80,0,l)
);
},
{
attr = {
strokePos = "1";
};
closed = 1;
nodes = (
(540,0,ls),
(646,0,o),
(730,70,o),
(730,158,cs),
(730,183,ls),
(730,271,o),
(646,341,o),
(540,341,cs),
(86,341,l),
(86,311,l),
(540,311,ls),
(631,311,o),
(700,253,o),
(700,183,cs),
(700,158,ls),
(700,88,o),
(631,30,o),
(540,30,cs),
(86,30,l),
(86,0,l)
);
}
);
width = 800;
},
{
layerId = "8544E31D-FA38-4D18-9DEA-5E3E35DDFD01";
shapes = (
{
attr = {
strokePos = "1";
};
closed = 1;
nodes = (
(202,0,l),
(202,500,l),
(268,500,ls),
(278,500,o),
(278,500,o),
(278,480,cs),
(278,419,ls),
(278,399,o),
(278,399,o),
(268,399,c),
(268,259,l),
(371,259,o),
(428,316,o),
(428,419,cs),
(428,480,ls),
(428,583,o),
(371,640,o),
(268,640,cs),
(52,640,l),
(52,0,l)
);
},
{
attr = {
strokePos = "1";
};
closed = 1;
nodes = (
(292,0,ls),
(395,0,o),
(452,57,o),
(452,160,cs),
(452,239,ls),
(452,342,o),
(395,399,o),
(292,399,cs),
(57,399,l),
(57,259,l),
(292,259,ls),
(302,259,o),
(302,259,o),
(302,239,cs),
(302,160,ls),
(302,140,o),
(302,140,o),
(292,140,cs),
(57,140,l),
(57,0,l)
);
}
);
width = 504;
},
{
layerId = "3CC93672-F71B-4D5C-A968-72DE9C2CEAD3";
shapes = (
{
attr = {
strokePos = "1";
};
closed = 1;
nodes = (
(60,0,l),
(60,610,l),
(177,610,ls),
(245,610,o),
(297,558,o),
(297,490,cs),
(297,461,ls),
(297,393,o),
(245,341,o),
(177,341,c),
(177,311,l),
(261,311,o),
(327,377,o),
(327,461,cs),
(327,490,ls),
(327,574,o),
(261,640,o),
(177,640,cs),
(30,640,l),
(30,0,l)
);
},
{
attr = {
strokePos = "1";
};
closed = 1;
nodes = (
(196,0,ls),
(280,0,o),
(346,66,o),
(346,150,cs),
(346,191,ls),
(346,275,o),
(280,341,o),
(196,341,cs),
(34,341,l),
(34,311,l),
(196,311,ls),
(264,311,o),
(316,259,o),
(316,191,cs),
(316,150,ls),
(316,82,o),
(264,30,o),
(196,30,cs),
(34,30,l),
(34,0,l)
);
}
);
width = 381;
}
);
metricLeft = H;
metricRight = O;
unicode = 66;
},
{
glyphname = C;
kernLeft = O;
kernRight = C;
lastChange = "2025-05-04 16:19:42 +0000";
layers = (
{
layerId = "71E51144-4680-4E23-982C-DE3E5ABB4D1F";
shapes = (
{
attr = {
identifier = ID0x3050a7720;
strokePos = "1";
};
closed = 1;
nodes = (
(868,0,l),
(868,160,l),
(255,160,ls),
(238,160,o),
(225,175,o),
(225,200,cs),
(225,440,ls),
(225,465,o),
(238,480,o),
(255,480,cs),
(868,480,l),
(868,640,l),
(255,640,ls),
(143,640,o),
(55,552,o),
(55,440,cs),
(55,200,ls),
(55,88,o),
(143,0,o),
(255,0,cs)
);
}
);
width = 934;
},
{
layerId = "A1E4B453-6299-48B5-AC61-B31B01EA2EEB";
shapes = (
{
attr = {
identifier = ID0x3050a7720;
strokePos = "1";
};
closed = 1;
nodes = (
(721,0,l),
(721,30,l),
(260,30,ls),
(170,30,o),
(100,100,o),
(100,190,cs),
(100,450,ls),
(100,540,o),
(170,610,o),
(260,610,cs),
(721,610,l),
(721,640,l),
(260,640,ls),
(154,640,o),
(70,556,o),
(70,450,cs),
(70,190,ls),
(70,84,o),
(154,0,o),
(260,0,cs)
);
}
);
width = 801;
},
{
layerId = "8544E31D-FA38-4D18-9DEA-5E3E35DDFD01";
shapes = (
{
attr = {
identifier = ID0x3050a7720;
strokePos = "1";
};
closed = 1;
nodes = (
(373,0,l),
(373,140,l),
(212,140,ls),
(202,140,o),
(202,140,o),
(202,160,cs),
(202,480,ls),
(202,500,o),
(202,500,o),
(212,500,cs),
(373,500,l),
(373,640,l),
(212,640,ls),
(109,640,o),
(52,583,o),
(52,480,cs),
(52,160,ls),
(52,57,o),
(109,0,o),
(212,0,cs)
);
}
);
width = 425;
},
{
layerId = "3CC93672-F71B-4D5C-A968-72DE9C2CEAD3";
shapes = (
{
attr = {
identifier = ID0x3050a7720;
strokePos = "1";
};
closed = 1;
nodes = (
(324,0,l),
(324,30,l),
(185,30,ls),
(117,30,o),
(65,82,o),
(65,150,cs),
(65,490,ls),
(65,558,o),
(117,610,o),
(185,610,cs),
(324,610,l),
(324,640,l),
(185,640,ls),
(101,640,o),
(35,574,o),
(35,490,cs),
(35,150,ls),
(35,66,o),
(101,0,o),
(185,0,cs)
);
}
);
width = 354;
}
);
metricLeft = O;
metricRight = H;
unicode = 67;
},
{
glyphname = D;
kernLeft = H;
kernRight = O;
lastChange = "2025-05-04 16:19:42 +0000";
layers = (
{
layerId = "71E51144-4680-4E23-982C-DE3E5ABB4D1F";
shapes = (
{
attr = {
strokePos = 1;
};
closed = 1;
nodes = (
(678,0,ls),
(790,0,o),
(878,88,o),
(878,200,cs),
(878,440,ls),
(878,552,o),
(790,640,o),
(678,640,cs),
(66,640,l),
(66,0,l)
);
},
{
attr = {
strokePos = 1;
};
closed = 1;
nodes = (
(236,480,l),
(678,480,ls),
(695,480,o),
(708,465,o),
(708,440,cs),
(708,200,ls),
(708,175,o),
(695,160,o),
(678,160,cs),
(236,160,l)
);
}
);
width = 933;
},
{
layerId = "A1E4B453-6299-48B5-AC61-B31B01EA2EEB";
shapes = (
{
attr = {
strokePos = "1";
};
closed = 1;
nodes = (
(540,0,ls),
(646,0,o),
(730,84,o),
(730,190,cs),
(730,450,ls),
(730,556,o),
(646,640,o),
(540,640,cs),
(80,640,l),
(80,0,l)
);
},
{
attr = {
strokePos = "1";
};
closed = 1;
nodes = (
(110,610,l),
(540,610,ls),
(630,610,o),
(700,540,o),
(700,450,cs),
(700,190,ls),
(700,100,o),
(630,30,o),
(540,30,cs),
(110,30,l)
);
}
);
width = 800;
},
{
layerId = "8544E31D-FA38-4D18-9DEA-5E3E35DDFD01";
shapes = (
{
attr = {
strokePos = 1;
};
closed = 1;
nodes = (
(282,0,ls),
(385,0,o),
(442,57,o),
(442,160,cs),
(442,480,ls),
(442,583,o),
(385,640,o),
(282,640,cs),
(52,640,l),
(52,0,l)
);
},
{
attr = {
strokePos = 1;
};
closed = 1;
nodes = (
(202,500,l),
(282,500,ls),
(292,500,o),
(292,500,o),
(292,480,cs),
(292,160,ls),
(292,140,o),
(292,140,o),
(282,140,cs),
(202,140,l)
);
}
);
width = 494;
},
{
layerId = "3CC93672-F71B-4D5C-A968-72DE9C2CEAD3";
shapes = (
{
attr = {
strokePos = "1";
};
closed = 1;
nodes = (
(212,0,ls),
(296,0,o),
(362,66,o),
(362,150,cs),
(362,490,ls),
(362,574,o),
(296,640,o),
(212,640,cs),
(30,640,l),
(30,0,l)
);
},
{
attr = {
strokePos = "1";
};
closed = 1;
nodes = (
(60,610,l),
(212,610,ls),
(280,610,o),
(332,558,o),
(332,490,cs),
(332,150,ls),
(332,82,o),
(280,30,o),
(212,30,cs),
(60,30,l)
);
}
);
width = 397;
}
);
metricLeft = H;
metricRight = O;
unicode = 68;
},
{
color = 3;
glyphname = E;
kernLeft = H;
kernRight = E;
lastChange = "2025-05-04 15:40:55 +0000";
layers = (
{
layerId = "71E51144-4680-4E23-982C-DE3E5ABB4D1F";
shapes = (
{
attr = {
strokePos = 1;
};
closed = 1;
nodes = (
(759,0,l),
(759,160,l),
(236,160,l),
(236,480,l),
(759,480,l),
(759,640,l),
(66,640,l),
(66,0,l)
);
},
{
closed = 1;
nodes = (
(662,240,l),
(662,400,l),
(78,400,l),
(78,240,l)
);
}
);
width = 779;
},
{
layerId = "A1E4B453-6299-48B5-AC61-B31B01EA2EEB";
shapes = (
{
attr = {
strokePos = 1;
};
closed = 1;
nodes = (
(635,0,l),
(635,30,l),
(110,30,l),
(110,610,l),
(635,610,l),
(635,640,l),
(80,640,l),
(80,0,l)
);
},
{
closed = 1;
nodes = (
(557,305,l),
(557,335,l),
(90,335,l),
(90,305,l)
);
}
);
width = 685;
},
{
layerId = "8544E31D-FA38-4D18-9DEA-5E3E35DDFD01";
shapes = (
{
attr = {
strokePos = 1;
};
closed = 1;
nodes = (
(342,0,l),
(342,140,l),
(202,140,l),
(202,500,l),
(342,500,l),
(342,640,l),
(52,640,l),
(52,0,l)
);
},
{
closed = 1;
nodes = (
(292,250,l),
(292,390,l),
(58,390,l),
(58,250,l)
);
}
);
width = 372;
},
{
layerId = "3CC93672-F71B-4D5C-A968-72DE9C2CEAD3";
shapes = (
{
attr = {
strokePos = 1;
};
closed = 1;
nodes = (
(322,0,l),
(322,30,l),
(60,30,l),
(60,610,l),
(322,610,l),
(322,640,l),
(30,640,l),
(30,0,l)
);
},
{
closed = 1;
nodes = (
(271,305,l),
(271,335,l),
(37,335,l),
(37,305,l)
);
}
);
width = 342;
}
);
metricLeft = H;
unicode = 69;
},
{
glyphname = F;
kernLeft = H;
kernRight = F;
lastChange = "2025-05-04 15:40:55 +0000";
layers = (
{
layerId = "71E51144-4680-4E23-982C-DE3E5ABB4D1F";
shapes = (
{
attr = {
strokePos = "1";
};
closed = 1;
nodes = (
(236,0,l),
(236,480,l),
(759,480,l),
(759,640,l),
(66,640,l),
(66,0,l)
);
},
{
closed = 1;
nodes = (
(662,210,l),
(662,370,l),
(78,370,l),
(78,210,l)
);
}
);
width = 779;
},
{
layerId = "A1E4B453-6299-48B5-AC61-B31B01EA2EEB";
shapes = (
{
attr = {
strokePos = "1";
};
closed = 1;
nodes = (
(110,0,l),
(110,610,l),
(635,610,l),
(635,640,l),
(80,640,l),
(80,0,l)
);
},
{
closed = 1;
nodes = (
(557,275,l),
(557,305,l),
(90,305,l),
(90,275,l)
);
}
);
width = 685;
},
{
layerId = "8544E31D-FA38-4D18-9DEA-5E3E35DDFD01";
shapes = (
{
attr = {
strokePos = "1";
};
closed = 1;
nodes = (
(202,0,l),
(202,500,l),
(342,500,l),
(342,640,l),
(52,640,l),
(52,0,l)
);
},
{
closed = 1;
nodes = (
(291,220,l),
(291,360,l),
(58,360,l),
(58,220,l)
);
}
);
width = 372;
},
{
layerId = "3CC93672-F71B-4D5C-A968-72DE9C2CEAD3";
shapes = (
{
attr = {
strokePos = "1";
};
closed = 1;
nodes = (
(60,0,l),
(60,610,l),
(322,610,l),
(322,640,l),
(30,640,l),
(30,0,l)
);
},
{
closed = 1;
nodes = (
(271,275,l),
(271,305,l),
(37,305,l),
(37,275,l)
);
}
);
width = 342;
}
);
metricLeft = H;
metricRight = E;
unicode = 70;
},
{
glyphname = G;
kernLeft = O;
kernRight = G;
lastChange = "2025-05-04 16:19:42 +0000";
layers = (
{
layerId = "71E51144-4680-4E23-982C-DE3E5ABB4D1F";
shapes = (
{
attr = {
identifier = ID0x3050a7720;
strokePos = "1";
};
closed = 1;
nodes = (
(956,0,l),
(956,394,l),
(427,394,l),
(427,234,l),
(786,234,l),
(786,160,l),
(255,160,ls),
(238,160,o),
(225,175,o),
(225,200,cs),
(225,440,ls),
(225,465,o),
(238,480,o),
(255,480,cs),
(907,480,l),
(907,640,l),
(255,640,ls),
(143,640,o),
(55,552,o),
(55,440,cs),
(55,200,ls),
(55,88,o),
(143,0,o),
(255,0,cs)
);
}
);
width = 1022;
},
{
layerId = "A1E4B453-6299-48B5-AC61-B31B01EA2EEB";
shapes = (
{
attr = {
identifier = ID0x3050a7720;
strokePos = "1";
};
closed = 1;
nodes = (
(791,0,l),
(791,328,l),
(368,328,l),
(368,298,l),
(761,298,l),
(761,30,l),
(260,30,ls),
(170,30,o),
(100,100,o),
(100,190,cs),
(100,450,ls),
(100,540,o),
(170,610,o),
(260,610,cs),
(752,610,l),
(752,640,l),
(260,640,ls),
(154,640,o),
(70,556,o),
(70,450,cs),
(70,190,ls),
(70,84,o),
(154,0,o),
(260,0,cs)
);
}
);
width = 871;
},
{
layerId = "8544E31D-FA38-4D18-9DEA-5E3E35DDFD01";
shapes = (
{
attr = {
identifier = ID0x3050a7720;
strokePos = "1";
};
closed = 1;
nodes = (
(435,0,l),
(435,394,l),
(241,394,l),
(241,254,l),
(285,254,l),
(285,140,l),
(212,140,ls),
(202,140,o),
(202,140,o),
(202,160,cs),
(202,480,ls),
(202,500,o),
(202,500,o),
(212,500,cs),
(425,500,l),
(425,640,l),
(212,640,ls),
(109,640,o),
(52,583,o),
(52,480,cs),
(52,160,ls),
(52,57,o),
(109,0,o),
(212,0,cs)
);
}
);
width = 487;
},
{
layerId = "3CC93672-F71B-4D5C-A968-72DE9C2CEAD3";
shapes = (
{
attr = {
identifier = ID0x3050a7720;
strokePos = "1";
};
closed = 1;
nodes = (
(368,0,l),
(368,328,l),
(226,328,l),
(226,298,l),
(338,298,l),
(338,30,l),
(185,30,ls),
(117,30,o),
(65,82,o),
(65,150,cs),
(65,490,ls),
(65,558,o),
(117,610,o),
(185,610,cs),
(350,610,l),
(350,640,l),
(185,640,ls),
(101,640,o),
(35,574,o),
(35,490,cs),
(35,150,ls),
(35,66,o),
(101,0,o),
(185,0,cs)
);
}
);
width = 398;
}
);
metricLeft = O;
metricRight = H;
unicode = 71;
},
{
color = 3;
glyphname = H;
kernLeft = H;
kernRight = H;
lastChange = "2025-05-04 16:46:35 +0000";
layers = (
{
layerId = "71E51144-4680-4E23-982C-DE3E5ABB4D1F";
shapes = (
{
attr = {
strokePos = 0;
};
closed = 1;
nodes = (
(878,0,l),
(878,640,l),
(708,640,l),
(708,0,l)
);
},
{
attr = {
strokePos = 1;
};
closed = 1;
nodes = (
(236,0,l),
(236,640,l),
(66,640,l),
(66,0,l)
);
},
{
closed = 1;
nodes = (
(866,226,l),
(866,386,l),
(78,386,l),
(78,226,l)
);
}
);
width = 944;
},
{
layerId = "A1E4B453-6299-48B5-AC61-B31B01EA2EEB";
shapes = (
{
attr = {
strokePos = 0;
};
closed = 1;
nodes = (
(730,0,l),
(730,640,l),
(700,640,l),
(700,0,l)
);
},
{
attr = {
strokePos = 1;
};
closed = 1;
nodes = (
(110,0,l),
(110,640,l),
(80,640,l),
(80,0,l)
);
},
{
closed = 1;
nodes = (
(720,291,l),
(720,321,l),
(90,321,l),
(90,291,l)
);
}
);
width = 810;
},
{
layerId = "8544E31D-FA38-4D18-9DEA-5E3E35DDFD01";
shapes = (
{
attr = {
strokePos = 0;
};
closed = 1;
nodes = (
(419,0,l),
(419,640,l),
(269,640,l),
(269,0,l)
);
},
{
attr = {
strokePos = 1;
};
closed = 1;
nodes = (
(202,0,l),
(202,640,l),
(52,640,l),
(52,0,l)
);
},
{
closed = 1;
nodes = (
(411,256,l),
(411,396,l),
(60,396,l),
(60,256,l)
);
}
);
width = 471;
},
{
layerId = "3CC93672-F71B-4D5C-A968-72DE9C2CEAD3";
shapes = (
{
attr = {
strokePos = 0;
};
closed = 1;
nodes = (
(318,0,l),
(318,640,l),
(288,640,l),
(288,0,l)
);
},
{
attr = {
strokePos = 1;
};
closed = 1;
nodes = (
(60,0,l),
(60,640,l),
(30,640,l),
(30,0,l)
);
},
{
closed = 1;
nodes = (
(312,291,l),
(312,321,l),
(36,321,l),
(36,291,l)
);
}
);
width = 348;
}
);
metricRight = "=|";
unicode = 72;
},
{
glyphname = I;
kernLeft = H;
kernRight = H;
lastChange = "2025-05-04 15:40:55 +0000";
layers = (
{
layerId = "71E51144-4680-4E23-982C-DE3E5ABB4D1F";
shapes = (
{
closed = 1;
nodes = (
(236,0,l),
(236,640,l),
(66,640,l),
(66,0,l)
);
}
);
width = 302;
},
{
layerId = "A1E4B453-6299-48B5-AC61-B31B01EA2EEB";
shapes = (
{
closed = 1;
nodes = (
(110,0,l),
(110,640,l),
(80,640,l),
(80,0,l)
);
}
);
width = 190;
},
{
layerId = "8544E31D-FA38-4D18-9DEA-5E3E35DDFD01";
shapes = (
{
closed = 1;
nodes = (
(202,0,l),
(202,640,l),
(52,640,l),
(52,0,l)
);
}
);
width = 254;
},
{
layerId = "3CC93672-F71B-4D5C-A968-72DE9C2CEAD3";
shapes = (
{
closed = 1;
nodes = (
(60,0,l),
(60,640,l),
(30,640,l),
(30,0,l)
);
}
);
width = 90;
}
);
metricLeft = H;
metricRight = H;
unicode = 73;
},
{
glyphname = J;
kernLeft = J;
kernRight = H;
lastChange = "2025-05-04 16:19:42 +0000";
layers = (
{
layerId = "71E51144-4680-4E23-982C-DE3E5ABB4D1F";
shapes = (
{
attr = {
identifier = ID0x322a633e0;
strokePos = "1";
};
closed = 1;
nodes = (
(705,0,ls),
(817,0,o),
(905,88,o),
(905,200,cs),
(905,640,l),
(735,640,l),
(735,200,ls),
(735,175,o),
(722,160,o),
(705,160,cs),
(266,160,ls),
(249,160,o),
(236,175,o),
(236,200,cs),
(236,286,l),
(66,286,l),
(66,200,ls),
(66,88,o),
(154,0,o),
(266,0,cs)
);
}
);
width = 971;
},
{
layerId = "A1E4B453-6299-48B5-AC61-B31B01EA2EEB";
shapes = (
{
attr = {
identifier = ID0x322a633e0;
strokePos = "1";
};
closed = 1;
nodes = (
(561,0,ls),
(667,0,o),
(751,84,o),
(751,190,cs),
(751,640,l),
(721,640,l),
(721,190,ls),
(721,100,o),
(651,30,o),
(561,30,cs),
(270,30,ls),
(180,30,o),
(110,100,o),
(110,190,cs),
(110,286,l),
(80,286,l),
(80,190,ls),
(80,84,o),
(164,0,o),
(270,0,cs)
);
}
);
width = 831;
},
{
layerId = "8544E31D-FA38-4D18-9DEA-5E3E35DDFD01";
shapes = (
{
attr = {
identifier = ID0x322a633e0;
strokePos = "1";
};
closed = 1;
nodes = (
(259,0,ls),
(362,0,o),
(419,57,o),
(419,160,cs),
(419,640,l),
(269,640,l),
(269,160,ls),
(269,140,o),
(269,140,o),
(259,140,cs),
(212,140,ls),
(202,140,o),
(202,140,o),
(202,160,cs),
(202,286,l),
(52,286,l),
(52,160,ls),
(52,57,o),
(109,0,o),
(212,0,cs)
);
}
);
width = 471;
},
{
layerId = "3CC93672-F71B-4D5C-A968-72DE9C2CEAD3";
shapes = (
{
attr = {
identifier = ID0x322a633e0;
strokePos = "1";
};
closed = 1;
nodes = (
(235,0,ls),
(315,0,o),
(377,66,o),
(377,150,cs),
(377,640,l),
(347,640,l),
(347,150,ls),
(347,82,o),
(298,30,o),
(235,30,cs),
(172,30,ls),
(109,30,o),
(60,82,o),
(60,150,cs),
(60,286,l),
(30,286,l),
(30,150,ls),
(30,66,o),
(92,0,o),
(172,0,cs)
);
}
);
width = 407;
}
);
metricLeft = H;
metricRight = H;
unicode = 74;
},
{
glyphname = K;
kernLeft = H;
kernRight = K;
lastChange = "2025-05-04 15:40:55 +0000";
layers = (
{
layerId = "71E51144-4680-4E23-982C-DE3E5ABB4D1F";
shapes = (
{
closed = 1;
nodes = (
(867,0,l),
(629,320,l),
(867,640,l),
(681,640,l),
(443,320,l),
(681,0,l)
);
},
{
attr = {
strokePos = "1";
};
closed = 1;
nodes = (
(236,0,l),
(236,640,l),
(66,640,l),
(66,0,l)
);
},
{
closed = 1;
nodes = (
(531,240,l),
(531,400,l),
(73,400,l),
(73,240,l)
);
}
);
width = 877;
},
{
layerId = "A1E4B453-6299-48B5-AC61-B31B01EA2EEB";
shapes = (
{
closed = 1;
nodes = (
(713,0,l),
(523,320,l),
(713,640,l),
(679,640,l),
(489,320,l),
(679,0,l)
);
},
{
attr = {
strokePos = "1";
};
closed = 1;
nodes = (
(110,0,l),
(110,640,l),
(80,640,l),
(80,0,l)
);
},
{
closed = 1;
nodes = (
(502,305,l),
(502,335,l),
(85,335,l),
(85,305,l)
);
}
);
width = 733;
},
{
layerId = "8544E31D-FA38-4D18-9DEA-5E3E35DDFD01";
shapes = (
{
closed = 1;
nodes = (
(451,0,l),
(333,320,l),
(451,640,l),
(301,640,l),
(183,320,l),
(301,0,l)
);
},
{
attr = {
strokePos = "1";
};
closed = 1;
nodes = (
(202,0,l),
(202,640,l),
(52,640,l),
(52,0,l)
);
},
{
closed = 1;
nodes = (
(255,250,l),
(255,390,l),
(56,390,l),
(56,250,l)
);
}
);
width = 471;
},
{
layerId = "3CC93672-F71B-4D5C-A968-72DE9C2CEAD3";
shapes = (
{
closed = 1;
nodes = (
(324,0,l),
(198,320,l),
(324,640,l),
(292,640,l),
(166,320,l),
(292,0,l)
);
},
{
attr = {
strokePos = "1";
};
closed = 1;
nodes = (
(60,0,l),
(60,640,l),
(30,640,l),
(30,0,l)
);
},
{
closed = 1;
nodes = (
(179,305,l),
(179,335,l),
(34,335,l),
(34,305,l)
);
}
);
width = 334;
}
);
metricLeft = H;
metricRight = X;
unicode = 75;
},
{
glyphname = L;
kernLeft = H;
kernRight = L;
lastChange = "2025-05-04 15:40:55 +0000";
layers = (
{
layerId = "71E51144-4680-4E23-982C-DE3E5ABB4D1F";
shapes = (
{
attr = {
strokePos = "1";
};
closed = 1;
nodes = (
(759,0,l),
(759,160,l),
(236,160,l),
(236,640,l),
(66,640,l),
(66,0,l)
);
}
);
width = 792;
},
{
layerId = "A1E4B453-6299-48B5-AC61-B31B01EA2EEB";
shapes = (
{
attr = {
strokePos = "1";
};
closed = 1;
nodes = (
(635,0,l),
(635,30,l),
(110,30,l),
(110,640,l),
(80,640,l),
(80,0,l)
);
}
);
width = 675;
},
{
layerId = "8544E31D-FA38-4D18-9DEA-5E3E35DDFD01";
shapes = (
{
attr = {
strokePos = "1";
};
closed = 1;
nodes = (
(366,0,l),
(366,140,l),
(202,140,l),
(202,640,l),
(52,640,l),
(52,0,l)
);
}
);
width = 392;
},
{
layerId = "3CC93672-F71B-4D5C-A968-72DE9C2CEAD3";
shapes = (
{
attr = {
strokePos = "1";
};
closed = 1;
nodes = (
(245,0,l),
(245,30,l),
(60,30,l),
(60,640,l),
(30,640,l),
(30,0,l)
);
}
);
width = 260;
}
);
metricLeft = H;
metricRight = "=H/2";
unicode = 76;
},
{
glyphname = M;
kernLeft = H;
kernRight = H;
lastChange = "2025-05-04 15:40:55 +0000";
layers = (
{
layerId = "71E51144-4680-4E23-982C-DE3E5ABB4D1F";
shapes = (
{
attr = {
identifier = ID0x303e09a70;
};
closed = 1;
nodes = (
(950,640,l),
(734,640,l),
(508,391,l),
(282,640,l),
(66,640,l),
(508,153,l)
);
},
{
attr = {
identifier = ID0x303e09a70;
strokePos = "1";
};
closed = 1;
nodes = (
(241,0,l),
(241,640,l),
(71,640,l),
(71,0,l)
);
},
{
attr = {
identifier = ID0x303e09a70;
strokePos = "0";
};
closed = 1;
nodes = (
(946,0,l),
(946,640,l),
(776,640,l),
(776,0,l)
);
}
);
width = 1016;
},
{
layerId = "A1E4B453-6299-48B5-AC61-B31B01EA2EEB";
shapes = (
{
attr = {
identifier = ID0x303e09a70;
};
closed = 1;
nodes = (
(800,640,l),
(760,640,l),
(440,294,l),
(120,640,l),
(80,640,l),
(440,250,l)
);
},
{
attr = {
identifier = ID0x303e09a70;
strokePos = "1";
};
closed = 1;
nodes = (
(121,0,l),
(121,640,l),
(91,640,l),
(91,0,l)
);
},
{
attr = {
identifier = ID0x303e09a70;
strokePos = "0";
};
closed = 1;
nodes = (
(791,0,l),
(791,640,l),
(761,640,l),
(761,0,l)
);
}
);
width = 880;
},
{
layerId = "8544E31D-FA38-4D18-9DEA-5E3E35DDFD01";
shapes = (
{
attr = {
identifier = ID0x303e09a70;
};
closed = 1;
nodes = (
(524,640,l),
(372,640,l),
(288,448,l),
(204,640,l),
(52,640,l),
(288,96,l)
);
},
{
attr = {
identifier = ID0x303e09a70;
strokePos = "1";
};
closed = 1;
nodes = (
(238,0,l),
(238,640,l),
(88,640,l),
(88,0,l)
);
},
{
attr = {
identifier = ID0x303e09a70;
strokePos = "0";
};
closed = 1;
nodes = (
(488,0,l),
(488,640,l),
(338,640,l),
(338,0,l)
);
}
);
width = 576;
},
{
layerId = "3CC93672-F71B-4D5C-A968-72DE9C2CEAD3";
shapes = (
{
attr = {
identifier = ID0x303e09a70;
};
closed = 1;
nodes = (
(370,640,l),
(338,640,l),
(200,311,l),
(62,640,l),
(30,640,l),
(200,233,l)
);
},
{
attr = {
identifier = ID0x303e09a70;
strokePos = "1";
};
closed = 1;
nodes = (
(70,0,l),
(70,640,l),
(40,640,l),
(40,0,l)
);
},
{
attr = {
identifier = ID0x303e09a70;
strokePos = "0";
};
closed = 1;
nodes = (
(360,0,l),
(360,640,l),
(330,640,l),
(330,0,l)
);
}
);
width = 400;
}
);
metricLeft = H;
metricRight = H;
unicode = 77;
},
{
glyphname = N;
kernLeft = H;
kernRight = H;
lastChange = "2025-05-04 15:40:55 +0000";
layers = (
{
layerId = "71E51144-4680-4E23-982C-DE3E5ABB4D1F";
shapes = (
{
attr = {
identifier = ID0x303e09a70;
};
closed = 1;
nodes = (
(919,0,l),
(290,640,l),
(66,640,l),
(695,0,l)
);
},
{
attr = {
identifier = ID0x303e09a70;
strokePos = 1;
};
closed = 1;
nodes = (
(263,0,l),
(263,640,l),
(93,640,l),
(93,0,l)
);
},
{
attr = {
identifier = ID0x303e09a70;
strokePos = 0;
};
closed = 1;
nodes = (
(893,0,l),
(893,640,l),
(723,640,l),
(723,0,l)
);
}
);
width = 985;
},
{
layerId = "A1E4B453-6299-48B5-AC61-B31B01EA2EEB";
shapes = (
{
attr = {
identifier = ID0x303e09a70;
};
closed = 1;
nodes = (
(743,0,l),
(122,640,l),
(80,640,l),
(701,0,l)
);
},
{
attr = {
identifier = ID0x303e09a70;
strokePos = "1";
};
closed = 1;
nodes = (
(121,0,l),
(121,640,l),
(91,640,l),
(91,0,l)
);
},
{
attr = {
identifier = ID0x303e09a70;
strokePos = "0";
};
closed = 1;
nodes = (
(731,0,l),
(731,640,l),
(701,640,l),
(701,0,l)
);
}
);
width = 823;
},
{
layerId = "8544E31D-FA38-4D18-9DEA-5E3E35DDFD01";
shapes = (
{
attr = {
identifier = ID0x303e09a70;
};
closed = 1;
nodes = (
(477,0,l),
(204,640,l),
(52,640,l),
(325,0,l)
);
},
{
attr = {
identifier = ID0x303e09a70;
strokePos = 1;
};
closed = 1;
nodes = (
(224,0,l),
(224,640,l),
(74,640,l),
(74,0,l)
);
},
{
attr = {
identifier = ID0x303e09a70;
strokePos = 0;
};
closed = 1;
nodes = (
(456,0,l),
(456,640,l),
(306,640,l),
(306,0,l)
);
}
);
width = 529;
},
{
layerId = "3CC93672-F71B-4D5C-A968-72DE9C2CEAD3";
shapes = (
{
attr = {
identifier = ID0x303e09a70;
};
closed = 1;
nodes = (
(331,0,l),
(62,640,l),
(30,640,l),
(299,0,l)
);
},
{
attr = {
identifier = ID0x303e09a70;
strokePos = "1";
};
closed = 1;
nodes = (
(69,0,l),
(69,640,l),
(39,640,l),
(39,0,l)
);
},
{
attr = {
identifier = ID0x303e09a70;
strokePos = "0";
};
closed = 1;
nodes = (
(321,0,l),
(321,640,l),
(291,640,l),
(291,0,l)
);
}
);
width = 361;
}
);
metricLeft = H;
metricRight = H;
unicode = 78;
},
{
color = 3;
glyphname = O;
kernLeft = O;
kernRight = O;
lastChange = "2025-05-04 16:19:42 +0000";
layers = (
{
layerId = "71E51144-4680-4E23-982C-DE3E5ABB4D1F";
shapes = (
{
attr = {
strokePos = 1;
};
closed = 1;
nodes = (
(756,0,ls),
(868,0,o),
(956,88,o),
(956,200,cs),
(956,440,ls),
(956,552,o),
(868,640,o),
(756,640,cs),
(255,640,ls),
(143,640,o),
(55,552,o),
(55,440,cs),
(55,200,ls),
(55,88,o),
(143,0,o),
(255,0,cs)
);
},
{
attr = {
strokePos = 1;
};
closed = 1;
nodes = (
(238,160,o),
(225,175,o),
(225,200,cs),
(225,440,ls),
(225,465,o),
(238,480,o),
(255,480,cs),
(756,480,ls),
(773,480,o),
(786,465,o),
(786,440,cs),
(786,200,ls),
(786,175,o),
(773,160,o),
(756,160,cs),
(255,160,ls)
);
}
);
width = 1011;
},
{
layerId = "A1E4B453-6299-48B5-AC61-B31B01EA2EEB";
shapes = (
{
attr = {
strokePos = "1";
};
closed = 1;
nodes = (
(601,0,ls),
(707,0,o),
(791,84,o),
(791,190,cs),
(791,450,ls),
(791,556,o),
(707,640,o),
(601,640,cs),
(260,640,ls),
(154,640,o),
(70,556,o),
(70,450,cs),
(70,190,ls),
(70,84,o),
(154,0,o),
(260,0,cs)
);
},
{
attr = {
strokePos = "1";
};
closed = 1;
nodes = (
(170,30,o),
(100,100,o),
(100,190,cs),
(100,450,ls),
(100,540,o),
(170,610,o),
(260,610,cs),
(601,610,ls),
(691,610,o),
(761,540,o),
(761,450,cs),
(761,190,ls),
(761,100,o),
(691,30,o),
(601,30,cs),
(260,30,ls)
);
}
);
width = 861;
},
{
layerId = "8544E31D-FA38-4D18-9DEA-5E3E35DDFD01";
shapes = (
{
attr = {
strokePos = 1;
};
closed = 1;
nodes = (
(290,-8,ls),
(393,-8,o),
(450,49,o),
(450,152,cs),
(450,488,ls),
(450,591,o),
(393,648,o),
(290,648,cs),
(212,648,ls),
(109,648,o),
(52,591,o),
(52,488,cs),
(52,152,ls),
(52,49,o),
(109,-8,o),
(212,-8,cs)
);
},
{
attr = {
strokePos = 1;
};
closed = 1;
nodes = (
(202,132,o),
(202,132,o),
(202,152,cs),
(202,488,ls),
(202,508,o),
(202,508,o),
(212,508,cs),
(290,508,ls),
(300,508,o),
(300,508,o),
(300,488,cs),
(300,152,ls),
(300,132,o),
(300,132,o),
(290,132,cs),
(212,132,ls)
);
}
);
width = 502;
},
{
layerId = "3CC93672-F71B-4D5C-A968-72DE9C2CEAD3";
shapes = (
{
attr = {
strokePos = "1";
};
closed = 1;
nodes = (
(218,0,ls),
(302,0,o),
(368,66,o),
(368,150,cs),
(368,490,ls),
(368,574,o),
(302,640,o),
(218,640,cs),
(185,640,ls),
(101,640,o),
(35,574,o),
(35,490,cs),
(35,150,ls),
(35,66,o),
(101,0,o),
(185,0,cs)
);
},
{
attr = {
strokePos = "1";
};
closed = 1;
nodes = (
(117,30,o),
(65,82,o),
(65,150,cs),
(65,490,ls),
(65,558,o),
(117,610,o),
(185,610,cs),
(218,610,ls),
(286,610,o),
(338,558,o),
(338,490,cs),
(338,150,ls),
(338,82,o),
(286,30,o),
(218,30,cs),
(185,30,ls)
);
}
);
width = 403;
}
);
metricRight = "=|";
unicode = 79;
},
{
glyphname = P;
kernLeft = H;
kernRight = P;
lastChange = "2025-05-04 16:19:42 +0000";
layers = (
{
layerId = "71E51144-4680-4E23-982C-DE3E5ABB4D1F";
shapes = (
{
attr = {
strokePos = "1";
};
closed = 1;
nodes = (
(236,0,l),
(236,480,l),
(678,480,ls),
(695,480,o),
(708,465,o),
(708,440,cs),
(708,395,ls),
(708,370,o),
(695,355,o),
(678,355,cs),
(73,355,l),
(73,195,l),
(678,195,ls),
(790,195,o),
(878,283,o),
(878,395,cs),
(878,440,ls),
(878,552,o),
(790,640,o),
(678,640,cs),
(66,640,l),
(66,0,l)
);
}
);
width = 933;
},
{
layerId = "A1E4B453-6299-48B5-AC61-B31B01EA2EEB";
shapes = (
{
attr = {
strokePos = "1";
};
closed = 1;
nodes = (
(109,0,l),
(109,610,l),
(540,610,ls),
(630,610,o),
(701,539,o),
(701,450,cs),
(701,425,ls),
(701,336,o),
(630,265,o),
(540,265,cs),
(86,265,l),
(86,235,l),
(540,235,ls),
(646,235,o),
(730,319,o),
(730,425,cs),
(730,450,ls),
(730,556,o),
(646,640,o),
(540,640,cs),
(80,640,l),
(80,0,l)
);
}
);
width = 800;
},
{
layerId = "8544E31D-FA38-4D18-9DEA-5E3E35DDFD01";
shapes = (
{
attr = {
strokePos = "1";
};
closed = 1;
nodes = (
(202,0,l),
(202,500,l),
(282,500,ls),
(292,500,o),
(292,500,o),
(292,480,cs),
(292,355,ls),
(292,335,o),
(292,335,o),
(282,335,cs),
(57,335,l),
(57,195,l),
(282,195,ls),
(385,195,o),
(442,252,o),
(442,355,cs),
(442,480,ls),
(442,583,o),
(385,640,o),
(282,640,cs),
(52,640,l),
(52,0,l)
);
}
);
width = 494;
},
{
layerId = "3CC93672-F71B-4D5C-A968-72DE9C2CEAD3";
shapes = (
{
attr = {
strokePos = "1";
};
closed = 1;
nodes = (
(59,0,l),
(59,610,l),
(168,610,ls),
(236,610,o),
(289,557,o),
(289,490,cs),
(289,385,ls),
(289,318,o),
(236,265,o),
(168,265,cs),
(34,265,l),
(34,235,l),
(168,235,ls),
(252,235,o),
(318,301,o),
(318,385,cs),
(318,490,ls),
(318,574,o),
(252,640,o),
(168,640,cs),
(30,640,l),
(30,0,l)
);
}
);
width = 353;
}
);
metricLeft = H;
metricRight = O;
unicode = 80;
},
{
glyphname = Q;
kernLeft = O;
kernRight = O;
lastChange = "2025-05-04 15:40:55 +0000";
layers = (
{
layerId = "71E51144-4680-4E23-982C-DE3E5ABB4D1F";
shapes = (
{
closed = 1;
nodes = (
(842,-21,l),
(649,134,l),
(561,24,l),
(754,-131,l)
);
},
{
ref = O;
}
);
width = 1011;
},
{
layerId = "A1E4B453-6299-48B5-AC61-B31B01EA2EEB";
shapes = (
{
closed = 1;
nodes = (
(796,-65,l),
(450,279,l),
(428,257,l),
(774,-87,l)
);
},
{
ref = O;
}
);
width = 866;
},
{
layerId = "8544E31D-FA38-4D18-9DEA-5E3E35DDFD01";
shapes = (
{
closed = 1;
nodes = (
(428,-42,l),
(341,116,l),
(219,48,l),
(306,-110,l)
);
},
{
ref = O;
}
);
width = 502;
},
{
layerId = "3CC93672-F71B-4D5C-A968-72DE9C2CEAD3";
shapes = (
{
closed = 1;
nodes = (
(362,-70,l),
(209,274,l),
(181,262,l),
(334,-82,l)
);
},
{
ref = O;
}
);
width = 403;
}
);
metricLeft = O;
metricRight = O;
unicode = 81;
},
{
glyphname = R;
kernLeft = H;
kernRight = R;
lastChange = "2025-05-04 15:40:55 +0000";
layers = (
{
layerId = "71E51144-4680-4E23-982C-DE3E5ABB4D1F";
shapes = (
{
closed = 1;
nodes = (
(880,0,l),
(655,283,l),
(463,283,l),
(688,0,l)
);
},
{
ref = P;
}
);
width = 935;
},
{
layerId = "A1E4B453-6299-48B5-AC61-B31B01EA2EEB";
shapes = (
{
closed = 1;
nodes = (
(698,0,l),
(530,262,l),
(494,262,l),
(662,0,l)
);
},
{
ref = P;
}
);
width = 800;
},
{
layerId = "8544E31D-FA38-4D18-9DEA-5E3E35DDFD01";
shapes = (
{
closed = 1;
nodes = (
(433,0,l),
(371,283,l),
(229,283,l),
(291,0,l)
);
},
{
ref = P;
}
);
width = 494;
},
{
layerId = "3CC93672-F71B-4D5C-A968-72DE9C2CEAD3";
shapes = (
{
closed = 1;
nodes = (
(324,0,l),
(257,262,l),
(227,262,l),
(294,0,l)
);
},
{
ref = P;
}
);
width = 359;
}
);
metricLeft = H;
metricRight = O;
unicode = 82;
},
{
glyphname = S;
kernLeft = S;
kernRight = S;
lastChange = "2025-05-04 16:44:31 +0000";
layers = (
{
layerId = "71E51144-4680-4E23-982C-DE3E5ABB4D1F";
shapes = (
{
attr = {
identifier = ID0x3050a7720;
strokePos = "1";
};
closed = 1;
nodes = (
(641,0,ls),
(753,0,o),
(841,84,o),
(841,190,cs),
(841,210,ls),
(841,316,o),
(753,400,o),
(641,400,cs),
(434,400,l),
(434,240,l),
(641,240,ls),
(651,240,o),
(671,236,o),
(671,210,cs),
(671,190,ls),
(671,164,o),
(651,160,o),
(641,160,cs),
(53,160,l),
(53,0,l)
);
},
{
attr = {
identifier = ID0x3050a7720;
strokePos = "1";
};
closed = 1;
nodes = (
(434,240,l),
(434,400,l),
(228,400,ls),
(218,400,o),
(198,404,o),
(198,430,cs),
(198,450,ls),
(198,476,o),
(218,480,o),
(228,480,cs),
(791,480,l),
(791,640,l),
(228,640,ls),
(116,640,o),
(28,556,o),
(28,450,cs),
(28,430,ls),
(28,324,o),
(116,240,o),
(228,240,cs)
);
}
);
width = 869;
},
{
layerId = "A1E4B453-6299-48B5-AC61-B31B01EA2EEB";
shapes = (
{
attr = {
identifier = ID0x3050a7720;
strokePos = "1";
};
closed = 1;
nodes = (
(496,0,ls),
(602,0,o),
(686,72,o),
(686,162,cs),
(686,173,ls),
(686,263,o),
(602,335,o),
(496,335,cs),
(360,335,l),
(360,305,l),
(496,305,ls),
(587,305,o),
(656,245,o),
(656,173,cs),
(656,162,ls),
(656,90,o),
(587,30,o),
(496,30,cs),
(55,30,l),
(55,0,l)
);
},
{
attr = {
identifier = ID0x3050a7720;
strokePos = "1";
};
closed = 1;
nodes = (
(360,305,l),
(360,335,l),
(225,335,ls),
(134,335,o),
(65,395,o),
(65,467,cs),
(65,478,ls),
(65,550,o),
(134,610,o),
(225,610,cs),
(646,610,l),
(646,640,l),
(225,640,ls),
(119,640,o),
(35,568,o),
(35,478,cs),
(35,467,ls),
(35,377,o),
(119,305,o),
(225,305,cs)
);
}
);
width = 721;
},
{
layerId = "8544E31D-FA38-4D18-9DEA-5E3E35DDFD01";
shapes = (
{
attr = {
identifier = ID0x3050a7720;
strokePos = "1";
};
closed = 1;
nodes = (
(282,0,ls),
(360,0,o),
(422,34,o),
(422,140,cs),
(422,250,ls),
(422,356,o),
(360,390,o),
(282,390,cs),
(218,390,l),
(218,250,l),
(272,250,ls),
(272,250,o),
(272,250,o),
(272,250,cs),
(272,140,ls),
(272,140,o),
(272,140,o),
(272,140,cs),
(41,140,l),
(41,0,l)
);
},
{
attr = {
identifier = ID0x3050a7720;
strokePos = "1";
};
closed = 1;
nodes = (
(218,250,l),
(218,390,l),
(176,390,ls),
(176,390,o),
(176,390,o),
(176,390,cs),
(176,500,ls),
(176,500,o),
(176,500,o),
(176,500,cs),
(392,500,l),
(392,640,l),
(166,640,ls),
(88,640,o),
(26,596,o),
(26,490,cs),
(26,400,ls),
(26,294,o),
(88,250,o),
(166,250,cs)
);
}
);
width = 448;
},
{
layerId = "3CC93672-F71B-4D5C-A968-72DE9C2CEAD3";
shapes = (
{
attr = {
identifier = ID0x3050a7720;
strokePos = "1";
};
closed = 1;
nodes = (
(221,0,ls),
(305,0,o),
(371,66,o),
(371,150,cs),
(371,185,ls),
(371,269,o),
(305,335,o),
(221,335,cs),
(194,335,l),
(194,305,l),
(221,305,ls),
(289,305,o),
(341,253,o),
(341,185,cs),
(341,150,ls),
(341,82,o),
(289,30,o),
(221,30,cs),
(31,30,l),
(31,0,l)
);
},
{
attr = {
identifier = ID0x3050a7720;
strokePos = "1";
};
closed = 1;
nodes = (
(194,305,l),
(194,335,l),
(168,335,ls),
(100,335,o),
(48,387,o),
(48,455,cs),
(48,490,ls),
(48,558,o),
(100,610,o),
(168,610,cs),
(345,610,l),
(345,640,l),
(168,640,ls),
(84,640,o),
(18,574,o),
(18,490,cs),
(18,455,ls),
(18,371,o),
(84,305,o),
(168,305,cs)
);
}
);
width = 389;
}
);
metricLeft = "=O/2";
metricRight = "=|";
unicode = 83;
},
{
glyphname = T;
kernLeft = T;
kernRight = T;
lastChange = "2025-05-04 16:46:52 +0000";
layers = (
{
layerId = "71E51144-4680-4E23-982C-DE3E5ABB4D1F";
shapes = (
{
closed = 1;
nodes = (
(524,0,l),
(524,640,l),
(354,640,l),
(354,0,l)
);
},
{
attr = {
strokePos = "0";
};
closed = 1;
nodes = (
(845,480,l),
(845,640,l),
(33,640,l),
(33,480,l)
);
}
);
width = 878;
},
{
layerId = "A1E4B453-6299-48B5-AC61-B31B01EA2EEB";
shapes = (
{
closed = 1;
nodes = (
(364,0,l),
(364,640,l),
(334,640,l),
(334,0,l)
);
},
{
attr = {
strokePos = "0";
};
closed = 1;
nodes = (
(660,610,l),
(660,640,l),
(40,640,l),
(40,610,l)
);
}
);
width = 700;
},
{
layerId = "8544E31D-FA38-4D18-9DEA-5E3E35DDFD01";
shapes = (
{
closed = 1;
nodes = (
(283,0,l),
(283,640,l),
(133,640,l),
(133,0,l)
);
},
{
attr = {
strokePos = "0";
};
closed = 1;
nodes = (
(390,500,l),
(390,640,l),
(26,640,l),
(26,500,l)
);
}
);
width = 416;
},
{
layerId = "3CC93672-F71B-4D5C-A968-72DE9C2CEAD3";
shapes = (
{
closed = 1;
nodes = (
(196,0,l),
(196,640,l),
(166,640,l),
(166,0,l)
);
},
{
attr = {
strokePos = "0";
};
closed = 1;
nodes = (
(347,610,l),
(347,640,l),
(15,640,l),
(15,610,l)
);
}
);
width = 362;
}
);
metricLeft = "=H/2";
metricRight = "=|";
unicode = 84;
},
{
glyphname = U;
kernLeft = H;
kernRight = H;
lastChange = "2025-05-04 16:19:42 +0000";
layers = (
{
layerId = "71E51144-4680-4E23-982C-DE3E5ABB4D1F";
shapes = (
{
attr = {
identifier = ID0x322a633e0;
strokePos = 1;
};
closed = 1;
nodes = (
(767,0,ls),
(879,0,o),
(967,88,o),
(967,200,cs),
(967,640,l),
(797,640,l),
(797,200,ls),
(797,175,o),
(784,160,o),
(767,160,cs),
(266,160,ls),
(249,160,o),
(236,175,o),
(236,200,cs),
(236,640,l),
(66,640,l),
(66,200,ls),
(66,88,o),
(154,0,o),
(266,0,cs)
);
}
);
width = 1033;
},
{
layerId = "A1E4B453-6299-48B5-AC61-B31B01EA2EEB";
shapes = (
{
attr = {
identifier = ID0x322a633e0;
strokePos = "1";
};
closed = 1;
nodes = (
(611,0,ls),
(717,0,o),
(801,84,o),
(801,190,cs),
(801,640,l),
(771,640,l),
(771,190,ls),
(771,100,o),
(701,30,o),
(611,30,cs),
(270,30,ls),
(180,30,o),
(110,100,o),
(110,190,cs),
(110,640,l),
(80,640,l),
(80,190,ls),
(80,84,o),
(164,0,o),
(270,0,cs)
);
}
);
width = 881;
},
{
layerId = "8544E31D-FA38-4D18-9DEA-5E3E35DDFD01";
shapes = (
{
attr = {
identifier = ID0x322a633e0;
strokePos = 1;
};
closed = 1;
nodes = (
(259,0,ls),
(362,0,o),
(419,57,o),
(419,160,cs),
(419,640,l),
(269,640,l),
(269,160,ls),
(269,140,o),
(269,140,o),
(259,140,cs),
(212,140,ls),
(202,140,o),
(202,140,o),
(202,160,cs),
(202,640,l),
(52,640,l),
(52,160,ls),
(52,57,o),
(109,0,o),
(212,0,cs)
);
}
);
width = 471;
},
{
layerId = "3CC93672-F71B-4D5C-A968-72DE9C2CEAD3";
shapes = (
{
attr = {
identifier = ID0x322a633e0;
strokePos = "1";
};
closed = 1;
nodes = (
(213,0,ls),
(297,0,o),
(363,66,o),
(363,150,cs),
(363,640,l),
(333,640,l),
(333,150,ls),
(333,82,o),
(281,30,o),
(213,30,cs),
(180,30,ls),
(112,30,o),
(60,82,o),
(60,150,cs),
(60,640,l),
(30,640,l),
(30,150,ls),
(30,66,o),
(96,0,o),
(180,0,cs)
);
}
);
width = 393;
}
);
metricLeft = H;
metricRight = H;
unicode = 85;
},
{
glyphname = V;
kernLeft = V;
kernRight = V;
lastChange = "2025-05-04 15:40:55 +0000";
layers = (
{
layerId = "71E51144-4680-4E23-982C-DE3E5ABB4D1F";
shapes = (
{
attr = {
identifier = ID0x303e09a70;
};
closed = 1;
nodes = (
(614,0,l),
(988,640,l),
(802,640,l),
(522,160,l),
(476,160,l),
(196,640,l),
(10,640,l),
(384,0,l)
);
}
);
width = 998;
},
{
layerId = "A1E4B453-6299-48B5-AC61-B31B01EA2EEB";
shapes = (
{
attr = {
identifier = ID0x303e09a70;
};
closed = 1;
nodes = (
(415,0,l),
(768,640,l),
(734,640,l),
(397,30,l),
(391,30,l),
(54,640,l),
(20,640,l),
(373,0,l)
);
}
);
width = 788;
},
{
layerId = "8544E31D-FA38-4D18-9DEA-5E3E35DDFD01";
shapes = (
{
attr = {
identifier = ID0x303e09a70;
};
closed = 1;
nodes = (
(332,0,l),
(434,640,l),
(282,640,l),
(204,150,l),
(250,150,l),
(172,640,l),
(20,640,l),
(122,0,l)
);
}
);
width = 454;
},
{
layerId = "3CC93672-F71B-4D5C-A968-72DE9C2CEAD3";
shapes = (
{
attr = {
identifier = ID0x303e09a70;
};
closed = 1;
nodes = (
(210,0,l),
(370,640,l),
(340,640,l),
(186,30,l),
(194,30,l),
(40,640,l),
(10,640,l),
(170,0,l)
);
}
);
width = 380;
}
);
metricLeft = X;
metricRight = "=|";
unicode = 86;
},
{
glyphname = W;
kernLeft = W;
kernRight = W;
lastChange = "2025-05-04 17:23:43 +0000";
layers = (
{
layerId = "71E51144-4680-4E23-982C-DE3E5ABB4D1F";
shapes = (
{
attr = {
identifier = ID0x303e09a70;
};
closed = 1;
nodes = (
(931,0,l),
(1165,640,l),
(995,640,l),
(819,160,l),
(843,160,l),
(666,640,l),
(496,640,l),
(731,0,l)
);
},
{
attr = {
identifier = ID0x303e09a70;
};
closed = 1;
nodes = (
(443,0,l),
(678,640,l),
(508,640,l),
(331,160,l),
(357,160,l),
(180,640,l),
(10,640,l),
(245,0,l)
);
}
);
width = 1175;
},
{
layerId = "A1E4B453-6299-48B5-AC61-B31B01EA2EEB";
shapes = (
{
attr = {
identifier = ID0x303e09a70;
};
closed = 1;
nodes = (
(725,0,l),
(946,640,l),
(914,640,l),
(703,30,l),
(706,30,l),
(493,640,l),
(461,640,l),
(684,0,l)
);
},
{
attr = {
identifier = ID0x303e09a70;
};
closed = 1;
nodes = (
(282,0,l),
(505,640,l),
(473,640,l),
(260,30,l),
(264,30,l),
(52,640,l),
(20,640,l),
(242,0,l)
);
}
);
width = 966;
},
{
layerId = "8544E31D-FA38-4D18-9DEA-5E3E35DDFD01";
shapes = (
{
attr = {
identifier = ID0x303e09a70;
};
closed = 1;
nodes = (
(497,0,l),
(578,640,l),
(426,640,l),
(365,150,l),
(431,150,l),
(370,640,l),
(218,640,l),
(299,0,l)
);
},
{
attr = {
identifier = ID0x303e09a70;
};
closed = 1;
nodes = (
(299,0,l),
(381,640,l),
(229,640,l),
(167,150,l),
(234,150,l),
(172,640,l),
(20,640,l),
(102,0,l)
);
}
);
width = 598;
},
{
layerId = "3CC93672-F71B-4D5C-A968-72DE9C2CEAD3";
shapes = (
{
attr = {
identifier = ID0x303e09a70;
};
closed = 1;
nodes = (
(149,0,l),
(240,640,l),
(210,640,l),
(123,30,l),
(134,30,l),
(40,640,l),
(10,640,l),
(108,0,l)
);
},
{
attr = {
identifier = ID0x303e09a70;
};
closed = 1;
nodes = (
(338,0,l),
(435,640,l),
(405,640,l),
(312,30,l),
(322,30,l),
(236,640,l),
(206,640,l),
(296,0,l)
);
}
);
width = 445;
}
);
metricLeft = X;
metricRight = "=|";
unicode = 87;
},
{
color = 3;
glyphname = X;
kernLeft = X;
kernRight = X;
lastChange = "2025-05-04 15:40:55 +0000";
layers = (
{
layerId = "71E51144-4680-4E23-982C-DE3E5ABB4D1F";
shapes = (
{
closed = 1;
nodes = (
(873,0,l),
(635,320,l),
(873,640,l),
(687,640,l),
(449,320,l),
(687,0,l)
);
},
{
closed = 1;
nodes = (
(196,0,l),
(434,320,l),
(196,640,l),
(10,640,l),
(248,320,l),
(10,0,l)
);
},
{
closed = 1;
nodes = (
(537,240,l),
(537,400,l),
(346,400,l),
(346,240,l)
);
}
);
width = 883;
},
{
layerId = "A1E4B453-6299-48B5-AC61-B31B01EA2EEB";
shapes = (
{
closed = 1;
nodes = (
(735,0,l),
(545,320,l),
(735,640,l),
(701,640,l),
(511,320,l),
(701,0,l)
);
},
{
closed = 1;
nodes = (
(54,0,l),
(244,320,l),
(54,640,l),
(20,640,l),
(210,320,l),
(20,0,l)
);
},
{
closed = 1;
nodes = (
(521,305,l),
(521,335,l),
(234,335,l),
(234,305,l)
);
}
);
width = 755;
},
{
layerId = "8544E31D-FA38-4D18-9DEA-5E3E35DDFD01";
shapes = (
{
closed = 1;
nodes = (
(473,0,l),
(356,320,l),
(473,640,l),
(313,640,l),
(196,320,l),
(313,0,l)
);
},
{
closed = 1;
nodes = (
(180,0,l),
(297,320,l),
(180,640,l),
(20,640,l),
(137,320,l),
(20,0,l)
);
},
{
closed = 1;
nodes = (
(273,250,l),
(273,390,l),
(220,390,l),
(220,250,l)
);
}
);
width = 493;
},
{
layerId = "3CC93672-F71B-4D5C-A968-72DE9C2CEAD3";
shapes = (
{
closed = 1;
nodes = (
(382,0,l),
(260,320,l),
(382,640,l),
(350,640,l),
(228,320,l),
(350,0,l)
);
},
{
closed = 1;
nodes = (
(42,0,l),
(163,320,l),
(42,640,l),
(10,640,l),
(131,320,l),
(10,0,l)
);
},
{
closed = 1;
nodes = (
(239,305,l),
(239,335,l),
(152,335,l),
(152,305,l)
);
}
);
width = 392;
}
);
metricRight = "=|";
unicode = 88;
},
{
glyphname = Y;
kernLeft = Y;
kernRight = Y;
lastChange = "2025-05-04 15:40:55 +0000";
layers = (
{
layerId = "71E51144-4680-4E23-982C-DE3E5ABB4D1F";
shapes = (
{
attr = {
identifier = ID0x303e09a70;
};
closed = 1;
nodes = (
(920,640,l),
(708,640,l),
(465,360,l),
(222,640,l),
(10,640,l),
(465,116,l)
);
},
{
closed = 1;
nodes = (
(550,0,l),
(550,238,l),
(380,238,l),
(380,0,l)
);
}
);
width = 930;
},
{
layerId = "A1E4B453-6299-48B5-AC61-B31B01EA2EEB";
shapes = (
{
attr = {
identifier = ID0x303e09a70;
};
closed = 1;
nodes = (
(700,640,l),
(660,640,l),
(360,288,l),
(60,640,l),
(20,640,l),
(360,242,l)
);
},
{
closed = 1;
nodes = (
(375,0,l),
(375,265,l),
(345,265,l),
(345,0,l)
);
}
);
width = 720;
},
{
layerId = "8544E31D-FA38-4D18-9DEA-5E3E35DDFD01";
shapes = (
{
attr = {
identifier = ID0x303e09a70;
};
closed = 1;
nodes = (
(426,640,l),
(268,640,l),
(222,505,l),
(178,640,l),
(20,640,l),
(218,31,l)
);
},
{
closed = 1;
nodes = (
(295,0,l),
(295,268,l),
(145,268,l),
(145,0,l)
);
}
);
width = 446;
},
{
layerId = "3CC93672-F71B-4D5C-A968-72DE9C2CEAD3";
shapes = (
{
attr = {
identifier = ID0x303e09a70;
};
closed = 1;
nodes = (
(390,640,l),
(356,640,l),
(200,301,l),
(44,640,l),
(10,640,l),
(200,229,l)
);
},
{
closed = 1;
nodes = (
(215,0,l),
(215,265,l),
(185,265,l),
(185,0,l)
);
}
);
width = 400;
}
);
metricLeft = X;
metricRight = "=|";
unicode = 89;
},
{
glyphname = Z;
kernLeft = Z;
kernRight = Z;
lastChange = "2025-05-04 15:40:55 +0000";
layers = (
{
layerId = "71E51144-4680-4E23-982C-DE3E5ABB4D1F";
shapes = (
{
closed = 1;
nodes = (
(845,0,l),
(845,160,l),
(213,160,l),
(213,85,l),
(825,464,l),
(825,639,l),
(33,639,l),
(33,479,l),
(665,479,l),
(665,554,l),
(53,175,l),
(53,0,l)
);
}
);
width = 878;
},
{
layerId = "A1E4B453-6299-48B5-AC61-B31B01EA2EEB";
shapes = (
{
closed = 1;
nodes = (
(720,0,l),
(720,30,l),
(70,30,l),
(70,71,l),
(720,553,l),
(720,640,l),
(40,640,l),
(40,610,l),
(690,610,l),
(690,569,l),
(40,87,l),
(40,0,l)
);
}
);
width = 760;
},
{
layerId = "8544E31D-FA38-4D18-9DEA-5E3E35DDFD01";
shapes = (
{
closed = 1;
nodes = (
(391,0,l),
(391,140,l),
(156,140,l),
(156,102,l),
(392,497,l),
(392,640,l),
(27,640,l),
(27,500,l),
(262,500,l),
(262,539,l),
(26,144,l),
(26,0,l)
);
}
);
width = 418;
},
{
layerId = "3CC93672-F71B-4D5C-A968-72DE9C2CEAD3";
shapes = (
{
closed = 1;
nodes = (
(319,0,l),
(319,30,l),
(45,30,l),
(45,75,l),
(327,557,l),
(327,640,l),
(23,640,l),
(23,610,l),
(297,610,l),
(297,565,l),
(15,83,l),
(15,0,l)
);
}
);
width = 342;
}
);
metricLeft = "=H/2";
metricRight = "=|";
unicode = 90;
},
{
glyphname = a;
kernLeft = a;
kernRight = a;
lastChange = "2025-05-04 16:19:42 +0000";
layers = (
{
layerId = "71E51144-4680-4E23-982C-DE3E5ABB4D1F";
shapes = (
{
attr = {
strokePos = "1";
};
closed = 1;
nodes = (
(695,0,l),
(695,260,ls),
(695,361,o),
(616,440,o),
(515,440,cs),
(77,440,l),
(77,300,l),
(515,300,ls),
(526,300,o),
(535,288,o),
(535,260,cs),
(535,140,l),
(224,140,ls),
(213,140,o),
(204,152,o),
(204,180,cs),
(204,223,l),
(44,223,l),
(44,180,ls),
(44,79,o),
(123,0,o),
(224,0,cs)
);
},
{
closed = 1;
nodes = (
(685,187,l),
(685,277,l),
(44,255,l),
(44,165,l)
);
}
);
width = 743;
},
{
layerId = "A1E4B453-6299-48B5-AC61-B31B01EA2EEB";
shapes = (
{
attr = {
strokePos = "1";
};
closed = 1;
nodes = (
(626,0,l),
(626,290,ls),
(626,374,o),
(560,440,o),
(476,440,cs),
(132,440,l),
(132,410,l),
(476,410,ls),
(544,410,o),
(596,358,o),
(596,290,cs),
(596,30,l),
(255,30,ls),
(187,30,o),
(135,82,o),
(135,150,cs),
(135,223,l),
(105,223,l),
(105,150,ls),
(105,66,o),
(171,0,o),
(255,0,cs)
);
},
{
closed = 1;
nodes = (
(618,217,l),
(618,247,l),
(105,225,l),
(105,195,l)
);
}
);
width = 739;
},
{
layerId = "8544E31D-FA38-4D18-9DEA-5E3E35DDFD01";
shapes = (
{
attr = {
strokePos = "1";
};
closed = 1;
nodes = (
(366,-8,l),
(366,290,ls),
(366,386,o),
(312,440,o),
(216,440,cs),
(66,440,l),
(66,300,l),
(216,300,ls),
(226,300,o),
(226,300,o),
(226,290,cs),
(226,132,l),
(190,132,ls),
(180,132,o),
(180,132,o),
(180,142,cs),
(180,219,l),
(40,219,l),
(40,142,ls),
(40,46,o),
(94,-8,o),
(190,-8,cs)
);
},
{
closed = 1;
nodes = (
(361,188,l),
(361,268,l),
(40,246,l),
(40,166,l)
);
}
);
width = 411;
},
{
layerId = "3CC93672-F71B-4D5C-A968-72DE9C2CEAD3";
shapes = (
{
attr = {
strokePos = "1";
};
closed = 1;
nodes = (
(296,-8,l),
(296,310,ls),
(296,383,o),
(239,440,o),
(166,440,cs),
(56,440,l),
(56,410,l),
(166,410,ls),
(223,410,o),
(266,367,o),
(266,310,cs),
(266,22,l),
(165,22,ls),
(108,22,o),
(65,65,o),
(65,122,cs),
(65,219,l),
(35,219,l),
(35,122,ls),
(35,49,o),
(92,-8,o),
(165,-8,cs)
);
},
{
closed = 1;
nodes = (
(292,213,l),
(292,243,l),
(35,221,l),
(35,191,l)
);
}
);
width = 326;
}
);
metricLeft = o;
metricRight = "=|n";
unicode = 97;
},
{
glyphname = c;
kernLeft = o;
kernRight = o;
lastChange = "2025-05-04 16:19:42 +0000";
layers = (
{
layerId = "71E51144-4680-4E23-982C-DE3E5ABB4D1F";
shapes = (
{
attr = {
strokePos = "1";
};
closed = 1;
nodes = (
(619,0,l),
(619,150,l),
(224,150,ls),
(213,150,o),
(204,159,o),
(204,180,cs),
(204,260,ls),
(204,281,o),
(213,290,o),
(224,290,cs),
(619,290,l),
(619,440,l),
(224,440,ls),
(123,440,o),
(44,361,o),
(44,260,cs),
(44,180,ls),
(44,79,o),
(123,0,o),
(224,0,cs)
);
}
);
width = 667;
},
{
layerId = "A1E4B453-6299-48B5-AC61-B31B01EA2EEB";
shapes = (
{
attr = {
strokePos = "1";
};
closed = 1;
nodes = (
(565,0,l),
(565,30,l),
(285,30,ls),
(200,30,o),
(135,95,o),
(135,180,cs),
(135,260,ls),
(135,345,o),
(200,410,o),
(285,410,cs),
(565,410,l),
(565,440,l),
(285,440,ls),
(184,440,o),
(105,361,o),
(105,260,cs),
(105,180,ls),
(105,79,o),
(184,0,o),
(285,0,cs)
);
}
);
width = 678;
},
{
layerId = "8544E31D-FA38-4D18-9DEA-5E3E35DDFD01";
shapes = (
{
attr = {
strokePos = "1";
};
closed = 1;
nodes = (
(328,0,l),
(328,130,l),
(190,130,ls),
(180,130,o),
(180,130,o),
(180,150,cs),
(180,290,ls),
(180,310,o),
(180,310,o),
(190,310,cs),
(328,310,l),
(328,440,l),
(190,440,ls),
(94,440,o),
(40,386,o),
(40,290,cs),
(40,150,ls),
(40,54,o),
(94,0,o),
(190,0,cs)
);
}
);
width = 373;
},
{
layerId = "3CC93672-F71B-4D5C-A968-72DE9C2CEAD3";
shapes = (
{
attr = {
strokePos = "1";
};
closed = 1;
nodes = (
(275,0,l),
(275,30,l),
(165,30,ls),
(108,30,o),
(65,73,o),
(65,130,cs),
(65,310,ls),
(65,367,o),
(108,410,o),
(165,410,cs),
(275,410,l),
(275,440,l),
(165,440,ls),
(92,440,o),
(35,383,o),
(35,310,cs),
(35,130,ls),
(35,57,o),
(92,0,o),
(165,0,cs)
);
}
);
width = 305;
}
);
metricLeft = o;
metricRight = n;
unicode = 99;
},
{
glyphname = d;
kernLeft = o;
kernRight = l;
lastChange = "2025-05-04 16:19:42 +0000";
layers = (
{
layerId = "71E51144-4680-4E23-982C-DE3E5ABB4D1F";
shapes = (
{
attr = {
strokePos = "1";
};
closed = 1;
nodes = (
(669,0,l),
(669,640,l),
(509,640,l),
(509,150,l),
(224,150,ls),
(213,150,o),
(204,159,o),
(204,180,cs),
(204,260,ls),
(204,281,o),
(213,290,o),
(224,290,cs),
(656,290,l),
(656,440,l),
(224,440,ls),
(123,440,o),
(44,361,o),
(44,260,cs),
(44,180,ls),
(44,79,o),
(123,0,o),
(224,0,cs)
);
}
);
width = 717;
},
{
layerId = "A1E4B453-6299-48B5-AC61-B31B01EA2EEB";
shapes = (
{
attr = {
strokePos = "1";
};
closed = 1;
nodes = (
(605,0,l),
(605,640,l),
(575,640,l),
(575,30,l),
(285,30,ls),
(200,30,o),
(135,95,o),
(135,180,cs),
(135,260,ls),
(135,345,o),
(200,410,o),
(285,410,cs),
(594,410,l),
(594,440,l),
(285,440,ls),
(184,440,o),
(105,361,o),
(105,260,cs),
(105,180,ls),
(105,79,o),
(184,0,o),
(285,0,cs)
);
}
);
width = 718;
},
{
layerId = "8544E31D-FA38-4D18-9DEA-5E3E35DDFD01";
shapes = (
{
attr = {
strokePos = "1";
};
closed = 1;
nodes = (
(360,0,l),
(360,640,l),
(220,640,l),
(220,130,l),
(190,130,ls),
(180,130,o),
(180,130,o),
(180,150,cs),
(180,290,ls),
(180,310,o),
(180,310,o),
(190,310,cs),
(352,310,l),
(352,440,l),
(190,440,ls),
(94,440,o),
(40,386,o),
(40,290,cs),
(40,150,ls),
(40,54,o),
(94,0,o),
(190,0,cs)
);
}
);
width = 405;
},
{
layerId = "3CC93672-F71B-4D5C-A968-72DE9C2CEAD3";
shapes = (
{
attr = {
strokePos = "1";
};
closed = 1;
nodes = (
(291,0,l),
(291,640,l),
(261,640,l),
(261,30,l),
(165,30,ls),
(108,30,o),
(65,73,o),
(65,130,cs),
(65,310,ls),
(65,367,o),
(108,410,o),
(165,410,cs),
(285,410,l),
(285,440,l),
(165,440,ls),
(92,440,o),
(35,383,o),
(35,310,cs),
(35,130,ls),
(35,57,o),
(92,0,o),
(165,0,cs)
);
}
);
width = 321;
}
);
metricLeft = o;
metricRight = "=|n";
unicode = 100;
},
{
glyphname = e;
kernLeft = o;
kernRight = o;
lastChange = "2025-05-04 16:19:42 +0000";
layers = (
{
layerId = "71E51144-4680-4E23-982C-DE3E5ABB4D1F";
shapes = (
{
attr = {
strokePos = "1";
};
closed = 1;
nodes = (
(656,0,l),
(656,140,l),
(224,140,ls),
(213,140,o),
(204,152,o),
(204,180,cs),
(204,260,ls),
(204,288,o),
(213,300,o),
(224,300,cs),
(489,300,ls),
(500,300,o),
(509,288,o),
(509,260,cs),
(509,213,l),
(669,213,l),
(669,260,ls),
(669,361,o),
(590,440,o),
(489,440,cs),
(224,440,ls),
(123,440,o),
(44,361,o),
(44,260,cs),
(44,180,ls),
(44,79,o),
(123,0,o),
(224,0,cs)
);
},
{
closed = 1;
nodes = (
(669,179,l),
(669,259,l),
(55,259,l),
(55,179,l)
);
}
);
width = 713;
},
{
layerId = "A1E4B453-6299-48B5-AC61-B31B01EA2EEB";
shapes = (
{
attr = {
strokePos = "1";
};
closed = 1;
nodes = (
(594,0,l),
(594,30,l),
(285,30,ls),
(200,30,o),
(135,95,o),
(135,180,cs),
(135,260,ls),
(135,345,o),
(200,410,o),
(285,410,cs),
(425,410,ls),
(510,410,o),
(575,345,o),
(575,260,cs),
(575,212,l),
(605,212,l),
(605,260,ls),
(605,361,o),
(526,440,o),
(425,440,cs),
(285,440,ls),
(184,440,o),
(105,361,o),
(105,260,cs),
(105,180,ls),
(105,79,o),
(184,0,o),
(285,0,cs)
);
},
{
closed = 1;
nodes = (
(605,189,l),
(605,219,l),
(113,219,l),
(113,189,l)
);
}
);
width = 710;
},
{
associatedMasterId = "A1E4B453-6299-48B5-AC61-B31B01EA2EEB";
attr = {
coordinates = (
90,
120
);
};
layerId = "AE0C8137-AB16-48F7-81F2-8CEED585FDDF";
name = "11 Apr 25 at 21:32";
shapes = (
{
attr = {
strokePos = 1;
};
closed = 1;
nodes = (
(590,0,l),
(590,77,l),
(250,77,ls),
(200,77,o),
(160,118,o),
(160,176,cs),
(160,265,ls),
(160,323,o),
(200,363,o),
(249,363,cs),
(428,363,ls),
(477,363,o),
(517,323,o),
(517,265,cs),
(517,213,l),
(602,213,l),
(602,265,ls),
(602,364,o),
(526,440,o),
(428,440,cs),
(249,440,ls),
(151,440,o),
(75,364,o),
(75,265,cs),
(75,176,ls),
(75,78,o),
(151,0,o),
(250,0,cs)
);
},
{
closed = 1;
nodes = (
(602,169,l),
(602,254,l),
(84,254,l),
(84,169,l)
);
}
);
width = 676;
},
{
layerId = "8544E31D-FA38-4D18-9DEA-5E3E35DDFD01";
shapes = (
{
attr = {
strokePos = "1";
};
closed = 1;
nodes = (
(340,0,l),
(340,140,l),
(190,140,ls),
(180,140,o),
(180,140,o),
(180,150,cs),
(180,298,ls),
(180,308,o),
(180,308,o),
(190,308,cs),
(216,308,ls),
(226,308,o),
(226,308,o),
(226,298,cs),
(226,221,l),
(366,221,l),
(366,298,ls),
(366,394,o),
(312,448,o),
(216,448,cs),
(190,448,ls),
(94,448,o),
(40,394,o),
(40,298,cs),
(40,150,ls),
(40,54,o),
(94,0,o),
(190,0,cs)
);
},
{
closed = 1;
nodes = (
(366,187,l),
(366,267,l),
(47,267,l),
(47,187,l)
);
}
);
width = 406;
},
{
layerId = "3CC93672-F71B-4D5C-A968-72DE9C2CEAD3";
shapes = (
{
attr = {
strokePos = "1";
};
closed = 1;
nodes = (
(273,0,l),
(273,30,l),
(165,30,ls),
(108,30,o),
(65,73,o),
(65,130,cs),
(65,310,ls),
(65,367,o),
(105,410,o),
(155,410,cs),
(171,410,ls),
(221,410,o),
(261,367,o),
(261,310,cs),
(261,212,l),
(291,212,l),
(291,310,ls),
(291,383,o),
(238,440,o),
(171,440,cs),
(155,440,ls),
(88,440,o),
(35,383,o),
(35,310,cs),
(35,130,ls),
(35,57,o),
(92,0,o),
(165,0,cs)
);
},
{
closed = 1;
nodes = (
(291,189,l),
(291,219,l),
(41,219,l),
(41,189,l)
);
}
);
width = 326;
},
{
associatedMasterId = "3CC93672-F71B-4D5C-A968-72DE9C2CEAD3";
attr = {
coordinates = (
100,
75
);
};
layerId = "DC6AAD84-9A42-492E-BF3D-F0EF268BF3C9";
name = "11 Apr 25 at 21:32";
shapes = (
{
attr = {
strokePos = 1;
};
closed = 1;
nodes = (
(307,0,l),
(307,85,l),
(178,85,ls),
(141,85,o),
(123,103,o),
(123,140,cs),
(123,304,ls),
(123,343,o),
(139,359,o),
(173,359,cs),
(194,359,ls),
(227,359,o),
(244,342,o),
(244,304,cs),
(244,217,l),
(329,217,l),
(329,304,ls),
(329,389,o),
(275,444,o),
(194,444,cs),
(173,444,ls),
(91,444,o),
(38,389,o),
(38,304,cs),
(38,140,ls),
(38,56,o),
(93,0,o),
(178,0,cs)
);
},
{
closed = 1;
nodes = (
(329,174,l),
(329,259,l),
(44,259,l),
(44,174,l)
);
}
);
width = 366;
}
);
metricLeft = o;
metricRight = o;
unicode = 101;
},
{
glyphname = f;
kernLeft = f;
kernRight = f;
lastChange = "2025-05-04 16:19:42 +0000";
layers = (
{
layerId = "71E51144-4680-4E23-982C-DE3E5ABB4D1F";
shapes = (
{
attr = {
strokePos = 1;
};
closed = 1;
nodes = (
(208,0,l),
(208,460,ls),
(208,481,o),
(217,490,o),
(228,490,cs),
(491,490,l),
(491,640,l),
(228,640,ls),
(127,640,o),
(48,561,o),
(48,460,cs),
(48,0,l)
);
},
{
attr = {
strokePos = "0";
};
closed = 1;
nodes = (
(491,276,l),
(491,426,l),
(61,426,l),
(61,276,l)
);
}
);
width = 515;
},
{
layerId = "A1E4B453-6299-48B5-AC61-B31B01EA2EEB";
shapes = (
{
attr = {
strokePos = "1";
};
closed = 1;
nodes = (
(143,0,l),
(143,460,ls),
(143,545,o),
(208,610,o),
(293,610,cs),
(468,610,l),
(468,640,l),
(293,640,ls),
(192,640,o),
(113,561,o),
(113,460,cs),
(113,0,l)
);
},
{
attr = {
strokePos = "0";
};
closed = 1;
nodes = (
(468,336,l),
(468,366,l),
(124,366,l),
(124,336,l)
);
}
);
width = 525;
},
{
layerId = "8544E31D-FA38-4D18-9DEA-5E3E35DDFD01";
shapes = (
{
attr = {
strokePos = 1;
};
closed = 1;
nodes = (
(185,0,l),
(185,490,ls),
(185,510,o),
(185,510,o),
(195,510,cs),
(249,510,l),
(249,640,l),
(195,640,ls),
(99,640,o),
(45,586,o),
(45,490,cs),
(45,0,l)
);
},
{
attr = {
strokePos = "0";
};
closed = 1;
nodes = (
(249,296,l),
(249,426,l),
(53,426,l),
(53,296,l)
);
}
);
width = 272;
},
{
layerId = "3CC93672-F71B-4D5C-A968-72DE9C2CEAD3";
shapes = (
{
attr = {
strokePos = "1";
};
closed = 1;
nodes = (
(60,0,l),
(60,510,ls),
(60,576,o),
(94,610,o),
(160,610,cs),
(194,610,l),
(194,640,l),
(160,640,ls),
(77,640,o),
(30,593,o),
(30,510,cs),
(30,0,l)
);
},
{
attr = {
strokePos = "0";
};
closed = 1;
nodes = (
(194,356,l),
(194,386,l),
(37,386,l),
(37,356,l)
);
}
);
width = 209;
}
);
metricLeft = n;
metricRight = "=n/2";
unicode = 102;
},
{
glyphname = g;
kernLeft = o;
kernRight = l;
lastChange = "2025-05-04 16:27:26 +0000";
layers = (
{
layerId = "71E51144-4680-4E23-982C-DE3E5ABB4D1F";
shapes = (
{
attr = {
strokePos = "0";
};
closed = 1;
nodes = (
(509,-200,ls),
(612,-200,o),
(669,-143,o),
(669,-40,cs),
(669,440,l),
(509,440,l),
(509,-50,ls),
(509,-50,o),
(509,-50,o),
(509,-50,cs),
(96,-50,l),
(96,-200,l)
);
},
{
attr = {
identifier = ID0x313c96120;
strokePos = "1";
};
closed = 1;
nodes = (
(656,0,l),
(656,150,l),
(224,150,ls),
(213,150,o),
(204,159,o),
(204,180,cs),
(204,260,ls),
(204,281,o),
(213,290,o),
(224,290,cs),
(669,290,l),
(669,440,l),
(224,440,ls),
(123,440,o),
(44,361,o),
(44,260,cs),
(44,180,ls),
(44,79,o),
(123,0,o),
(224,0,cs)
);
}
);
width = 717;
},
{
layerId = "A1E4B453-6299-48B5-AC61-B31B01EA2EEB";
shapes = (
{
attr = {
strokePos = "0";
};
closed = 1;
nodes = (
(445,-200,ls),
(548,-200,o),
(605,-143,o),
(605,-40,cs),
(605,440,l),
(575,440,l),
(575,-40,ls),
(575,-126,o),
(531,-170,o),
(445,-170,cs),
(138,-170,l),
(138,-200,l)
);
},
{
attr = {
identifier = ID0x313c96120;
strokePos = "1";
};
closed = 1;
nodes = (
(594,0,l),
(594,30,l),
(285,30,ls),
(200,30,o),
(135,95,o),
(135,180,cs),
(135,260,ls),
(135,345,o),
(200,410,o),
(285,410,cs),
(605,410,l),
(605,440,l),
(285,440,ls),
(184,440,o),
(105,361,o),
(105,260,cs),
(105,180,ls),
(105,79,o),
(184,0,o),
(285,0,cs)
);
}
);
width = 718;
},
{
layerId = "8544E31D-FA38-4D18-9DEA-5E3E35DDFD01";
shapes = (
{
attr = {
strokePos = "0";
};
closed = 1;
nodes = (
(230,-200,ls),
(313,-200,o),
(360,-153,o),
(360,-70,cs),
(360,440,l),
(220,440,l),
(220,-70,ls),
(220,-70,o),
(220,-70,o),
(220,-70,cs),
(62,-70,l),
(62,-200,l)
);
},
{
attr = {
identifier = ID0x313c96120;
strokePos = "1";
};
closed = 1;
nodes = (
(352,0,l),
(352,130,l),
(190,130,ls),
(180,130,o),
(180,130,o),
(180,150,cs),
(180,290,ls),
(180,310,o),
(180,310,o),
(190,310,cs),
(360,310,l),
(360,440,l),
(190,440,ls),
(94,440,o),
(40,386,o),
(40,290,cs),
(40,150,ls),
(40,54,o),
(94,0,o),
(190,0,cs)
);
}
);
width = 405;
},
{
layerId = "3CC93672-F71B-4D5C-A968-72DE9C2CEAD3";
shapes = (
{
attr = {
strokePos = "0";
};
closed = 1;
nodes = (
(181,-200,ls),
(243,-200,o),
(291,-152,o),
(291,-90,cs),
(291,440,l),
(261,440,l),
(261,-90,ls),
(261,-136,o),
(227,-170,o),
(181,-170,cs),
(50,-170,l),
(50,-200,l)
);
},
{
attr = {
identifier = ID0x313c96120;
strokePos = "1";
};
closed = 1;
nodes = (
(285,0,l),
(285,30,l),
(165,30,ls),
(108,30,o),
(65,73,o),
(65,130,cs),
(65,310,ls),
(65,367,o),
(108,410,o),
(165,410,cs),
(291,410,l),
(291,440,l),
(165,440,ls),
(92,440,o),
(35,383,o),
(35,310,cs),
(35,130,ls),
(35,57,o),
(92,0,o),
(165,0,cs)
);
}
);
width = 321;
}
);
metricLeft = o;
metricRight = "=|n";
unicode = 103;
},
{
glyphname = h;
kernLeft = l;
kernRight = n;
lastChange = "2025-05-04 16:19:42 +0000";
layers = (
{
layerId = "71E51144-4680-4E23-982C-DE3E5ABB4D1F";
shapes = (
{
attr = {
strokePos = "0";
};
closed = 1;
nodes = (
(673,0,l),
(673,260,ls),
(673,361,o),
(594,440,o),
(493,440,cs),
(60,440,l),
(60,290,l),
(493,290,ls),
(504,290,o),
(513,281,o),
(513,260,cs),
(513,0,l)
);
},
{
attr = {
strokePos = 1;
};
closed = 1;
nodes = (
(208,0,l),
(208,640,l),
(48,640,l),
(48,0,l)
);
}
);
width = 721;
},
{
layerId = "A1E4B453-6299-48B5-AC61-B31B01EA2EEB";
shapes = (
{
attr = {
strokePos = "0";
};
closed = 1;
nodes = (
(613,0,l),
(613,260,ls),
(613,361,o),
(534,440,o),
(433,440,cs),
(122,440,l),
(122,410,l),
(433,410,ls),
(518,410,o),
(583,345,o),
(583,260,cs),
(583,0,l)
);
},
{
attr = {
strokePos = "1";
};
closed = 1;
nodes = (
(143,0,l),
(143,640,l),
(113,640,l),
(113,0,l)
);
}
);
width = 726;
},
{
layerId = "8544E31D-FA38-4D18-9DEA-5E3E35DDFD01";
shapes = (
{
attr = {
strokePos = "0";
};
closed = 1;
nodes = (
(365,0,l),
(365,290,ls),
(365,386,o),
(311,440,o),
(215,440,cs),
(53,440,l),
(53,310,l),
(215,310,ls),
(225,310,o),
(225,310,o),
(225,290,cs),
(225,0,l)
);
},
{
attr = {
strokePos = 1;
};
closed = 1;
nodes = (
(185,0,l),
(185,640,l),
(45,640,l),
(45,0,l)
);
}
);
width = 410;
},
{
layerId = "3CC93672-F71B-4D5C-A968-72DE9C2CEAD3";
shapes = (
{
attr = {
strokePos = "0";
};
closed = 1;
nodes = (
(286,0,l),
(286,310,ls),
(286,383,o),
(229,440,o),
(156,440,cs),
(36,440,l),
(36,410,l),
(156,410,ls),
(213,410,o),
(256,367,o),
(256,310,cs),
(256,0,l)
);
},
{
attr = {
strokePos = "1";
};
closed = 1;
nodes = (
(60,0,l),
(60,640,l),
(30,640,l),
(30,0,l)
);
}
);
width = 316;
}
);
metricLeft = n;
metricRight = n;
unicode = 104;
},
{
glyphname = i;
kernLeft = l;
kernRight = l;
lastChange = "2025-05-04 15:40:55 +0000";
layers = (
{
layerId = "71E51144-4680-4E23-982C-DE3E5ABB4D1F";
shapes = (
{
closed = 1;
nodes = (
(226,0,l),
(226,440,l),
(66,440,l),
(66,0,l)
);
},
{
pos = (54,35);
ref = "dotabove-ar";
scale = (1.25,1);
}
);
width = 289;
},
{
layerId = "A1E4B453-6299-48B5-AC61-B31B01EA2EEB";
shapes = (
{
closed = 1;
nodes = (
(159,0,l),
(159,430,l),
(129,430,l),
(129,0,l)
);
},
{
pos = (108,35);
ref = "dotabove-ar";
}
);
width = 282;
},
{
layerId = "8544E31D-FA38-4D18-9DEA-5E3E35DDFD01";
shapes = (
{
closed = 1;
nodes = (
(185,0,l),
(185,440,l),
(45,440,l),
(45,0,l)
);
},
{
pos = (57,35);
ref = "dotabove-ar";
scale = (0.8,1);
}
);
width = 230;
},
{
layerId = "3CC93672-F71B-4D5C-A968-72DE9C2CEAD3";
shapes = (
{
closed = 1;
nodes = (
(63,0,l),
(63,440,l),
(33,440,l),
(33,0,l)
);
},
{
pos = (27,35);
ref = "dotabove-ar";
scale = (0.64,1);
}
);
width = 96;
}
);
metricLeft = n;
metricRight = "=|";
unicode = 105;
},
{
glyphname = j;
kernLeft = j;
kernRight = l;
lastChange = "2025-05-04 16:27:41 +0000";
layers = (
{
layerId = "71E51144-4680-4E23-982C-DE3E5ABB4D1F";
shapes = (
{
attr = {
strokePos = 0;
};
closed = 1;
nodes = (
(104,-200,ls),
(207,-200,o),
(264,-143,o),
(264,-40,cs),
(264,440,l),
(104,440,l),
(104,-50,ls),
(104,-50,o),
(104,-50,o),
(104,-50,cs),
(-218,-50,l),
(-218,-200,l)
);
}
);
width = 312;
},
{
layerId = "A1E4B453-6299-48B5-AC61-B31B01EA2EEB";
shapes = (
{
attr = {
strokePos = "0";
};
closed = 1;
nodes = (
(56,-200,ls),
(159,-200,o),
(216,-143,o),
(216,-40,cs),
(216,440,l),
(186,440,l),
(186,-40,ls),
(186,-126,o),
(142,-170,o),
(56,-170,cs),
(-170,-170,l),
(-170,-200,l)
);
}
);
width = 329;
},
{
layerId = "8544E31D-FA38-4D18-9DEA-5E3E35DDFD01";
shapes = (
{
attr = {
strokePos = 0;
};
closed = 1;
nodes = (
(66,-200,ls),
(149,-200,o),
(196,-153,o),
(196,-70,cs),
(196,440,l),
(56,440,l),
(56,-70,ls),
(56,-70,o),
(56,-70,o),
(56,-70,cs),
(0,-70,l),
(0,-200,l)
);
}
);
width = 241;
},
{
layerId = "3CC93672-F71B-4D5C-A968-72DE9C2CEAD3";
shapes = (
{
attr = {
strokePos = "0";
};
closed = 1;
nodes = (
(36,-200,ls),
(98,-200,o),
(146,-152,o),
(146,-90,cs),
(146,440,l),
(116,440,l),
(116,-90,ls),
(116,-136,o),
(82,-170,o),
(36,-170,cs),
(0,-170,l),
(0,-200,l)
);
}
);
width = 176;
}
);
metricRight = "=|n";
unicode = 106;
},
{
glyphname = k;
kernLeft = l;
kernRight = k;
lastChange = "2025-05-04 17:24:00 +0000";
layers = (
{
layerId = "71E51144-4680-4E23-982C-DE3E5ABB4D1F";
shapes = (
{
closed = 1;
nodes = (
(648,0,l),
(525,228,l),
(650,440,l),
(476,440,l),
(353,232,l),
(478,0,l)
);
},
{
attr = {
strokePos = "0";
};
closed = 1;
nodes = (
(208,0,l),
(208,640,l),
(48,640,l),
(48,0,l)
);
},
{
closed = 1;
nodes = (
(436,155,l),
(436,305,l),
(51,305,l),
(51,155,l)
);
}
);
width = 668;
},
{
layerId = "A1E4B453-6299-48B5-AC61-B31B01EA2EEB";
shapes = (
{
closed = 1;
nodes = (
(542,0,l),
(422,230,l),
(542,440,l),
(508,440,l),
(388,230,l),
(508,0,l)
);
},
{
attr = {
strokePos = "0";
};
closed = 1;
nodes = (
(143,0,l),
(143,640,l),
(113,640,l),
(113,0,l)
);
},
{
closed = 1;
nodes = (
(403,215,l),
(403,245,l),
(117,245,l),
(117,215,l)
);
}
);
width = 562;
},
{
layerId = "8544E31D-FA38-4D18-9DEA-5E3E35DDFD01";
shapes = (
{
closed = 1;
nodes = (
(389,0,l),
(314,231,l),
(379,440,l),
(243,440,l),
(178,229,l),
(253,0,l)
);
},
{
attr = {
strokePos = 0;
};
closed = 1;
nodes = (
(185,0,l),
(185,640,l),
(45,640,l),
(45,0,l)
);
},
{
closed = 1;
nodes = (
(244,165,l),
(244,295,l),
(47,295,l),
(47,165,l)
);
}
);
width = 397;
},
{
layerId = "3CC93672-F71B-4D5C-A968-72DE9C2CEAD3";
shapes = (
{
closed = 1;
nodes = (
(279,0,l),
(217,240,l),
(266,440,l),
(236,440,l),
(187,240,l),
(249,0,l)
);
},
{
attr = {
strokePos = "0";
};
closed = 1;
nodes = (
(60,0,l),
(60,640,l),
(30,640,l),
(30,0,l)
);
},
{
closed = 1;
nodes = (
(200,225,l),
(200,255,l),
(31,255,l),
(31,225,l)
);
}
);
width = 294;
}
);
metricLeft = n;
metricRight = x;
unicode = 107;
},
{
glyphname = l;
kernLeft = l;
kernRight = l;
lastChange = "2025-05-04 15:40:55 +0000";
layers = (
{
layerId = "71E51144-4680-4E23-982C-DE3E5ABB4D1F";
shapes = (
{
attr = {
strokePos = "0";
};
closed = 1;
nodes = (
(208,0,l),
(208,640,l),
(48,640,l),
(48,0,l)
);
}
);
width = 256;
},
{
layerId = "A1E4B453-6299-48B5-AC61-B31B01EA2EEB";
shapes = (
{
attr = {
strokePos = "0";
};
closed = 1;
nodes = (
(143,0,l),
(143,640,l),
(113,640,l),
(113,0,l)
);
}
);
width = 256;
},
{
layerId = "8544E31D-FA38-4D18-9DEA-5E3E35DDFD01";
shapes = (
{
attr = {
strokePos = "0";
};
closed = 1;
nodes = (
(185,0,l),
(185,640,l),
(45,640,l),
(45,0,l)
);
}
);
width = 230;
},
{
layerId = "3CC93672-F71B-4D5C-A968-72DE9C2CEAD3";
shapes = (
{
attr = {
strokePos = "0";
};
closed = 1;
nodes = (
(60,0,l),
(60,640,l),
(30,640,l),
(30,0,l)
);
}
);
width = 90;
}
);
metricLeft = n;
metricRight = "=|";
unicode = 108;
},
{
glyphname = m;
kernLeft = n;
kernRight = n;
lastChange = "2025-05-04 16:19:42 +0000";
layers = (
{
layerId = "71E51144-4680-4E23-982C-DE3E5ABB4D1F";
shapes = (
{
attr = {
strokePos = "0";
};
closed = 1;
nodes = (
(208,0,l),
(208,290,l),
(718,290,ls),
(729,290,o),
(738,281,o),
(738,260,cs),
(738,0,l),
(898,0,l),
(898,260,ls),
(898,361,o),
(819,440,o),
(718,440,cs),
(48,440,l),
(48,0,l)
);
},
{
closed = 1;
nodes = (
(553,0,l),
(553,433,l),
(393,433,l),
(393,0,l)
);
}
);
width = 946;
},
{
layerId = "A1E4B453-6299-48B5-AC61-B31B01EA2EEB";
shapes = (
{
attr = {
strokePos = "0";
};
closed = 1;
nodes = (
(143,0,l),
(143,400,l),
(613,400,ls),
(698,400,o),
(763,335,o),
(763,250,cs),
(763,0,l),
(793,0,l),
(793,250,ls),
(793,351,o),
(714,430,o),
(613,430,cs),
(113,430,l),
(113,0,l)
);
},
{
closed = 1;
nodes = (
(468,0,l),
(468,423,l),
(438,423,l),
(438,0,l)
);
}
);
width = 906;
},
{
layerId = "8544E31D-FA38-4D18-9DEA-5E3E35DDFD01";
shapes = (
{
attr = {
strokePos = "0";
};
closed = 1;
nodes = (
(185,0,l),
(185,310,l),
(379,310,ls),
(389,310,o),
(389,310,o),
(389,290,cs),
(389,0,l),
(529,0,l),
(529,290,ls),
(529,386,o),
(475,440,o),
(379,440,cs),
(45,440,l),
(45,0,l)
);
},
{
closed = 1;
nodes = (
(357,0,l),
(357,433,l),
(217,433,l),
(217,0,l)
);
}
);
width = 574;
},
{
layerId = "3CC93672-F71B-4D5C-A968-72DE9C2CEAD3";
shapes = (
{
attr = {
strokePos = "0";
};
closed = 1;
nodes = (
(60,0,l),
(60,410,l),
(296,410,ls),
(353,410,o),
(396,367,o),
(396,310,cs),
(396,0,l),
(426,0,l),
(426,310,ls),
(426,383,o),
(369,440,o),
(296,440,cs),
(30,440,l),
(30,0,l)
);
},
{
closed = 1;
nodes = (
(239,0,l),
(239,433,l),
(209,433,l),
(209,0,l)
);
}
);
width = 456;
}
);
metricLeft = n;
metricRight = n;
unicode = 109;
},
{
color = 3;
glyphname = n;
kernLeft = n;
kernRight = n;
lastChange = "2025-05-04 16:19:42 +0000";
layers = (
{
layerId = "71E51144-4680-4E23-982C-DE3E5ABB4D1F";
shapes = (
{
attr = {
strokePos = 0;
};
closed = 1;
nodes = (
(208,0,l),
(208,290,l),
(493,290,ls),
(504,290,o),
(513,281,o),
(513,260,cs),
(513,0,l),
(673,0,l),
(673,260,ls),
(673,361,o),
(594,440,o),
(493,440,cs),
(48,440,l),
(48,0,l)
);
}
);
width = 721;
},
{
layerId = "A1E4B453-6299-48B5-AC61-B31B01EA2EEB";
shapes = (
{
attr = {
strokePos = "0";
};
closed = 1;
nodes = (
(143,0,l),
(143,400,l),
(433,400,ls),
(518,400,o),
(583,335,o),
(583,250,cs),
(583,0,l),
(613,0,l),
(613,250,ls),
(613,351,o),
(534,430,o),
(433,430,cs),
(113,430,l),
(113,0,l)
);
}
);
width = 726;
},
{
layerId = "8544E31D-FA38-4D18-9DEA-5E3E35DDFD01";
shapes = (
{
attr = {
strokePos = 0;
};
closed = 1;
nodes = (
(185,0,l),
(185,310,l),
(215,310,ls),
(225,310,o),
(225,310,o),
(225,290,cs),
(225,0,l),
(365,0,l),
(365,290,ls),
(365,386,o),
(311,440,o),
(215,440,cs),
(45,440,l),
(45,0,l)
);
}
);
width = 410;
},
{
layerId = "3CC93672-F71B-4D5C-A968-72DE9C2CEAD3";
shapes = (
{
attr = {
strokePos = "0";
};
closed = 1;
nodes = (
(60,0,l),
(60,410,l),
(166,410,ls),
(223,410,o),
(266,367,o),
(266,310,cs),
(266,0,l),
(296,0,l),
(296,310,ls),
(296,383,o),
(239,440,o),
(166,440,cs),
(30,440,l),
(30,0,l)
);
}
);
width = 326;
}
);
metricRight = "=|";
unicode = 110;
},
{
color = 3;
glyphname = o;
kernLeft = o;
kernRight = o;
lastChange = "2025-05-04 16:19:42 +0000";
layers = (
{
layerId = "71E51144-4680-4E23-982C-DE3E5ABB4D1F";
shapes = (
{
attr = {
strokePos = 1;
};
closed = 1;
nodes = (
(514,-8,ls),
(615,-8,o),
(694,71,o),
(694,172,cs),
(694,268,ls),
(694,369,o),
(615,448,o),
(514,448,cs),
(224,448,ls),
(123,448,o),
(44,369,o),
(44,268,cs),
(44,172,ls),
(44,71,o),
(123,-8,o),
(224,-8,cs)
);
},
{
attr = {
strokePos = 1;
};
closed = 1;
nodes = (
(213,142,o),
(204,151,o),
(204,172,cs),
(204,268,ls),
(204,289,o),
(213,298,o),
(224,298,cs),
(514,298,ls),
(525,298,o),
(534,289,o),
(534,268,cs),
(534,172,ls),
(534,151,o),
(525,142,o),
(514,142,cs),
(224,142,ls)
);
}
);
width = 738;
},
{
layerId = "A1E4B453-6299-48B5-AC61-B31B01EA2EEB";
shapes = (
{
attr = {
strokePos = "1";
};
closed = 1;
nodes = (
(445,-8,ls),
(546,-8,o),
(625,71,o),
(625,172,cs),
(625,248,ls),
(625,349,o),
(541,428,o),
(435,428,cs),
(285,428,ls),
(184,428,o),
(105,349,o),
(105,248,cs),
(105,172,ls),
(105,71,o),
(184,-8,o),
(285,-8,cs)
);
},
{
attr = {
strokePos = "1";
};
closed = 1;
nodes = (
(200,22,o),
(135,87,o),
(135,172,cs),
(135,248,ls),
(135,333,o),
(200,398,o),
(285,398,cs),
(435,398,ls),
(525,398,o),
(595,332,o),
(595,248,cs),
(595,172,ls),
(595,87,o),
(530,22,o),
(445,22,cs),
(285,22,ls)
);
}
);
width = 730;
},
{
layerId = "8544E31D-FA38-4D18-9DEA-5E3E35DDFD01";
shapes = (
{
attr = {
strokePos = 1;
};
closed = 1;
nodes = (
(216,-8,ls),
(312,-8,o),
(366,46,o),
(366,142,cs),
(366,298,ls),
(366,394,o),
(312,448,o),
(216,448,cs),
(190,448,ls),
(94,448,o),
(40,394,o),
(40,298,cs),
(40,142,ls),
(40,46,o),
(94,-8,o),
(190,-8,cs)
);
},
{
attr = {
strokePos = 1;
};
closed = 1;
nodes = (
(180,122,o),
(180,122,o),
(180,142,cs),
(180,298,ls),
(180,318,o),
(180,318,o),
(190,318,cs),
(216,318,ls),
(226,318,o),
(226,318,o),
(226,298,cs),
(226,142,ls),
(226,122,o),
(226,122,o),
(216,122,cs),
(190,122,ls)
);
}
);
width = 406;
},
{
layerId = "3CC93672-F71B-4D5C-A968-72DE9C2CEAD3";
shapes = (
{
attr = {
strokePos = "1";
};
closed = 1;
nodes = (
(175,-8,ls),
(242,-8,o),
(295,49,o),
(295,122,cs),
(295,318,ls),
(295,391,o),
(242,448,o),
(175,448,cs),
(155,448,ls),
(88,448,o),
(35,391,o),
(35,318,cs),
(35,122,ls),
(35,49,o),
(88,-8,o),
(155,-8,cs)
);
},
{
attr = {
strokePos = "1";
};
closed = 1;
nodes = (
(105,22,o),
(65,65,o),
(65,122,cs),
(65,318,ls),
(65,375,o),
(105,418,o),
(155,418,cs),
(175,418,ls),
(225,418,o),
(265,375,o),
(265,318,cs),
(265,122,ls),
(265,65,o),
(225,22,o),
(175,22,cs),
(155,22,ls)
);
}
);
width = 330;
}
);
metricRight = "=|";
unicode = 111;
},
{
glyphname = r;
kernLeft = n;
kernRight = r;
lastChange = "2025-05-04 16:19:42 +0000";
layers = (
{
layerId = "71E51144-4680-4E23-982C-DE3E5ABB4D1F";
shapes = (
{
attr = {
strokePos = "0";
};
closed = 1;
nodes = (
(208,0,l),
(208,260,ls),
(208,281,o),
(217,290,o),
(228,290,cs),
(541,290,l),
(541,440,l),
(228,440,ls),
(127,440,o),
(48,361,o),
(48,260,cs),
(48,0,l)
);
}
);
width = 565;
},
{
layerId = "A1E4B453-6299-48B5-AC61-B31B01EA2EEB";
shapes = (
{
attr = {
strokePos = "0";
};
closed = 1;
nodes = (
(143,0,l),
(143,260,ls),
(143,345,o),
(208,410,o),
(293,410,cs),
(508,410,l),
(508,440,l),
(293,440,ls),
(192,440,o),
(113,361,o),
(113,260,cs),
(113,0,l)
);
}
);
width = 565;
},
{
layerId = "8544E31D-FA38-4D18-9DEA-5E3E35DDFD01";
shapes = (
{
attr = {
strokePos = "0";
};
closed = 1;
nodes = (
(185,0,l),
(185,290,ls),
(185,310,o),
(185,310,o),
(195,310,cs),
(288,310,l),
(288,440,l),
(195,440,ls),
(99,440,o),
(45,386,o),
(45,290,cs),
(45,0,l)
);
}
);
width = 311;
},
{
layerId = "3CC93672-F71B-4D5C-A968-72DE9C2CEAD3";
shapes = (
{
attr = {
strokePos = "0";
};
closed = 1;
nodes = (
(60,0,l),
(60,310,ls),
(60,367,o),
(103,410,o),
(160,410,cs),
(206,410,l),
(206,440,l),
(160,440,ls),
(87,440,o),
(30,383,o),
(30,310,cs),
(30,0,l)
);
}
);
width = 221;
}
);
metricLeft = n;
metricRight = "=n/2";
unicode = 114;
},
{
glyphname = s;
kernLeft = s;
kernRight = s;
lastChange = "2025-05-04 16:22:06 +0000";
layers = (
{
layerId = "71E51144-4680-4E23-982C-DE3E5ABB4D1F";
shapes = (
{
attr = {
identifier = ID0x3050a7720;
strokePos = "1";
};
closed = 1;
nodes = (
(532,0,ls),
(610,0,o),
(672,53,o),
(672,120,cs),
(672,155,ls),
(672,222,o),
(610,275,o),
(532,275,cs),
(346,275,l),
(346,165,l),
(532,165,ls),
(532,165,o),
(532,160,o),
(532,155,cs),
(532,140,ls),
(532,135,o),
(532,140,o),
(532,140,cs),
(42,140,l),
(42,0,l)
);
},
{
attr = {
identifier = ID0x3050a7720;
strokePos = "1";
};
closed = 1;
nodes = (
(346,165,l),
(346,275,l),
(172,275,ls),
(172,275,o),
(172,280,o),
(172,285,cs),
(172,300,ls),
(172,300,o),
(172,300,o),
(172,300,cs),
(631,300,l),
(631,440,l),
(162,440,ls),
(84,440,o),
(22,387,o),
(22,320,cs),
(22,285,ls),
(22,218,o),
(84,165,o),
(162,165,cs)
);
}
);
width = 694;
},
{
layerId = "A1E4B453-6299-48B5-AC61-B31B01EA2EEB";
shapes = (
{
attr = {
identifier = ID0x3050a7720;
strokePos = "1";
};
closed = 1;
nodes = (
(443,0,ls),
(516,0,o),
(573,48,o),
(573,110,cs),
(573,125,ls),
(573,187,o),
(516,235,o),
(443,235,cs),
(312,235,l),
(312,205,l),
(443,205,ls),
(501,205,o),
(543,169,o),
(543,125,cs),
(543,110,ls),
(543,66,o),
(501,30,o),
(443,30,cs),
(69,30,l),
(69,0,l)
);
},
{
attr = {
identifier = ID0x3050a7720;
strokePos = "1";
};
closed = 1;
nodes = (
(312,205,l),
(312,235,l),
(183,235,ls),
(125,235,o),
(83,271,o),
(83,315,cs),
(83,330,ls),
(83,374,o),
(125,410,o),
(183,410,cs),
(540,410,l),
(540,440,l),
(183,440,ls),
(110,440,o),
(53,392,o),
(53,330,cs),
(53,315,ls),
(53,253,o),
(110,205,o),
(183,205,cs)
);
}
);
width = 626;
},
{
layerId = "8544E31D-FA38-4D18-9DEA-5E3E35DDFD01";
shapes = (
{
attr = {
identifier = ID0x3050a7720;
strokePos = "1";
};
closed = 1;
nodes = (
(212,0,ls),
(290,0,o),
(352,53,o),
(352,120,cs),
(352,160,ls),
(352,227,o),
(290,280,o),
(212,280,cs),
(185,280,l),
(185,160,l),
(212,160,ls),
(222,160,o),
(222,160,o),
(222,160,cs),
(222,120,l),
(222,120,o),
(222,120,o),
(212,120,cs),
(30,120,l),
(30,0,l)
);
},
{
attr = {
identifier = ID0x3050a7720;
strokePos = "1";
};
closed = 1;
nodes = (
(185,160,l),
(185,280,l),
(160,280,ls),
(150,280,o),
(150,280,o),
(150,280,c),
(150,320,l),
(150,320,o),
(150,320,o),
(160,320,cs),
(332,320,l),
(332,440,l),
(160,440,ls),
(82,440,o),
(20,387,o),
(20,320,cs),
(20,280,ls),
(20,213,o),
(82,160,o),
(160,160,cs)
);
}
);
width = 372;
},
{
layerId = "3CC93672-F71B-4D5C-A968-72DE9C2CEAD3";
shapes = (
{
attr = {
identifier = ID0x3050a7720;
strokePos = "1";
};
closed = 1;
nodes = (
(176,0,ls),
(236,0,o),
(284,48,o),
(284,110,cs),
(284,125,ls),
(284,187,o),
(236,235,o),
(176,235,cs),
(150,235,l),
(150,205,l),
(176,205,ls),
(220,205,o),
(254,171,o),
(254,125,cs),
(254,110,ls),
(254,64,o),
(220,30,o),
(176,30,cs),
(26,30,l),
(26,0,l)
);
},
{
attr = {
identifier = ID0x3050a7720;
strokePos = "1";
};
closed = 1;
nodes = (
(150,205,l),
(150,235,l),
(126,235,ls),
(82,235,o),
(48,269,o),
(48,315,cs),
(48,330,ls),
(48,376,o),
(82,410,o),
(126,410,cs),
(268,410,l),
(268,440,l),
(126,440,ls),
(66,440,o),
(18,392,o),
(18,330,cs),
(18,315,ls),
(18,253,o),
(66,205,o),
(126,205,cs)
);
}
);
width = 302;
}
);
metricLeft = "=o/2";
metricRight = "=|";
unicode = 115;
},
{
glyphname = t;
kernLeft = l;
kernRight = t;
lastChange = "2025-05-04 16:19:42 +0000";
layers = (
{
layerId = "71E51144-4680-4E23-982C-DE3E5ABB4D1F";
shapes = (
{
attr = {
strokePos = "0";
};
closed = 1;
nodes = (
(491,0,l),
(491,150,l),
(208,150,l),
(208,150,o),
(208,150,o),
(208,160,cs),
(208,640,l),
(48,640,l),
(48,160,ls),
(48,57,o),
(105,0,o),
(208,0,cs)
);
},
{
attr = {
strokePos = 0;
};
closed = 1;
nodes = (
(491,290,l),
(491,440,l),
(61,440,l),
(61,290,l)
);
}
);
width = 515;
},
{
layerId = "A1E4B453-6299-48B5-AC61-B31B01EA2EEB";
shapes = (
{
attr = {
strokePos = "0";
};
closed = 1;
nodes = (
(468,0,l),
(468,30,l),
(273,30,ls),
(187,30,o),
(143,74,o),
(143,160,cs),
(143,640,l),
(113,640,l),
(113,160,ls),
(113,57,o),
(170,0,o),
(273,0,cs)
);
},
{
attr = {
strokePos = "0";
};
closed = 1;
nodes = (
(468,410,l),
(468,440,l),
(124,440,l),
(124,410,l)
);
}
);
width = 525;
},
{
layerId = "8544E31D-FA38-4D18-9DEA-5E3E35DDFD01";
shapes = (
{
attr = {
strokePos = "0";
};
closed = 1;
nodes = (
(259,0,l),
(259,130,l),
(195,130,ls),
(185,130,o),
(185,130,o),
(185,150,cs),
(185,640,l),
(45,640,l),
(45,150,ls),
(45,54,o),
(99,0,o),
(195,0,cs)
);
},
{
attr = {
strokePos = 0;
};
closed = 1;
nodes = (
(259,310,l),
(259,440,l),
(53,440,l),
(53,310,l)
);
}
);
width = 282;
},
{
layerId = "3CC93672-F71B-4D5C-A968-72DE9C2CEAD3";
shapes = (
{
attr = {
strokePos = "0";
};
closed = 1;
nodes = (
(193,0,l),
(193,30,l),
(160,30,ls),
(94,30,o),
(60,64,o),
(60,130,cs),
(60,640,l),
(30,640,l),
(30,130,ls),
(30,47,o),
(77,0,o),
(160,0,cs)
);
},
{
attr = {
strokePos = "0";
};
closed = 1;
nodes = (
(193,410,l),
(193,440,l),
(36,440,l),
(36,410,l)
);
}
);
width = 208;
}
);
metricLeft = n;
metricRight = "=n/2";
unicode = 116;
},
{
glyphname = v;
kernLeft = v;
kernRight = v;
lastChange = "2025-05-04 15:40:55 +0000";
layers = (
{
layerId = "71E51144-4680-4E23-982C-DE3E5ABB4D1F";
shapes = (
{
attr = {
identifier = ID0x303e09a70;
};
closed = 1;
nodes = (
(453,0,l),
(712,440,l),
(538,440,l),
(367,150,l),
(363,150,l),
(192,440,l),
(18,440,l),
(277,0,l)
);
}
);
width = 730;
},
{
layerId = "A1E4B453-6299-48B5-AC61-B31B01EA2EEB";
shapes = (
{
attr = {
identifier = ID0x303e09a70;
};
closed = 1;
nodes = (
(306,0,l),
(548,440,l),
(514,440,l),
(288,30,l),
(280,30,l),
(54,440,l),
(20,440,l),
(262,0,l)
);
}
);
width = 568;
},
{
layerId = "8544E31D-FA38-4D18-9DEA-5E3E35DDFD01";
shapes = (
{
attr = {
identifier = ID0x303e09a70;
};
closed = 1;
nodes = (
(284,0,l),
(341,440,l),
(209,440,l),
(170,130,l),
(179,130,l),
(140,440,l),
(8,440,l),
(65,0,l)
);
}
);
width = 349;
},
{
layerId = "3CC93672-F71B-4D5C-A968-72DE9C2CEAD3";
shapes = (
{
attr = {
identifier = ID0x303e09a70;
};
closed = 1;
nodes = (
(193,0,l),
(279,440,l),
(249,440,l),
(169,30,l),
(125,30,l),
(45,440,l),
(15,440,l),
(101,0,l)
);
}
);
width = 294;
}
);
metricLeft = x;
metricRight = "=|";
unicode = 118;
},
{
glyphname = w;
kernLeft = w;
kernRight = w;
lastChange = "2025-05-04 15:40:55 +0000";
layers = (
{
layerId = "71E51144-4680-4E23-982C-DE3E5ABB4D1F";
shapes = (
{
attr = {
identifier = ID0x303e09a70;
};
closed = 1;
nodes = (
(662,0,l),
(825,440,l),
(665,440,l),
(558,150,l),
(604,150,l),
(497,440,l),
(337,440,l),
(500,0,l)
);
},
{
attr = {
identifier = ID0x303e09a70;
};
closed = 1;
nodes = (
(342,0,l),
(506,440,l),
(346,440,l),
(238,150,l),
(285,150,l),
(178,440,l),
(18,440,l),
(181,0,l)
);
}
);
width = 843;
},
{
layerId = "A1E4B453-6299-48B5-AC61-B31B01EA2EEB";
shapes = (
{
attr = {
identifier = ID0x303e09a70;
};
closed = 1;
nodes = (
(527,0,l),
(670,440,l),
(638,440,l),
(505,30,l),
(492,30,l),
(357,440,l),
(325,440,l),
(470,0,l)
);
},
{
attr = {
identifier = ID0x303e09a70;
};
closed = 1;
nodes = (
(220,0,l),
(365,440,l),
(333,440,l),
(198,30,l),
(186,30,l),
(52,440,l),
(20,440,l),
(164,0,l)
);
}
);
width = 690;
},
{
layerId = "8544E31D-FA38-4D18-9DEA-5E3E35DDFD01";
shapes = (
{
attr = {
identifier = ID0x303e09a70;
};
closed = 1;
nodes = (
(484,0,l),
(541,440,l),
(409,440,l),
(370,130,l),
(384,130,l),
(331,373,l),
(197,373,l),
(280,0,l)
);
},
{
attr = {
identifier = ID0x303e09a70;
};
closed = 1;
nodes = (
(269,0,l),
(352,373,l),
(218,373,l),
(165,130,l),
(179,130,l),
(140,440,l),
(8,440,l),
(65,0,l)
);
}
);
width = 549;
},
{
layerId = "3CC93672-F71B-4D5C-A968-72DE9C2CEAD3";
shapes = (
{
attr = {
identifier = ID0x303e09a70;
};
closed = 1;
nodes = (
(373,0,l),
(449,440,l),
(419,440,l),
(347,30,l),
(314,30,l),
(242,440,l),
(212,440,l),
(288,0,l)
);
},
{
attr = {
identifier = ID0x303e09a70;
};
closed = 1;
nodes = (
(175,0,l),
(251,440,l),
(221,440,l),
(149,30,l),
(115,30,l),
(45,440,l),
(15,440,l),
(89,0,l)
);
}
);
width = 464;
}
);
metricLeft = x;
metricRight = "=|";
unicode = 119;
},
{
color = 3;
glyphname = x;
kernLeft = u;
kernRight = l;
lastChange = "2025-05-04 15:40:55 +0000";
layers = (
{
layerId = "71E51144-4680-4E23-982C-DE3E5ABB4D1F";
shapes = (
{
closed = 1;
nodes = (
(652,0,l),
(538,228,l),
(653,440,l),
(483,440,l),
(370,232,l),
(484,0,l)
);
},
{
closed = 1;
nodes = (
(187,0,l),
(300,232,l),
(188,440,l),
(18,440,l),
(132,228,l),
(19,0,l)
);
},
{
closed = 1;
nodes = (
(451,155,l),
(451,305,l),
(219,305,l),
(219,155,l)
);
}
);
width = 671;
},
{
layerId = "A1E4B453-6299-48B5-AC61-B31B01EA2EEB";
shapes = (
{
closed = 1;
nodes = (
(566,0,l),
(435,220,l),
(566,440,l),
(532,440,l),
(401,220,l),
(532,0,l)
);
},
{
closed = 1;
nodes = (
(54,0,l),
(185,220,l),
(54,440,l),
(20,440,l),
(151,220,l),
(20,0,l)
);
},
{
closed = 1;
nodes = (
(413,205,l),
(413,235,l),
(173,235,l),
(173,205,l)
);
}
);
width = 586;
},
{
layerId = "8544E31D-FA38-4D18-9DEA-5E3E35DDFD01";
shapes = (
{
closed = 1;
nodes = (
(393,0,l),
(318,231,l),
(383,440,l),
(247,440,l),
(182,229,l),
(257,0,l)
);
},
{
closed = 1;
nodes = (
(144,0,l),
(219,229,l),
(154,440,l),
(18,440,l),
(83,231,l),
(8,0,l)
);
},
{
closed = 1;
nodes = (
(251,166,l),
(251,296,l),
(155,296,l),
(155,166,l)
);
}
);
width = 401;
},
{
layerId = "3CC93672-F71B-4D5C-A968-72DE9C2CEAD3";
shapes = (
{
closed = 1;
nodes = (
(263,0,l),
(202,230,l),
(254,440,l),
(224,440,l),
(172,230,l),
(231,0,l)
);
},
{
closed = 1;
nodes = (
(47,0,l),
(106,230,l),
(54,440,l),
(24,440,l),
(76,230,l),
(15,0,l)
);
},
{
closed = 1;
nodes = (
(187,216,l),
(187,246,l),
(95,246,l),
(95,216,l)
);
}
);
width = 278;
}
);
metricRight = "=|";
unicode = 120;
},
{
glyphname = y;
lastChange = "2025-05-04 16:28:07 +0000";
layers = (
{
layerId = "71E51144-4680-4E23-982C-DE3E5ABB4D1F";
shapes = (
{
attr = {
strokePos = "0";
};
closed = 1;
nodes = (
(513,-200,ls),
(616,-200,o),
(673,-143,o),
(673,-40,cs),
(673,440,l),
(513,440,l),
(513,-50,ls),
(513,-50,o),
(513,-50,o),
(513,-50,cs),
(90,-50,l),
(90,-200,l)
);
},
{
attr = {
identifier = ID0x313c96120;
strokePos = "1";
};
closed = 1;
nodes = (
(660,0,l),
(660,150,l),
(228,150,ls),
(217,150,o),
(208,159,o),
(208,180,cs),
(208,440,l),
(48,440,l),
(48,180,ls),
(48,79,o),
(127,0,o),
(228,0,cs)
);
}
);
width = 721;
},
{
layerId = "A1E4B453-6299-48B5-AC61-B31B01EA2EEB";
shapes = (
{
attr = {
strokePos = "0";
};
closed = 1;
nodes = (
(453,-200,ls),
(556,-200,o),
(613,-143,o),
(613,-40,cs),
(613,440,l),
(583,440,l),
(583,-40,ls),
(583,-126,o),
(539,-170,o),
(453,-170,cs),
(136,-170,l),
(136,-200,l)
);
},
{
attr = {
identifier = ID0x313c96120;
strokePos = "1";
};
closed = 1;
nodes = (
(602,0,l),
(602,30,l),
(293,30,ls),
(208,30,o),
(143,95,o),
(143,180,cs),
(143,440,l),
(113,440,l),
(113,180,ls),
(113,79,o),
(192,0,o),
(293,0,cs)
);
}
);
width = 726;
},
{
layerId = "8544E31D-FA38-4D18-9DEA-5E3E35DDFD01";
shapes = (
{
attr = {
strokePos = "0";
};
closed = 1;
nodes = (
(235,-190,ls),
(318,-190,o),
(365,-143,o),
(365,-60,cs),
(365,440,l),
(225,440,l),
(225,-60,ls),
(225,-60,o),
(225,-60,o),
(225,-60,cs),
(72,-60,l),
(72,-190,l)
);
},
{
attr = {
identifier = ID0x313c96120;
strokePos = "1";
};
closed = 1;
nodes = (
(357,0,l),
(357,130,l),
(195,130,ls),
(185,130,o),
(185,130,o),
(185,150,cs),
(185,440,l),
(45,440,l),
(45,150,ls),
(45,54,o),
(99,0,o),
(195,0,cs)
);
}
);
width = 410;
},
{
layerId = "3CC93672-F71B-4D5C-A968-72DE9C2CEAD3";
shapes = (
{
attr = {
strokePos = "0";
};
closed = 1;
nodes = (
(176,-200,ls),
(238,-200,o),
(286,-152,o),
(286,-90,cs),
(286,440,l),
(256,440,l),
(256,-90,ls),
(256,-136,o),
(222,-170,o),
(176,-170,cs),
(45,-170,l),
(45,-200,l)
);
},
{
attr = {
identifier = ID0x313c96120;
strokePos = "1";
};
closed = 1;
nodes = (
(280,0,l),
(280,30,l),
(160,30,ls),
(103,30,o),
(60,73,o),
(60,130,cs),
(60,440,l),
(30,440,l),
(30,130,ls),
(30,57,o),
(87,0,o),
(160,0,cs)
);
}
);
width = 316;
}
);
metricLeft = n;
metricRight = "=|";
unicode = 121;
},
{
glyphname = z;
kernLeft = z;
kernRight = z;
lastChange = "2025-05-04 15:40:55 +0000";
layers = (
{
layerId = "71E51144-4680-4E23-982C-DE3E5ABB4D1F";
shapes = (
{
closed = 1;
nodes = (
(579,0,l),
(579,150,l),
(165,150,l),
(165,61,l),
(580,311,l),
(580,460,l),
(24,460,l),
(24,310,l),
(440,310,l),
(440,399,l),
(25,149,l),
(25,0,l)
);
}
);
width = 604;
},
{
layerId = "A1E4B453-6299-48B5-AC61-B31B01EA2EEB";
shapes = (
{
closed = 1;
nodes = (
(572,0,l),
(572,30,l),
(87,30,l),
(87,50,l),
(572,373,l),
(572,440,l),
(57,440,l),
(57,410,l),
(542,410,l),
(542,389,l),
(57,66,l),
(57,0,l)
);
}
);
width = 629;
},
{
layerId = "8544E31D-FA38-4D18-9DEA-5E3E35DDFD01";
shapes = (
{
closed = 1;
nodes = (
(282,0,l),
(282,130,l),
(143,130,l),
(143,77,l),
(279,327,l),
(279,440,l),
(25,440,l),
(25,310,l),
(159,310,l),
(159,363,l),
(23,113,l),
(23,0,l)
);
}
);
width = 305;
},
{
layerId = "3CC93672-F71B-4D5C-A968-72DE9C2CEAD3";
shapes = (
{
closed = 1;
nodes = (
(226,0,l),
(226,30,l),
(45,30,l),
(45,35,l),
(227,397,l),
(227,440,l),
(20,440,l),
(20,410,l),
(197,410,l),
(197,405,l),
(15,43,l),
(15,0,l)
);
}
);
width = 242;
}
);
metricLeft = "=n/2";
metricRight = "=|";
unicode = 122;
},
{
glyphname = "hamza-ar";
lastChange = "2025-05-04 15:58:04 +0000";
layers = (
{
anchors = (
{
name = bottom;
pos = (312,0);
},
{
name = top;
pos = (312,330);
}
);
layerId = "71E51144-4680-4E23-982C-DE3E5ABB4D1F";
shapes = (
{
attr = {
strokePos = "1";
};
closed = 1;
nodes = (
(246,10,l),
(246,174,ls),
(246,194,o),
(260,208,o),
(280,208,cs),
(502,208,l),
(502,348,l),
(280,348,ls),
(183,348,o),
(106,271,o),
(106,174,cs),
(106,10,l)
);
},
{
attr = {
identifier = ID0x12cbfe300;
strokePos = 1;
};
closed = 1;
nodes = (
(532,0,l),
(532,140,l),
(30,140,l),
(30,0,l)
);
}
);
width = 562;
},
{
anchors = (
{
name = bottom;
pos = (312,0);
},
{
name = top;
pos = (312,336);
}
);
layerId = "A1E4B453-6299-48B5-AC61-B31B01EA2EEB";
shapes = (
{
attr = {
strokePos = "1";
};
closed = 1;
nodes = (
(136,0,l),
(136,140,ls),
(136,221,o),
(199,284,o),
(280,284,cs),
(502,284,l),
(502,314,l),
(280,314,ls),
(183,314,o),
(106,237,o),
(106,140,cs),
(106,0,l)
);
},
{
attr = {
identifier = ID0x12cbfe300;
strokePos = 1;
};
closed = 1;
nodes = (
(532,0,l),
(532,30,l),
(30,30,l),
(30,0,l)
);
}
);
width = 562;
},
{
anchors = (
{
name = bottom;
pos = (177,0);
},
{
name = top;
pos = (177,348);
}
);
layerId = "8544E31D-FA38-4D18-9DEA-5E3E35DDFD01";
shapes = (
{
attr = {
strokePos = "1";
};
closed = 1;
nodes = (
(202,11,l),
(202,208,ls),
(202,218,o),
(202,218,o),
(212,218,cs),
(274,218,l),
(274,348,l),
(212,348,ls),
(134,348,o),
(72,286,o),
(72,208,cs),
(72,11,l)
);
},
{
attr = {
identifier = ID0x12cbfe300;
strokePos = 1;
};
closed = 1;
nodes = (
(294,0,l),
(294,130,l),
(20,130,l),
(20,0,l)
);
}
);
width = 314;
},
{
anchors = (
{
name = bottom;
pos = (177,0);
},
{
name = top;
pos = (177,330);
}
);
layerId = "3CC93672-F71B-4D5C-A968-72DE9C2CEAD3";
shapes = (
{
attr = {
strokePos = "1";
};
closed = 1;
nodes = (
(102,0,l),
(102,187,ls),
(102,249,o),
(150,297,o),
(212,297,cs),
(274,297,l),
(274,327,l),
(212,327,ls),
(134,327,o),
(72,265,o),
(72,187,cs),
(72,0,l)
);
},
{
attr = {
identifier = ID0x12cbfe300;
strokePos = 1;
};
closed = 1;
nodes = (
(294,0,l),
(294,30,l),
(20,30,l),
(20,0,l)
);
}
);
width = 314;
}
);
unicode = 1569;
},
{
color = 3;
glyphname = "alef-ar";
lastChange = "2025-05-05 13:25:35 +0000";
layers = (
{
anchors = (
{
name = bottom;
pos = (189,0);
},
{
name = top;
pos = (180,640);
}
);
layerId = "71E51144-4680-4E23-982C-DE3E5ABB4D1F";
shapes = (
{
closed = 1;
nodes = (
(250,0,l),
(250,640,l),
(80,640,l),
(80,0,l)
);
}
);
width = 330;
},
{
anchors = (
{
name = bottom;
pos = (115,0);
},
{
name = top;
pos = (120,640);
}
);
layerId = "A1E4B453-6299-48B5-AC61-B31B01EA2EEB";
shapes = (
{
closed = 1;
nodes = (
(120,0,l),
(120,640,l),
(90,640,l),
(90,0,l)
);
}
);
width = 210;
},
{
anchors = (
{
name = bottom;
pos = (115,0);
},
{
name = top;
pos = (115,640);
}
);
layerId = "8544E31D-FA38-4D18-9DEA-5E3E35DDFD01";
shapes = (
{
closed = 1;
nodes = (
(190,0,l),
(190,640,l),
(40,640,l),
(40,0,l)
);
}
);
width = 230;
},
{
anchors = (
{
name = bottom;
pos = (60,0);
},
{
name = top;
pos = (60,640);
}
);
layerId = "3CC93672-F71B-4D5C-A968-72DE9C2CEAD3";
shapes = (
{
closed = 1;
nodes = (
(75,0,l),
(75,640,l),
(45,640,l),
(45,0,l)
);
}
);
width = 120;
}
);
unicode = 1575;
},
{
glyphname = "alef-ar.fina";
lastChange = "2025-05-05 13:24:51 +0000";
layers = (
{
anchors = (
{
name = bottom;
pos = (192,0);
},
{
name = top;
pos = (182,640);
}
);
layerId = "71E51144-4680-4E23-982C-DE3E5ABB4D1F";
shapes = (
{
attr = {
strokePos = "0";
};
closed = 1;
nodes = (
(340,0,l),
(340,170,l),
(250,170,ls),
(250,170,o),
(250,170,o),
(250,170,cs),
(250,640,l),
(80,640,l),
(80,80,ls),
(80,35,o),
(115,0,o),
(160,0,cs)
);
}
);
width = 340;
},
{
anchors = (
{
name = bottom;
pos = (140,0);
},
{
name = top;
pos = (120,640);
}
);
layerId = "A1E4B453-6299-48B5-AC61-B31B01EA2EEB";
shapes = (
{
attr = {
strokePos = "0";
};
closed = 1;
nodes = (
(230,0,l),
(230,30,l),
(170,30,ls),
(136,30,o),
(120,46,o),
(120,80,cs),
(120,640,l),
(90,640,l),
(90,80,ls),
(90,29,o),
(119,0,o),
(170,0,cs)
);
}
);
width = 230;
},
{
anchors = (
{
name = bottom;
pos = (127,0);
},
{
name = top;
pos = (116,640);
}
);
layerId = "8544E31D-FA38-4D18-9DEA-5E3E35DDFD01";
shapes = (
{
attr = {
strokePos = "0";
};
closed = 1;
nodes = (
(230,0,l),
(230,150,l),
(190,150,ls),
(190,150,o),
(190,150,o),
(190,150,cs),
(190,640,l),
(40,640,l),
(40,60,ls),
(40,26,o),
(66,0,o),
(100,0,cs)
);
}
);
width = 230;
},
{
anchors = (
{
name = bottom;
pos = (61,0);
},
{
name = top;
pos = (61,640);
}
);
layerId = "3CC93672-F71B-4D5C-A968-72DE9C2CEAD3";
shapes = (
{
attr = {
strokePos = "0";
};
closed = 1;
nodes = (
(130,0,l),
(130,30,l),
(105,30,ls),
(84,30,o),
(75,39,o),
(75,60,cs),
(75,640,l),
(45,640,l),
(45,60,ls),
(45,22,o),
(67,0,o),
(105,0,cs)
);
}
);
width = 130;
}
);
metricLeft = "alef-ar";
metricRight = "kashida-ar";
},
{
glyphname = "behDotless-ar";
lastChange = "2025-05-05 13:20:54 +0000";
layers = (
{
anchors = (
{
name = bottom;
pos = (547,0);
},
{
name = ring;
pos = (547,0);
},
{
name = top;
pos = (547,440);
}
);
layerId = "71E51144-4680-4E23-982C-DE3E5ABB4D1F";
shapes = (
{
attr = {
strokePos = "0";
};
closed = 1;
nodes = (
(918,0,ls),
(963,0,o),
(998,35,o),
(998,80,cs),
(998,390,l),
(828,390,l),
(828,170,ls),
(828,170,o),
(828,170,o),
(828,170,cs),
(250,170,ls),
(250,170,o),
(250,170,o),
(250,170,cs),
(250,390,l),
(80,390,l),
(80,80,ls),
(80,35,o),
(115,0,o),
(160,0,cs)
);
}
);
width = 1078;
},
{
anchors = (
{
name = bottom;
pos = (505,0);
},
{
name = ring;
pos = (507,0);
},
{
name = top;
pos = (505,400);
}
);
layerId = "A1E4B453-6299-48B5-AC61-B31B01EA2EEB";
shapes = (
{
attr = {
strokePos = "0";
};
closed = 1;
nodes = (
(840,0,ls),
(891,0,o),
(920,29,o),
(920,80,cs),
(920,380,l),
(890,380,l),
(890,80,ls),
(890,46,o),
(874,30,o),
(840,30,cs),
(170,30,ls),
(136,30,o),
(120,46,o),
(120,80,cs),
(120,380,l),
(90,380,l),
(90,80,ls),
(90,29,o),
(119,0,o),
(170,0,cs)
);
}
);
width = 1010;
},
{
anchors = (
{
name = bottom;
pos = (270,0);
},
{
name = ring;
pos = (270,0);
},
{
name = top;
pos = (270,390);
}
);
layerId = "8544E31D-FA38-4D18-9DEA-5E3E35DDFD01";
shapes = (
{
attr = {
strokePos = "0";
};
closed = 1;
nodes = (
(440,0,ls),
(474,0,o),
(500,26,o),
(500,60,cs),
(500,390,l),
(350,390,l),
(350,150,ls),
(350,150,o),
(350,150,o),
(350,150,cs),
(190,150,ls),
(190,150,o),
(190,150,o),
(190,150,cs),
(190,390,l),
(40,390,l),
(40,60,ls),
(40,26,o),
(66,0,o),
(100,0,cs)
);
}
);
width = 540;
},
{
anchors = (
{
name = bottom;
pos = (242,0);
},
{
name = ring;
pos = (244,0);
},
{
name = top;
pos = (242,400);
}
);
layerId = "3CC93672-F71B-4D5C-A968-72DE9C2CEAD3";
shapes = (
{
attr = {
strokePos = "0";
};
closed = 1;
nodes = (
(389,0,ls),
(427,0,o),
(449,22,o),
(449,60,cs),
(449,380,l),
(419,380,l),
(419,60,ls),
(419,39,o),
(410,30,o),
(389,30,cs),
(105,30,ls),
(84,30,o),
(75,39,o),
(75,60,cs),
(75,380,l),
(45,380,l),
(45,60,ls),
(45,22,o),
(67,0,o),
(105,0,cs)
);
}
);
width = 494;
}
);
metricLeft = "alef-ar";
metricRight = "alef-ar";
unicode = 1646;
},
{
glyphname = "behDotless-ar.fina";
lastChange = "2025-05-04 15:40:55 +0000";
layers = (
{
layerId = "71E51144-4680-4E23-982C-DE3E5ABB4D1F";
shapes = (
{
attr = {
strokePos = 1;
};
closed = 1;
nodes = (
(1088,0,l),
(1088,170,l),
(908,170,l),
(861,170,o),
(823,132,o),
(823,85,c),
(823,38,o),
(861,0,o),
(908,0,c)
);
},
{
ref = "behDotless-ar";
}
);
width = 1088;
},
{
layerId = "A1E4B453-6299-48B5-AC61-B31B01EA2EEB";
shapes = (
{
attr = {
strokePos = 1;
};
closed = 1;
nodes = (
(1030,0,l),
(1030,30,l),
(840,30,l),
(832,30,o),
(825,23,o),
(825,15,c),
(825,7,o),
(832,0,o),
(840,0,c)
);
},
{
ref = "behDotless-ar";
}
);
width = 1030;
},
{
layerId = "8544E31D-FA38-4D18-9DEA-5E3E35DDFD01";
shapes = (
{
attr = {
strokePos = 1;
};
closed = 1;
nodes = (
(540,0,l),
(540,150,l),
(440,150,l),
(399,150,o),
(365,116,o),
(365,75,c),
(365,34,o),
(399,0,o),
(440,0,c)
);
},
{
ref = "behDotless-ar";
}
);
width = 540;
},
{
layerId = "3CC93672-F71B-4D5C-A968-72DE9C2CEAD3";
shapes = (
{
attr = {
strokePos = 1;
};
closed = 1;
nodes = (
(504,0,l),
(504,30,l),
(399,30,l),
(391,30,o),
(384,23,o),
(384,15,c),
(384,7,o),
(391,0,o),
(399,0,c)
);
},
{
ref = "behDotless-ar";
}
);
width = 504;
}
);
metricLeft = "alef-ar";
metricRight = "kashida-ar";
},
{
glyphname = "behDotless-ar.medi";
lastChange = "2025-05-05 13:20:05 +0000";
layers = (
{
anchors = (
{
name = bottom;
pos = (176,0);
},
{
name = ring;
pos = (163,0);
},
{
name = top;
pos = (176,390);
}
);
layerId = "71E51144-4680-4E23-982C-DE3E5ABB4D1F";
shapes = (
{
attr = {
identifier = ID0x13f441ad0;
strokePos = "0";
};
closed = 1;
nodes = (
(260,10,l),
(260,390,l),
(90,390,l),
(90,10,l)
);
},
{
attr = {
strokePos = 1;
};
closed = 1;
nodes = (
(350,0,l),
(350,170,l),
(0,170,l),
(-48,170,o),
(-85,132,o),
(-85,85,c),
(-85,38,o),
(-48,0,o),
(0,0,c)
);
}
);
width = 350;
},
{
anchors = (
{
name = bottom;
pos = (44,0);
},
{
name = ring;
pos = (63,0);
},
{
name = top;
pos = (123,400);
}
);
layerId = "A1E4B453-6299-48B5-AC61-B31B01EA2EEB";
shapes = (
{
attr = {
identifier = ID0x13f455360;
strokePos = "0";
};
closed = 1;
nodes = (
(140,10,l),
(140,380,l),
(110,380,l),
(110,10,l)
);
},
{
attr = {
strokePos = 1;
};
closed = 1;
nodes = (
(250,0,l),
(250,30,l),
(0,30,l),
(-8,30,o),
(-15,23,o),
(-15,15,c),
(-15,7,o),
(-8,0,o),
(0,0,c)
);
}
);
width = 250;
},
{
anchors = (
{
name = bottom;
pos = (119,0);
},
{
name = ring;
pos = (119,0);
},
{
name = top;
pos = (119,390);
}
);
layerId = "8544E31D-FA38-4D18-9DEA-5E3E35DDFD01";
shapes = (
{
attr = {
identifier = ID0x13f4456f0;
strokePos = "0";
};
closed = 1;
nodes = (
(190,10,l),
(190,390,l),
(40,390,l),
(40,10,l)
);
},
{
attr = {
strokePos = 1;
};
closed = 1;
nodes = (
(230,0,l),
(230,150,l),
(0,150,l),
(-42,150,o),
(-75,116,o),
(-75,75,c),
(-75,34,o),
(-42,0,o),
(0,0,c)
);
}
);
width = 230;
},
{
anchors = (
{
name = bottom;
pos = (71,0);
},
{
name = ring;
pos = (71,0);
},
{
name = top;
pos = (71,400);
}
);
layerId = "3CC93672-F71B-4D5C-A968-72DE9C2CEAD3";
shapes = (
{
attr = {
identifier = ID0x13f4244d0;
strokePos = "0";
};
closed = 1;
nodes = (
(85,10,l),
(85,380,l),
(55,380,l),
(55,10,l)
);
},
{
attr = {
strokePos = 1;
};
closed = 1;
nodes = (
(140,0,l),
(140,30,l),
(0,30,l),
(-8,30,o),
(-15,23,o),
(-15,15,c),
(-15,7,o),
(-8,0,o),
(0,0,c)
);
}
);
width = 140;
}
);
metricLeft = "kashida-ar";
metricRight = "kashida-ar";
},
{
glyphname = "behDotless-ar.init";
lastChange = "2025-05-05 13:20:45 +0000";
layers = (
{
anchors = (
{
name = bottom;
pos = (153,0);
},
{
name = ring;
pos = (163,0);
},
{
name = top;
pos = (160,390);
}
);
layerId = "71E51144-4680-4E23-982C-DE3E5ABB4D1F";
shapes = (
{
attr = {
strokePos = "0";
};
closed = 1;
nodes = (
(180,0,ls),
(225,0,o),
(260,35,o),
(260,80,cs),
(260,390,l),
(90,390,l),
(90,170,ls),
(90,170,o),
(90,170,o),
(90,170,cs),
(0,170,ls),
(-48,170,o),
(-85,132,o),
(-85,85,cs),
(-85,38,o),
(-48,0,o),
(0,0,cs)
);
}
);
width = 340;
},
{
anchors = (
{
name = bottom;
pos = (44,0);
},
{
name = ring;
pos = (44,0);
},
{
name = top;
pos = (123,400);
}
);
layerId = "A1E4B453-6299-48B5-AC61-B31B01EA2EEB";
shapes = (
{
attr = {
strokePos = "0";
};
closed = 1;
nodes = (
(60,0,ls),
(111,0,o),
(140,29,o),
(140,80,cs),
(140,380,l),
(110,380,l),
(110,80,ls),
(110,46,o),
(94,30,o),
(60,30,cs),
(0,30,ls),
(-8,30,o),
(-15,23,o),
(-15,15,cs),
(-15,7,o),
(-8,0,o),
(0,0,cs)
);
}
);
width = 230;
},
{
anchors = (
{
name = bottom;
pos = (128,0);
},
{
name = ring;
pos = (128,0);
},
{
name = top;
pos = (119,390);
}
);
layerId = "8544E31D-FA38-4D18-9DEA-5E3E35DDFD01";
shapes = (
{
attr = {
strokePos = "0";
};
closed = 1;
nodes = (
(130,0,ls),
(164,0,o),
(190,26,o),
(190,60,cs),
(190,390,l),
(40,390,l),
(40,150,ls),
(40,150,o),
(40,150,o),
(40,150,cs),
(0,150,ls),
(-42,150,o),
(-75,116,o),
(-75,75,cs),
(-75,34,o),
(-42,0,o),
(0,0,cs)
);
}
);
width = 230;
},
{
anchors = (
{
name = bottom;
pos = (23,0);
},
{
name = ring;
pos = (23,0);
},
{
name = top;
pos = (63,400);
}
);
layerId = "3CC93672-F71B-4D5C-A968-72DE9C2CEAD3";
shapes = (
{
attr = {
strokePos = "0";
};
closed = 1;
nodes = (
(25,0,ls),
(63,0,o),
(85,22,o),
(85,60,cs),
(85,380,l),
(55,380,l),
(55,60,ls),
(55,39,o),
(46,30,o),
(25,30,cs),
(0,30,ls),
(-8,30,o),
(-15,23,o),
(-15,15,cs),
(-15,7,o),
(-8,0,o),
(0,0,cs)
);
}
);
width = 130;
}
);
metricLeft = "kashida-ar";
metricRight = "alef-ar";
},
{
glyphname = "alefMaksura-ar.medi";
lastChange = "2025-05-05 12:36:43 +0000";
layers = (
{
anchors = (
{
name = bottom;
pos = (176,0);
},
{
name = ring;
pos = (163,0);
},
{
name = top;
pos = (176,390);
}
);
layerId = "71E51144-4680-4E23-982C-DE3E5ABB4D1F";
shapes = (
{
attr = {
identifier = ID0x13f441ad0;
strokePos = "0";
};
closed = 1;
nodes = (
(260,10,l),
(260,390,l),
(90,390,l),
(90,10,l)
);
},
{
attr = {
strokePos = 1;
};
closed = 1;
nodes = (
(350,0,l),
(350,170,l),
(0,170,l),
(-48,170,o),
(-85,132,o),
(-85,85,c),
(-85,38,o),
(-48,0,o),
(0,0,c)
);
}
);
width = 350;
},
{
anchors = (
{
name = bottom;
pos = (44,0);
},
{
name = ring;
pos = (63,0);
},
{
name = top;
pos = (123,400);
}
);
layerId = "A1E4B453-6299-48B5-AC61-B31B01EA2EEB";
shapes = (
{
attr = {
identifier = ID0x13f455360;
strokePos = "0";
};
closed = 1;
nodes = (
(140,10,l),
(140,380,l),
(110,380,l),
(110,10,l)
);
},
{
attr = {
strokePos = 1;
};
closed = 1;
nodes = (
(250,0,l),
(250,30,l),
(0,30,l),
(-8,30,o),
(-15,23,o),
(-15,15,c),
(-15,7,o),
(-8,0,o),
(0,0,c)
);
}
);
width = 250;
},
{
anchors = (
{
name = bottom;
pos = (119,0);
},
{
name = ring;
pos = (119,0);
},
{
name = top;
pos = (119,390);
}
);
layerId = "8544E31D-FA38-4D18-9DEA-5E3E35DDFD01";
shapes = (
{
attr = {
identifier = ID0x13f4456f0;
strokePos = "0";
};
closed = 1;
nodes = (
(190,10,l),
(190,390,l),
(40,390,l),
(40,10,l)
);
},
{
attr = {
strokePos = 1;
};
closed = 1;
nodes = (
(230,0,l),
(230,150,l),
(0,150,l),
(-42,150,o),
(-75,116,o),
(-75,75,c),
(-75,34,o),
(-42,0,o),
(0,0,c)
);
}
);
width = 230;
},
{
anchors = (
{
name = bottom;
pos = (71,0);
},
{
name = ring;
pos = (71,0);
},
{
name = top;
pos = (71,400);
}
);
layerId = "3CC93672-F71B-4D5C-A968-72DE9C2CEAD3";
shapes = (
{
attr = {
identifier = ID0x13f4244d0;
strokePos = "0";
};
closed = 1;
nodes = (
(85,10,l),
(85,380,l),
(55,380,l),
(55,10,l)
);
},
{
attr = {
strokePos = 1;
};
closed = 1;
nodes = (
(140,0,l),
(140,30,l),
(0,30,l),
(-8,30,o),
(-15,23,o),
(-15,15,c),
(-15,7,o),
(-8,0,o),
(0,0,c)
);
}
);
width = 140;
}
);
metricLeft = "kashida-ar";
metricRight = "kashida-ar";
},
{
glyphname = "alefMaksura-ar.init";
lastChange = "2025-05-05 12:36:51 +0000";
layers = (
{
anchors = (
{
name = bottom;
pos = (163,0);
},
{
name = ring;
pos = (163,0);
},
{
name = top;
pos = (160,390);
}
);
layerId = "71E51144-4680-4E23-982C-DE3E5ABB4D1F";
shapes = (
{
attr = {
strokePos = "0";
};
closed = 1;
nodes = (
(180,0,ls),
(225,0,o),
(260,35,o),
(260,80,cs),
(260,390,l),
(90,390,l),
(90,170,ls),
(90,170,o),
(90,170,o),
(90,170,cs),
(0,170,ls),
(-48,170,o),
(-85,132,o),
(-85,85,cs),
(-85,38,o),
(-48,0,o),
(0,0,cs)
);
}
);
width = 340;
},
{
anchors = (
{
name = bottom;
pos = (44,0);
},
{
name = ring;
pos = (44,0);
},
{
name = top;
pos = (123,400);
}
);
layerId = "A1E4B453-6299-48B5-AC61-B31B01EA2EEB";
shapes = (
{
attr = {
strokePos = "0";
};
closed = 1;
nodes = (
(60,0,ls),
(111,0,o),
(140,29,o),
(140,80,cs),
(140,380,l),
(110,380,l),
(110,80,ls),
(110,46,o),
(94,30,o),
(60,30,cs),
(0,30,ls),
(-8,30,o),
(-15,23,o),
(-15,15,cs),
(-15,7,o),
(-8,0,o),
(0,0,cs)
);
}
);
width = 230;
},
{
anchors = (
{
name = bottom;
pos = (128,0);
},
{
name = ring;
pos = (128,0);
},
{
name = top;
pos = (126,420);
}
);
layerId = "8544E31D-FA38-4D18-9DEA-5E3E35DDFD01";
shapes = (
{
attr = {
strokePos = "0";
};
closed = 1;
nodes = (
(130,0,ls),
(164,0,o),
(190,26,o),
(190,60,cs),
(190,390,l),
(40,390,l),
(40,150,ls),
(40,150,o),
(40,150,o),
(40,150,cs),
(0,150,ls),
(-42,150,o),
(-75,116,o),
(-75,75,cs),
(-75,34,o),
(-42,0,o),
(0,0,cs)
);
}
);
width = 230;
},
{
anchors = (
{
name = bottom;
pos = (23,0);
},
{
name = ring;
pos = (23,0);
},
{
name = top;
pos = (63,400);
}
);
layerId = "3CC93672-F71B-4D5C-A968-72DE9C2CEAD3";
shapes = (
{
attr = {
strokePos = "0";
};
closed = 1;
nodes = (
(25,0,ls),
(63,0,o),
(85,22,o),
(85,60,cs),
(85,380,l),
(55,380,l),
(55,60,ls),
(55,39,o),
(46,30,o),
(25,30,cs),
(0,30,ls),
(-8,30,o),
(-15,23,o),
(-15,15,cs),
(-15,7,o),
(-8,0,o),
(0,0,cs)
);
}
);
width = 130;
}
);
metricLeft = "kashida-ar";
metricRight = "alef-ar";
},
{
glyphname = "hah-ar";
lastChange = "2025-05-05 13:37:19 +0000";
layers = (
{
anchors = (
{
name = bottom;
pos = (514,-240);
},
{
name = center;
pos = (515,-37);
},
{
name = top;
pos = (554,440);
}
);
layerId = "71E51144-4680-4E23-982C-DE3E5ABB4D1F";
shapes = (
{
attr = {
strokePos = "1";
};
closed = 1;
nodes = (
(864,0,ls),
(909,0,o),
(944,35,o),
(944,80,cs),
(944,240,ls),
(944,352,o),
(856,440,o),
(744,440,cs),
(240,440,l),
(240,270,l),
(744,270,ls),
(762,270,o),
(774,258,o),
(774,240,cs),
(774,170,ls),
(774,170,o),
(774,170,o),
(774,170,cs),
(300,170,l),
(300,0,l)
);
},
{
closed = 1;
nodes = (
(731,-240,l),
(731,-70,l),
(300,-70,ls),
(269,-70,o),
(250,-52,o),
(250,-35,cs),
(250,-18,o),
(269,0,o),
(300,0,c),
(300,170,l),
(177,170,o),
(80,79,o),
(80,-35,cs),
(80,-149,o),
(177,-240,o),
(300,-240,cs)
);
}
);
width = 1024;
},
{
anchors = (
{
name = bottom;
pos = (470,-240);
},
{
name = center;
pos = (470,-106);
},
{
name = top;
pos = (492,450);
}
);
layerId = "A1E4B453-6299-48B5-AC61-B31B01EA2EEB";
shapes = (
{
attr = {
strokePos = "1";
};
closed = 1;
nodes = (
(816,0,ls),
(867,0,o),
(896,29,o),
(896,80,cs),
(896,230,ls),
(896,342,o),
(808,430,o),
(696,430,cs),
(192,430,l),
(192,400,l),
(696,400,ls),
(792,400,o),
(866,326,o),
(866,230,cs),
(866,80,ls),
(866,46,o),
(850,30,o),
(816,30,cs),
(250,30,l),
(250,0,l)
);
},
{
closed = 1;
nodes = (
(771,-240,l),
(771,-210,l),
(250,-210,ls),
(176,-210,o),
(120,-163,o),
(120,-105,cs),
(120,-47,o),
(176,0,o),
(250,0,c),
(250,30,l),
(162,30,o),
(90,-29,o),
(90,-105,cs),
(90,-181,o),
(162,-240,o),
(250,-240,cs)
);
}
);
width = 986;
},
{
anchors = (
{
name = bottom;
pos = (284,-240);
},
{
name = center;
pos = (284,-50);
},
{
name = top;
pos = (293,440);
}
);
layerId = "8544E31D-FA38-4D18-9DEA-5E3E35DDFD01";
shapes = (
{
attr = {
strokePos = "1";
};
closed = 1;
nodes = (
(425,0,ls),
(459,0,o),
(485,26,o),
(485,60,cs),
(485,290,ls),
(485,374,o),
(419,440,o),
(335,440,cs),
(163,440,l),
(163,290,l),
(335,290,l),
(335,290,o),
(335,290,o),
(335,290,cs),
(335,150,ls),
(335,150,o),
(335,150,o),
(335,150,cs),
(215,150,l),
(215,0,l)
);
},
{
closed = 1;
nodes = (
(429,-240,l),
(429,-90,l),
(215,-90,ls),
(205,-90,o),
(190,-74,o),
(190,-45,cs),
(190,-16,o),
(205,0,o),
(215,0,c),
(215,150,l),
(121,150,o),
(40,67,o),
(40,-45,cs),
(40,-158,o),
(121,-240,o),
(215,-240,cs)
);
}
);
width = 525;
},
{
anchors = (
{
name = bottom;
pos = (237,-240);
},
{
name = center;
pos = (237,-106);
},
{
name = top;
pos = (256,450);
}
);
layerId = "3CC93672-F71B-4D5C-A968-72DE9C2CEAD3";
shapes = (
{
attr = {
strokePos = "1";
};
closed = 1;
nodes = (
(378,0,ls),
(416,0,o),
(438,22,o),
(438,60,cs),
(438,280,ls),
(438,364,o),
(372,430,o),
(288,430,cs),
(116,430,l),
(116,400,l),
(288,400,ls),
(356,400,o),
(408,348,o),
(408,280,cs),
(408,60,ls),
(408,39,o),
(399,30,o),
(378,30,cs),
(165,30,l),
(165,0,l)
);
},
{
closed = 1;
nodes = (
(382,-240,l),
(382,-210,l),
(165,-210,ls),
(115,-210,o),
(75,-164,o),
(75,-105,cs),
(75,-46,o),
(115,0,o),
(165,0,c),
(165,30,l),
(98,30,o),
(45,-30,o),
(45,-105,cs),
(45,-180,o),
(98,-240,o),
(165,-240,cs)
);
}
);
width = 483;
}
);
metricLeft = "alef-ar";
metricRight = "alef-ar";
unicode = 1581;
},
{
glyphname = "hah-ar.alt";
lastChange = "2025-05-05 13:34:37 +0000";
layers = (
{
anchors = (
{
name = bottom;
pos = (514,-240);
},
{
name = center;
pos = (712,-149);
},
{
name = top;
pos = (554,440);
}
);
layerId = "71E51144-4680-4E23-982C-DE3E5ABB4D1F";
shapes = (
{
attr = {
strokePos = "1";
};
closed = 1;
nodes = (
(864,0,ls),
(909,0,o),
(944,35,o),
(944,80,cs),
(944,240,ls),
(944,352,o),
(856,440,o),
(744,440,cs),
(240,440,l),
(240,270,l),
(744,270,ls),
(762,270,o),
(774,258,o),
(774,240,cs),
(774,170,ls),
(774,170,o),
(774,170,o),
(774,170,cs),
(300,170,l),
(300,0,l)
);
},
{
closed = 1;
nodes = (
(506,-240,l),
(506,-70,l),
(300,-70,ls),
(269,-70,o),
(250,-52,o),
(250,-35,cs),
(250,-18,o),
(269,0,o),
(300,0,c),
(300,170,l),
(177,170,o),
(80,79,o),
(80,-35,cs),
(80,-149,o),
(177,-240,o),
(300,-240,cs)
);
}
);
width = 1024;
},
{
anchors = (
{
name = bottom;
pos = (470,-240);
},
{
name = center;
pos = (495,-106);
},
{
name = top;
pos = (470,450);
}
);
layerId = "A1E4B453-6299-48B5-AC61-B31B01EA2EEB";
shapes = (
{
attr = {
strokePos = "1";
};
closed = 1;
nodes = (
(816,0,ls),
(867,0,o),
(896,29,o),
(896,80,cs),
(896,230,ls),
(896,342,o),
(808,430,o),
(696,430,cs),
(192,430,l),
(192,400,l),
(696,400,ls),
(792,400,o),
(866,326,o),
(866,230,cs),
(866,80,ls),
(866,46,o),
(850,30,o),
(816,30,cs),
(250,30,l),
(250,0,l)
);
},
{
closed = 1;
nodes = (
(771,-240,l),
(771,-210,l),
(250,-210,ls),
(176,-210,o),
(120,-163,o),
(120,-105,cs),
(120,-47,o),
(176,0,o),
(250,0,c),
(250,30,l),
(162,30,o),
(90,-29,o),
(90,-105,cs),
(90,-181,o),
(162,-240,o),
(250,-240,cs)
);
}
);
width = 986;
},
{
anchors = (
{
name = bottom;
pos = (498,-240);
},
{
name = center;
pos = (727,-83);
},
{
name = top;
pos = (498,440);
}
);
associatedMasterId = "A1E4B453-6299-48B5-AC61-B31B01EA2EEB";
attr = {
coordinates = (
120,
125
);
};
layerId = "1E589440-3E1A-409F-986D-17DF6BCD6F83";
name = "25 Apr 25 at 02:59";
shapes = (
{
attr = {
strokePos = 1;
};
closed = 1;
nodes = (
(847,0,ls),
(892,0,o),
(927,35,o),
(927,80,cs),
(927,233,ls),
(927,345,o),
(839,433,o),
(727,433,cs),
(223,433,l),
(223,313,l),
(727,313,ls),
(773,313,o),
(807,279,o),
(807,233,cs),
(807,120,ls),
(807,120,o),
(807,120,o),
(807,120,cs),
(282,120,l),
(282,0,l)
);
},
{
closed = 1;
nodes = (
(601,-240,l),
(601,-120,l),
(282,-120,ls),
(235,-120,o),
(204,-92,o),
(204,-60,cs),
(204,-28,o),
(235,0,o),
(282,0,c),
(282,120,l),
(173,120,o),
(84,42,o),
(84,-60,cs),
(84,-162,o),
(173,-240,o),
(282,-240,cs)
);
}
);
width = 1010;
},
{
anchors = (
{
name = bottom;
pos = (284,-240);
},
{
name = center;
pos = (391,-149);
},
{
name = top;
pos = (284,440);
}
);
layerId = "8544E31D-FA38-4D18-9DEA-5E3E35DDFD01";
shapes = (
{
attr = {
strokePos = "1";
};
closed = 1;
nodes = (
(425,0,ls),
(459,0,o),
(485,26,o),
(485,60,cs),
(485,280,ls),
(485,370,o),
(419,440,o),
(335,440,cs),
(163,440,l),
(163,290,l),
(335,290,l),
(335,290,o),
(335,290,o),
(335,280,cs),
(335,150,ls),
(335,150,o),
(335,150,o),
(335,150,cs),
(215,150,l),
(215,0,l)
);
},
{
closed = 1;
nodes = (
(277,-240,l),
(277,-90,l),
(215,-90,ls),
(205,-90,o),
(190,-74,o),
(190,-45,cs),
(190,-16,o),
(205,0,o),
(215,0,c),
(215,150,l),
(121,150,o),
(40,67,o),
(40,-45,cs),
(40,-158,o),
(121,-240,o),
(215,-240,cs)
);
}
);
width = 525;
},
{
anchors = (
{
name = bottom;
pos = (237,-240);
},
{
name = center;
pos = (253,-106);
},
{
name = top;
pos = (237,450);
}
);
layerId = "3CC93672-F71B-4D5C-A968-72DE9C2CEAD3";
shapes = (
{
attr = {
strokePos = "1";
};
closed = 1;
nodes = (
(378,0,ls),
(416,0,o),
(438,22,o),
(438,60,cs),
(438,280,ls),
(438,364,o),
(372,430,o),
(288,430,cs),
(116,430,l),
(116,400,l),
(288,400,ls),
(356,400,o),
(408,348,o),
(408,280,cs),
(408,60,ls),
(408,39,o),
(399,30,o),
(378,30,cs),
(165,30,l),
(165,0,l)
);
},
{
closed = 1;
nodes = (
(382,-240,l),
(382,-210,l),
(165,-210,ls),
(115,-210,o),
(75,-164,o),
(75,-105,cs),
(75,-46,o),
(115,0,o),
(165,0,c),
(165,30,l),
(98,30,o),
(45,-30,o),
(45,-105,cs),
(45,-180,o),
(98,-240,o),
(165,-240,cs)
);
}
);
width = 483;
},
{
anchors = (
{
name = bottom;
pos = (268,-240);
},
{
name = center;
pos = (403,-81);
},
{
name = top;
pos = (268,440);
}
);
associatedMasterId = "3CC93672-F71B-4D5C-A968-72DE9C2CEAD3";
attr = {
coordinates = (
120,
75
);
};
layerId = "F798DDC9-6B77-49B6-9FD5-63F6A1172EE4";
name = "25 Apr 25 at 02:57";
shapes = (
{
attr = {
strokePos = 1;
};
closed = 1;
nodes = (
(409,0,ls),
(443,0,o),
(469,26,o),
(469,60,cs),
(469,276,ls),
(469,364,o),
(403,433,o),
(319,433,cs),
(147,433,l),
(147,326,l),
(319,326,ls),
(342,326,o),
(362,306,o),
(362,276,cs),
(362,107,ls),
(362,107,o),
(362,107,o),
(362,107,cs),
(198,107,l),
(198,0,l)
);
},
{
closed = 1;
nodes = (
(316,-240,l),
(316,-132,l),
(198,-132,ls),
(173,-132,o),
(150,-106,o),
(150,-66,cs),
(150,-26,o),
(173,0,o),
(198,0,c),
(198,108,l),
(115,108,o),
(42,34,o),
(42,-66,cs),
(42,-166,o),
(115,-240,o),
(198,-240,cs)
);
}
);
width = 511;
}
);
metricLeft = "alef-ar";
metricRight = "alef-ar";
},
{
glyphname = "hah-ar.fina";
lastChange = "2025-05-04 15:40:55 +0000";
layers = (
{
layerId = "71E51144-4680-4E23-982C-DE3E5ABB4D1F";
shapes = (
{
attr = {
strokePos = 1;
};
closed = 1;
nodes = (
(1034,0,l),
(1034,170,l),
(834,170,l),
(787,170,o),
(749,132,o),
(749,85,c),
(749,38,o),
(787,0,o),
(834,0,c)
);
},
{
ref = "hah-ar";
}
);
width = 1034;
},
{
layerId = "A1E4B453-6299-48B5-AC61-B31B01EA2EEB";
shapes = (
{
attr = {
strokePos = 1;
};
closed = 1;
nodes = (
(1006,0,l),
(1006,30,l),
(816,30,l),
(808,30,o),
(801,23,o),
(801,15,c),
(801,7,o),
(808,0,o),
(816,0,c)
);
},
{
ref = "hah-ar";
}
);
width = 1006;
},
{
layerId = "8544E31D-FA38-4D18-9DEA-5E3E35DDFD01";
shapes = (
{
attr = {
strokePos = 1;
};
closed = 1;
nodes = (
(525,0,l),
(525,150,l),
(425,150,l),
(384,150,o),
(350,116,o),
(350,75,c),
(350,34,o),
(384,0,o),
(425,0,c)
);
},
{
ref = "hah-ar";
}
);
width = 525;
},
{
layerId = "3CC93672-F71B-4D5C-A968-72DE9C2CEAD3";
shapes = (
{
attr = {
strokePos = 1;
};
closed = 1;
nodes = (
(493,0,l),
(493,30,l),
(378,30,l),
(370,30,o),
(363,23,o),
(363,15,c),
(363,7,o),
(370,0,o),
(378,0,c)
);
},
{
ref = "hah-ar";
}
);
width = 493;
}
);
metricLeft = "alef-ar";
metricRight = "kashida-ar";
},
{
glyphname = "hah-ar.fina.alt";
lastChange = "2025-05-04 15:40:55 +0000";
layers = (
{
layerId = "71E51144-4680-4E23-982C-DE3E5ABB4D1F";
shapes = (
{
attr = {
strokePos = 1;
};
closed = 1;
nodes = (
(1034,0,l),
(1034,170,l),
(864,170,l),
(817,170,o),
(779,132,o),
(779,85,c),
(779,38,o),
(817,0,o),
(864,0,c)
);
},
{
ref = "hah-ar.alt";
}
);
width = 1034;
},
{
layerId = "A1E4B453-6299-48B5-AC61-B31B01EA2EEB";
shapes = (
{
attr = {
strokePos = 1;
};
closed = 1;
nodes = (
(1006,0,l),
(1006,30,l),
(816,30,l),
(808,30,o),
(801,23,o),
(801,15,c),
(801,7,o),
(808,0,o),
(816,0,c)
);
},
{
ref = "hah-ar.alt";
}
);
width = 1006;
},
{
layerId = "8544E31D-FA38-4D18-9DEA-5E3E35DDFD01";
shapes = (
{
attr = {
strokePos = 1;
};
closed = 1;
nodes = (
(525,0,l),
(525,150,l),
(425,150,l),
(384,150,o),
(350,116,o),
(350,75,c),
(350,34,o),
(384,0,o),
(425,0,c)
);
},
{
ref = "hah-ar.alt";
}
);
width = 525;
},
{
layerId = "3CC93672-F71B-4D5C-A968-72DE9C2CEAD3";
shapes = (
{
attr = {
strokePos = 1;
};
closed = 1;
nodes = (
(493,0,l),
(493,30,l),
(378,30,l),
(370,30,o),
(363,23,o),
(363,15,c),
(363,7,o),
(370,0,o),
(378,0,c)
);
},
{
ref = "hah-ar.alt";
}
);
width = 493;
}
);
metricLeft = "alef-ar";
metricRight = "kashida-ar";
},
{
glyphname = "hah-ar.medi";
lastChange = "2025-05-04 15:40:55 +0000";
layers = (
{
layerId = "71E51144-4680-4E23-982C-DE3E5ABB4D1F";
shapes = (
{
attr = {
strokePos = 1;
};
closed = 1;
nodes = (
(883,0,l),
(883,170,l),
(713,170,l),
(666,170,o),
(628,132,o),
(628,85,c),
(628,38,o),
(666,0,o),
(713,0,c)
);
},
{
ref = "hah-ar.init";
}
);
width = 883;
},
{
layerId = "A1E4B453-6299-48B5-AC61-B31B01EA2EEB";
shapes = (
{
attr = {
strokePos = 1;
};
closed = 1;
nodes = (
(922,0,l),
(922,30,l),
(732,30,l),
(724,30,o),
(717,23,o),
(717,15,c),
(717,7,o),
(724,0,o),
(732,0,c)
);
},
{
ref = "hah-ar.init";
}
);
width = 922;
},
{
layerId = "8544E31D-FA38-4D18-9DEA-5E3E35DDFD01";
shapes = (
{
attr = {
strokePos = 1;
};
closed = 1;
nodes = (
(402,0,l),
(402,150,l),
(302,150,l),
(261,150,o),
(227,116,o),
(227,75,c),
(227,34,o),
(261,0,o),
(302,0,c)
);
},
{
ref = "hah-ar.init";
}
);
width = 402;
},
{
layerId = "3CC93672-F71B-4D5C-A968-72DE9C2CEAD3";
shapes = (
{
attr = {
strokePos = 1;
};
closed = 1;
nodes = (
(427,0,l),
(427,30,l),
(312,30,l),
(304,30,o),
(297,23,o),
(297,15,c),
(297,7,o),
(304,0,o),
(312,0,c)
);
},
{
ref = "hah-ar.init";
}
);
width = 427;
}
);
metricLeft = "kashida-ar";
metricRight = "kashida-ar";
},
{
glyphname = "hah-ar.init";
lastChange = "2025-05-05 13:37:10 +0000";
layers = (
{
anchors = (
{
name = bottom;
pos = (404,0);
},
{
name = top;
pos = (404,440);
}
);
layerId = "71E51144-4680-4E23-982C-DE3E5ABB4D1F";
shapes = (
{
attr = {
strokePos = "1";
};
closed = 1;
nodes = (
(713,0,ls),
(758,0,o),
(793,35,o),
(793,80,cs),
(793,240,ls),
(793,352,o),
(705,440,o),
(593,440,cs),
(90,440,l),
(90,270,l),
(593,270,ls),
(611,270,o),
(623,258,o),
(623,240,cs),
(623,170,ls),
(623,170,o),
(623,170,o),
(623,170,cs),
(0,170,ls),
(-48,170,o),
(-85,132,o),
(-85,85,cs),
(-85,38,o),
(-48,0,o),
(0,0,cs)
);
}
);
width = 873;
},
{
anchors = (
{
name = bottom;
pos = (409,0);
},
{
name = top;
pos = (409,450);
}
);
layerId = "A1E4B453-6299-48B5-AC61-B31B01EA2EEB";
shapes = (
{
attr = {
strokePos = "1";
};
closed = 1;
nodes = (
(732,0,ls),
(783,0,o),
(812,29,o),
(812,80,cs),
(812,230,ls),
(812,342,o),
(724,430,o),
(612,430,cs),
(109,430,l),
(109,400,l),
(612,400,ls),
(708,400,o),
(782,326,o),
(782,230,cs),
(782,80,ls),
(782,46,o),
(766,30,o),
(732,30,cs),
(0,30,ls),
(-8,30,o),
(-15,23,o),
(-15,15,cs),
(-15,7,o),
(-8,0,o),
(0,0,cs)
);
}
);
width = 902;
},
{
anchors = (
{
name = bottom;
pos = (170,0);
},
{
name = top;
pos = (170,440);
}
);
layerId = "8544E31D-FA38-4D18-9DEA-5E3E35DDFD01";
shapes = (
{
attr = {
strokePos = "1";
};
closed = 1;
nodes = (
(302,0,ls),
(336,0,o),
(362,26,o),
(362,60,cs),
(362,290,ls),
(362,374,o),
(296,440,o),
(212,440,cs),
(40,440,l),
(40,290,l),
(212,290,l),
(212,290,o),
(212,290,o),
(212,290,c),
(212,150,ls),
(212,150,o),
(212,150,o),
(212,150,cs),
(0,150,ls),
(-42,150,o),
(-75,116,o),
(-75,75,cs),
(-75,34,o),
(-42,0,o),
(0,0,cs)
);
}
);
width = 402;
},
{
anchors = (
{
name = bottom;
pos = (190,0);
},
{
name = top;
pos = (190,450);
}
);
layerId = "3CC93672-F71B-4D5C-A968-72DE9C2CEAD3";
shapes = (
{
attr = {
strokePos = "1";
};
closed = 1;
nodes = (
(312,0,ls),
(350,0,o),
(372,22,o),
(372,60,cs),
(372,280,ls),
(372,364,o),
(306,430,o),
(222,430,cs),
(50,430,l),
(50,400,l),
(222,400,ls),
(290,400,o),
(342,348,o),
(342,280,cs),
(342,60,ls),
(342,39,o),
(333,30,o),
(312,30,cs),
(0,30,ls),
(-8,30,o),
(-15,23,o),
(-15,15,cs),
(-15,7,o),
(-8,0,o),
(0,0,cs)
);
}
);
width = 417;
}
);
metricLeft = "kashida-ar";
metricRight = "alef-ar";
},
{
glyphname = "dal-ar";
lastChange = "2025-05-05 13:39:09 +0000";
layers = (
{
anchors = (
{
name = bottom;
pos = (240,0);
},
{
name = top;
pos = (333,440);
}
);
layerId = "71E51144-4680-4E23-982C-DE3E5ABB4D1F";
shapes = (
{
attr = {
strokePos = "1";
};
closed = 1;
nodes = (
(580,0,ls),
(625,0,o),
(660,35,o),
(660,80,cs),
(660,240,ls),
(660,352,o),
(572,440,o),
(460,440,cs),
(155,440,l),
(155,270,l),
(460,270,ls),
(478,270,o),
(490,258,o),
(490,240,cs),
(490,170,ls),
(490,170,o),
(490,170,o),
(490,170,cs),
(80,170,l),
(80,0,l)
);
}
);
width = 740;
},
{
anchors = (
{
name = bottom;
pos = (353,0);
},
{
name = top;
pos = (363,450);
}
);
layerId = "A1E4B453-6299-48B5-AC61-B31B01EA2EEB";
shapes = (
{
attr = {
strokePos = "1";
};
closed = 1;
nodes = (
(590,0,ls),
(641,0,o),
(670,29,o),
(670,80,cs),
(670,230,ls),
(670,342,o),
(582,430,o),
(470,430,cs),
(165,430,l),
(165,400,l),
(470,400,ls),
(566,400,o),
(640,326,o),
(640,230,cs),
(640,80,ls),
(640,46,o),
(624,30,o),
(590,30,cs),
(90,30,l),
(90,0,l)
);
}
);
width = 760;
},
{
anchors = (
{
name = bottom;
pos = (159,0);
},
{
name = top;
pos = (168,440);
}
);
layerId = "8544E31D-FA38-4D18-9DEA-5E3E35DDFD01";
shapes = (
{
attr = {
strokePos = "1";
};
closed = 1;
nodes = (
(248,0,ls),
(282,0,o),
(308,26,o),
(308,60,cs),
(308,290,ls),
(308,374,o),
(242,440,o),
(158,440,cs),
(88,440,l),
(88,290,l),
(158,290,l),
(158,290,o),
(158,290,o),
(158,290,c),
(158,150,ls),
(158,150,o),
(158,150,o),
(158,150,cs),
(40,150,l),
(40,0,l)
);
}
);
width = 348;
},
{
anchors = (
{
name = bottom;
pos = (164,0);
},
{
name = top;
pos = (173,450);
}
);
layerId = "3CC93672-F71B-4D5C-A968-72DE9C2CEAD3";
shapes = (
{
attr = {
strokePos = "1";
};
closed = 1;
nodes = (
(253,0,ls),
(291,0,o),
(313,22,o),
(313,60,cs),
(313,280,ls),
(313,364,o),
(247,430,o),
(163,430,cs),
(93,430,l),
(93,400,l),
(163,400,ls),
(231,400,o),
(283,348,o),
(283,280,cs),
(283,60,ls),
(283,39,o),
(274,30,o),
(253,30,cs),
(45,30,l),
(45,0,l)
);
}
);
width = 358;
}
);
metricLeft = "alef-ar";
metricRight = "alef-ar";
unicode = 1583;
},
{
glyphname = "dal-ar.fina";
lastChange = "2025-05-04 15:40:55 +0000";
layers = (
{
layerId = "71E51144-4680-4E23-982C-DE3E5ABB4D1F";
shapes = (
{
attr = {
strokePos = 1;
};
closed = 1;
nodes = (
(750,0,l),
(750,170,l),
(580,170,l),
(533,170,o),
(495,132,o),
(495,85,c),
(495,38,o),
(533,0,o),
(580,0,c)
);
},
{
ref = "dal-ar";
}
);
width = 750;
},
{
layerId = "A1E4B453-6299-48B5-AC61-B31B01EA2EEB";
shapes = (
{
attr = {
strokePos = 1;
};
closed = 1;
nodes = (
(780,0,l),
(780,30,l),
(590,30,l),
(582,30,o),
(575,23,o),
(575,15,c),
(575,7,o),
(582,0,o),
(590,0,c)
);
},
{
ref = "dal-ar";
}
);
width = 780;
},
{
layerId = "8544E31D-FA38-4D18-9DEA-5E3E35DDFD01";
shapes = (
{
attr = {
strokePos = 1;
};
closed = 1;
nodes = (
(348,0,l),
(348,150,l),
(248,150,l),
(207,150,o),
(173,116,o),
(173,75,c),
(173,34,o),
(207,0,o),
(248,0,c)
);
},
{
ref = "dal-ar";
}
);
width = 348;
},
{
layerId = "3CC93672-F71B-4D5C-A968-72DE9C2CEAD3";
shapes = (
{
attr = {
strokePos = 1;
};
closed = 1;
nodes = (
(368,0,l),
(368,30,l),
(253,30,l),
(245,30,o),
(238,23,o),
(238,15,c),
(238,7,o),
(245,0,o),
(253,0,c)
);
},
{
ref = "dal-ar";
}
);
width = 368;
}
);
metricLeft = "alef-ar";
metricRight = "kashida-ar";
},
{
glyphname = "reh-ar";
lastChange = "2025-05-05 13:37:49 +0000";
layers = (
{
anchors = (
{
name = bottom;
pos = (213,-235);
},
{
name = top;
pos = (363,390);
}
);
layerId = "71E51144-4680-4E23-982C-DE3E5ABB4D1F";
shapes = (
{
closed = 1;
nodes = (
(233,-230,ls),
(352,-230,o),
(448,-139,o),
(448,-20,cs),
(448,390,l),
(278,390,l),
(278,-20,ls),
(278,-49,o),
(259,-70,o),
(233,-70,cs),
(0,-70,l),
(0,-230,l)
);
}
);
width = 528;
},
{
anchors = (
{
name = bottom;
pos = (172,-211);
},
{
name = top;
pos = (322,400);
}
);
layerId = "A1E4B453-6299-48B5-AC61-B31B01EA2EEB";
shapes = (
{
closed = 1;
nodes = (
(192,-165,ls),
(273,-165,o),
(337,-101,o),
(337,-20,cs),
(337,380,l),
(307,380,l),
(307,-20,ls),
(307,-85,o),
(257,-135,o),
(192,-135,cs),
(-40,-135,l),
(-40,-165,l)
);
}
);
width = 427;
},
{
anchors = (
{
name = bottom;
pos = (56,-211);
},
{
name = top;
pos = (152,390);
}
);
layerId = "8544E31D-FA38-4D18-9DEA-5E3E35DDFD01";
shapes = (
{
closed = 1;
nodes = (
(62,-220,ls),
(152,-220,o),
(227,-150,o),
(227,-60,cs),
(227,390,l),
(77,390,l),
(77,-60,ls),
(77,-72,o),
(69,-80,o),
(62,-80,cs),
(0,-80,l),
(0,-220,l)
);
}
);
width = 267;
},
{
anchors = (
{
name = bottom;
pos = (56,-211);
},
{
name = top;
pos = (152,400);
}
);
layerId = "3CC93672-F71B-4D5C-A968-72DE9C2CEAD3";
shapes = (
{
closed = 1;
nodes = (
(62,-165,ls),
(120,-165,o),
(167,-118,o),
(167,-60,cs),
(167,380,l),
(137,380,l),
(137,-60,ls),
(137,-102,o),
(104,-135,o),
(62,-135,cs),
(0,-135,l),
(0,-165,l)
);
}
);
width = 212;
}
);
metricRight = "alef-ar";
unicode = 1585;
},
{
glyphname = "reh-ar.fina";
lastChange = "2025-05-04 15:40:55 +0000";
layers = (
{
layerId = "71E51144-4680-4E23-982C-DE3E5ABB4D1F";
shapes = (
{
attr = {
strokePos = 1;
};
closed = 1;
nodes = (
(538,0,l),
(538,170,l),
(447,170,l),
(447,0,l)
);
},
{
ref = "reh-ar";
}
);
width = 538;
},
{
layerId = "A1E4B453-6299-48B5-AC61-B31B01EA2EEB";
shapes = (
{
attr = {
strokePos = 1;
};
closed = 1;
nodes = (
(447,0,l),
(447,30,l),
(335,30,l),
(335,0,l)
);
},
{
ref = "reh-ar";
}
);
width = 447;
},
{
layerId = "8544E31D-FA38-4D18-9DEA-5E3E35DDFD01";
shapes = (
{
attr = {
strokePos = 1;
};
closed = 1;
nodes = (
(267,0,l),
(267,150,l),
(227,150,l),
(227,0,l)
);
},
{
ref = "reh-ar";
}
);
width = 267;
},
{
layerId = "3CC93672-F71B-4D5C-A968-72DE9C2CEAD3";
shapes = (
{
attr = {
strokePos = 1;
};
closed = 1;
nodes = (
(222,0,l),
(222,30,l),
(167,30,l),
(167,0,l)
);
},
{
ref = "reh-ar";
}
);
width = 222;
}
);
metricLeft = "reh-ar";
metricRight = "kashida-ar";
},
{
glyphname = "seen-ar";
lastChange = "2025-05-04 16:32:11 +0000";
layers = (
{
anchors = (
{
name = top;
pos = (1159,390);
}
);
layerId = "71E51144-4680-4E23-982C-DE3E5ABB4D1F";
shapes = (
{
attr = {
strokePos = "0";
};
closed = 1;
nodes = (
(1523,0,ls),
(1568,0,o),
(1603,35,o),
(1603,80,cs),
(1603,390,l),
(1433,390,l),
(1433,170,ls),
(1433,170,o),
(1433,170,o),
(1433,170,cs),
(869,170,l),
(869,0,l)
);
},
{
ref = "noonghunna-ar";
},
{
closed = 1;
nodes = (
(1239,3,l),
(1239,390,l),
(1069,390,l),
(1069,3,l)
);
}
);
width = 1683;
},
{
anchors = (
{
name = top;
pos = (1175,400);
}
);
layerId = "A1E4B453-6299-48B5-AC61-B31B01EA2EEB";
shapes = (
{
attr = {
strokePos = "0";
};
closed = 1;
nodes = (
(1502,0,ls),
(1553,0,o),
(1582,29,o),
(1582,80,cs),
(1582,380,l),
(1552,380,l),
(1552,80,ls),
(1552,46,o),
(1536,30,o),
(1502,30,cs),
(785,30,l),
(785,0,l)
);
},
{
ref = "noonghunna-ar";
},
{
closed = 1;
nodes = (
(1190,3,l),
(1190,380,l),
(1160,380,l),
(1160,3,l)
);
}
);
width = 1672;
},
{
anchors = (
{
name = top;
pos = (528,390);
}
);
layerId = "8544E31D-FA38-4D18-9DEA-5E3E35DDFD01";
shapes = (
{
attr = {
strokePos = "0";
};
closed = 1;
nodes = (
(726,0,ls),
(760,0,o),
(786,26,o),
(786,60,cs),
(786,390,l),
(636,390,l),
(636,150,ls),
(636,150,o),
(636,150,o),
(636,150,cs),
(436,150,l),
(436,0,l)
);
},
{
ref = "noonghunna-ar";
},
{
closed = 1;
nodes = (
(611,3,l),
(611,390,l),
(461,390,l),
(461,3,l)
);
}
);
width = 826;
},
{
anchors = (
{
name = top;
pos = (559,400);
}
);
layerId = "3CC93672-F71B-4D5C-A968-72DE9C2CEAD3";
shapes = (
{
attr = {
strokePos = "0";
};
closed = 1;
nodes = (
(703,0,ls),
(741,0,o),
(763,22,o),
(763,60,cs),
(763,380,l),
(733,380,l),
(733,60,ls),
(733,39,o),
(724,30,o),
(703,30,cs),
(385,30,l),
(385,0,l)
);
},
{
ref = "noonghunna-ar";
},
{
closed = 1;
nodes = (
(574,3,l),
(574,380,l),
(544,380,l),
(544,3,l)
);
}
);
width = 808;
}
);
metricLeft = "alef-ar";
metricRight = "alef-ar";
unicode = 1587;
},
{
glyphname = "seen-ar.fina";
lastChange = "2025-05-04 15:40:55 +0000";
layers = (
{
layerId = "71E51144-4680-4E23-982C-DE3E5ABB4D1F";
shapes = (
{
attr = {
strokePos = 1;
};
closed = 1;
nodes = (
(1693,0,l),
(1693,170,l),
(1523,170,l),
(1476,170,o),
(1438,132,o),
(1438,85,c),
(1438,38,o),
(1476,0,o),
(1523,0,c)
);
},
{
ref = "seen-ar";
}
);
width = 1693;
},
{
layerId = "A1E4B453-6299-48B5-AC61-B31B01EA2EEB";
shapes = (
{
attr = {
strokePos = 1;
};
closed = 1;
nodes = (
(1692,0,l),
(1692,30,l),
(1502,30,l),
(1494,30,o),
(1487,23,o),
(1487,15,c),
(1487,7,o),
(1494,0,o),
(1502,0,c)
);
},
{
ref = "seen-ar";
}
);
width = 1692;
},
{
layerId = "8544E31D-FA38-4D18-9DEA-5E3E35DDFD01";
shapes = (
{
attr = {
strokePos = 1;
};
closed = 1;
nodes = (
(826,0,l),
(826,150,l),
(726,150,l),
(685,150,o),
(651,116,o),
(651,75,c),
(651,34,o),
(685,0,o),
(726,0,c)
);
},
{
ref = "seen-ar";
}
);
width = 826;
},
{
layerId = "3CC93672-F71B-4D5C-A968-72DE9C2CEAD3";
shapes = (
{
attr = {
strokePos = 1;
};
closed = 1;
nodes = (
(813,0,l),
(813,30,l),
(698,30,l),
(690,30,o),
(683,23,o),
(683,15,c),
(683,7,o),
(690,0,o),
(698,0,c)
);
},
{
ref = "seen-ar";
}
);
width = 813;
}
);
metricLeft = "alef-ar";
metricRight = "kashida-ar";
},
{
glyphname = "seen-ar.medi";
lastChange = "2025-05-04 15:40:55 +0000";
layers = (
{
layerId = "71E51144-4680-4E23-982C-DE3E5ABB4D1F";
shapes = (
{
attr = {
strokePos = 1;
};
closed = 1;
nodes = (
(1078,0,l),
(1078,170,l),
(908,170,l),
(861,170,o),
(823,132,o),
(823,85,c),
(823,38,o),
(861,0,o),
(908,0,c)
);
},
{
ref = "seen-ar.init";
}
);
width = 1078;
},
{
layerId = "A1E4B453-6299-48B5-AC61-B31B01EA2EEB";
shapes = (
{
attr = {
strokePos = 1;
};
closed = 1;
nodes = (
(1034,0,l),
(1034,30,l),
(844,30,l),
(836,30,o),
(829,23,o),
(829,15,c),
(829,7,o),
(836,0,o),
(844,0,c)
);
},
{
ref = "seen-ar.init";
}
);
width = 1034;
},
{
layerId = "8544E31D-FA38-4D18-9DEA-5E3E35DDFD01";
shapes = (
{
attr = {
strokePos = 1;
};
closed = 1;
nodes = (
(580,0,l),
(580,150,l),
(480,150,l),
(439,150,o),
(405,116,o),
(405,75,c),
(405,34,o),
(439,0,o),
(480,0,c)
);
},
{
ref = "seen-ar.init";
}
);
width = 580;
},
{
layerId = "3CC93672-F71B-4D5C-A968-72DE9C2CEAD3";
shapes = (
{
attr = {
strokePos = 1;
};
closed = 1;
nodes = (
(518,0,l),
(518,30,l),
(403,30,l),
(395,30,o),
(388,23,o),
(388,15,c),
(388,7,o),
(395,0,o),
(403,0,c)
);
},
{
ref = "seen-ar.init";
}
);
width = 518;
}
);
metricLeft = "kashida-ar";
metricRight = "kashida-ar";
},
{
glyphname = "seen-ar.init";
lastChange = "2025-05-04 16:32:22 +0000";
layers = (
{
anchors = (
{
name = bottom;
pos = (519,0);
},
{
name = top;
pos = (519,393);
}
);
layerId = "71E51144-4680-4E23-982C-DE3E5ABB4D1F";
shapes = (
{
attr = {
strokePos = "0";
};
closed = 1;
nodes = (
(908,0,ls),
(953,0,o),
(988,35,o),
(988,80,cs),
(988,390,l),
(818,390,l),
(818,170,ls),
(818,170,o),
(818,170,o),
(818,170,cs),
(350,170,l),
(350,0,l)
);
},
{
ref = "behDotless-ar.medi";
},
{
closed = 1;
nodes = (
(624,3,l),
(624,390,l),
(454,390,l),
(454,3,l)
);
}
);
width = 1068;
},
{
anchors = (
{
name = bottom;
pos = (517,0);
},
{
name = top;
pos = (517,400);
}
);
layerId = "A1E4B453-6299-48B5-AC61-B31B01EA2EEB";
shapes = (
{
attr = {
strokePos = "0";
};
closed = 1;
nodes = (
(844,0,ls),
(895,0,o),
(924,29,o),
(924,80,cs),
(924,380,l),
(894,380,l),
(894,80,ls),
(894,46,o),
(878,30,o),
(844,30,cs),
(250,30,l),
(250,0,l)
);
},
{
ref = "behDotless-ar.medi";
},
{
closed = 1;
nodes = (
(532,3,l),
(532,380,l),
(502,380,l),
(502,3,l)
);
}
);
width = 1014;
},
{
anchors = (
{
name = bottom;
pos = (290,0);
},
{
name = top;
pos = (290,390);
}
);
layerId = "8544E31D-FA38-4D18-9DEA-5E3E35DDFD01";
shapes = (
{
attr = {
strokePos = "0";
};
closed = 1;
nodes = (
(480,0,ls),
(514,0,o),
(540,26,o),
(540,60,cs),
(540,390,l),
(390,390,l),
(390,150,ls),
(390,150,o),
(390,150,o),
(390,150,cs),
(230,150,l),
(230,0,l)
);
},
{
ref = "behDotless-ar.medi";
},
{
closed = 1;
nodes = (
(365,3,l),
(365,390,l),
(215,390,l),
(215,3,l)
);
}
);
width = 580;
},
{
anchors = (
{
name = bottom;
pos = (259,0);
},
{
name = top;
pos = (259,400);
}
);
layerId = "3CC93672-F71B-4D5C-A968-72DE9C2CEAD3";
shapes = (
{
attr = {
strokePos = "0";
};
closed = 1;
nodes = (
(403,0,ls),
(441,0,o),
(463,22,o),
(463,60,cs),
(463,380,l),
(433,380,l),
(433,60,ls),
(433,39,o),
(424,30,o),
(403,30,cs),
(140,30,l),
(140,0,l)
);
},
{
ref = "behDotless-ar.medi";
},
{
closed = 1;
nodes = (
(274,3,l),
(274,380,l),
(244,380,l),
(244,3,l)
);
}
);
width = 508;
}
);
metricLeft = "kashida-ar";
metricRight = "alef-ar";
},
{
glyphname = "sad-ar";
lastChange = "2025-05-04 15:40:55 +0000";
layers = (
{
layerId = "71E51144-4680-4E23-982C-DE3E5ABB4D1F";
shapes = (
{
closed = 1;
nodes = (
(875,390,l),
(875,440,l),
(705,440,l),
(705,390,l)
);
},
{
ref = "noonghunna-ar";
},
{
pos = (340,0);
ref = _part.sadcurve;
}
);
width = 1684;
},
{
layerId = "A1E4B453-6299-48B5-AC61-B31B01EA2EEB";
shapes = (
{
closed = 1;
nodes = (
(798,360,l),
(798,420,l),
(768,420,l),
(768,360,l)
);
},
{
ref = "noonghunna-ar";
},
{
pos = (308,0);
ref = _part.sadcurve;
}
);
width = 1662;
},
{
layerId = "8544E31D-FA38-4D18-9DEA-5E3E35DDFD01";
shapes = (
{
closed = 1;
nodes = (
(436,360,l),
(436,440,l),
(286,440,l),
(286,360,l)
);
},
{
ref = "noonghunna-ar";
},
{
pos = (-230,0);
ref = _part.sadcurve;
}
);
width = 776;
},
{
layerId = "3CC93672-F71B-4D5C-A968-72DE9C2CEAD3";
shapes = (
{
closed = 1;
nodes = (
(385,360,l),
(385,420,l),
(355,420,l),
(355,360,l)
);
},
{
ref = "noonghunna-ar";
},
{
pos = (-216,0);
ref = _part.sadcurve;
}
);
width = 803;
}
);
metricLeft = "alef-ar";
metricRight = "alef-ar";
unicode = 1589;
},
{
glyphname = "sad-ar.fina";
lastChange = "2025-05-04 15:40:55 +0000";
layers = (
{
layerId = "71E51144-4680-4E23-982C-DE3E5ABB4D1F";
shapes = (
{
attr = {
strokePos = 1;
};
closed = 1;
nodes = (
(1694,0,l),
(1694,170,l),
(1524,170,l),
(1477,170,o),
(1439,132,o),
(1439,85,c),
(1439,38,o),
(1477,0,o),
(1524,0,c)
);
},
{
ref = "sad-ar";
}
);
width = 1694;
},
{
layerId = "A1E4B453-6299-48B5-AC61-B31B01EA2EEB";
shapes = (
{
attr = {
strokePos = 1;
};
closed = 1;
nodes = (
(1682,0,l),
(1682,30,l),
(1492,30,l),
(1484,30,o),
(1477,23,o),
(1477,15,c),
(1477,7,o),
(1484,0,o),
(1492,0,c)
);
},
{
ref = "sad-ar";
}
);
width = 1682;
},
{
layerId = "8544E31D-FA38-4D18-9DEA-5E3E35DDFD01";
shapes = (
{
attr = {
strokePos = 1;
};
closed = 1;
nodes = (
(776,0,l),
(776,150,l),
(676,150,l),
(635,150,o),
(601,116,o),
(601,75,c),
(601,34,o),
(635,0,o),
(676,0,c)
);
},
{
ref = "sad-ar";
}
);
width = 776;
},
{
layerId = "3CC93672-F71B-4D5C-A968-72DE9C2CEAD3";
shapes = (
{
attr = {
strokePos = 1;
};
closed = 1;
nodes = (
(813,0,l),
(813,30,l),
(698,30,l),
(690,30,o),
(683,23,o),
(683,15,c),
(683,7,o),
(690,0,o),
(698,0,c)
);
},
{
ref = "sad-ar";
}
);
width = 813;
}
);
metricLeft = "alef-ar";
metricRight = "kashida-ar";
},
{
glyphname = "sad-ar.medi";
lastChange = "2025-05-04 15:40:55 +0000";
layers = (
{
layerId = "71E51144-4680-4E23-982C-DE3E5ABB4D1F";
shapes = (
{
attr = {
strokePos = 1;
};
closed = 1;
nodes = (
(1079,0,l),
(1079,170,l),
(909,170,l),
(862,170,o),
(824,132,o),
(824,85,c),
(824,38,o),
(862,0,o),
(909,0,c)
);
},
{
ref = "sad-ar.init";
}
);
width = 1079;
},
{
layerId = "A1E4B453-6299-48B5-AC61-B31B01EA2EEB";
shapes = (
{
attr = {
strokePos = 1;
};
closed = 1;
nodes = (
(1034,0,l),
(1034,30,l),
(844,30,l),
(836,30,o),
(829,23,o),
(829,15,c),
(829,7,o),
(836,0,o),
(844,0,c)
);
},
{
ref = "sad-ar.init";
}
);
width = 1034;
},
{
layerId = "8544E31D-FA38-4D18-9DEA-5E3E35DDFD01";
shapes = (
{
attr = {
strokePos = 1;
};
closed = 1;
nodes = (
(540,0,l),
(540,150,l),
(440,150,l),
(399,150,o),
(365,116,o),
(365,75,c),
(365,34,o),
(399,0,o),
(440,0,c)
);
},
{
ref = "sad-ar.init";
}
);
width = 540;
},
{
layerId = "3CC93672-F71B-4D5C-A968-72DE9C2CEAD3";
shapes = (
{
attr = {
strokePos = 1;
};
closed = 1;
nodes = (
(518,0,l),
(518,30,l),
(403,30,l),
(395,30,o),
(388,23,o),
(388,15,c),
(388,7,o),
(395,0,o),
(403,0,c)
);
},
{
ref = "sad-ar.init";
}
);
width = 518;
}
);
metricLeft = "kashida-ar";
metricRight = "kashida-ar";
},
{
glyphname = "sad-ar.init";
lastChange = "2025-05-04 15:40:55 +0000";
layers = (
{
layerId = "71E51144-4680-4E23-982C-DE3E5ABB4D1F";
shapes = (
{
closed = 1;
nodes = (
(260,16,l),
(260,440,l),
(90,440,l),
(90,16,l)
);
},
{
attr = {
strokePos = 1;
};
closed = 1;
nodes = (
(175,0,l),
(175,170,l),
(0,170,l),
(-48,170,o),
(-85,132,o),
(-85,85,c),
(-85,38,o),
(-48,0,o),
(0,0,c)
);
},
{
pos = (-275,0);
ref = _part.sadcurve;
}
);
width = 1069;
},
{
layerId = "A1E4B453-6299-48B5-AC61-B31B01EA2EEB";
shapes = (
{
closed = 1;
nodes = (
(140,16,l),
(140,420,l),
(110,420,l),
(110,16,l)
);
},
{
attr = {
strokePos = 1;
};
closed = 1;
nodes = (
(125,0,l),
(125,30,l),
(0,30,l),
(-8,30,o),
(-15,23,o),
(-15,15,c),
(-15,7,o),
(-8,0,o),
(0,0,c)
);
},
{
pos = (-340,0);
ref = _part.sadcurve;
}
);
width = 1014;
},
{
layerId = "8544E31D-FA38-4D18-9DEA-5E3E35DDFD01";
shapes = (
{
closed = 1;
nodes = (
(190,16,l),
(190,440,l),
(40,440,l),
(40,16,l)
);
},
{
attr = {
strokePos = 1;
};
closed = 1;
nodes = (
(115,0,l),
(115,150,l),
(0,150,l),
(-42,150,o),
(-75,116,o),
(-75,75,c),
(-75,34,o),
(-42,0,o),
(0,0,c)
);
},
{
pos = (-466,0);
ref = _part.sadcurve;
}
);
width = 540;
},
{
layerId = "3CC93672-F71B-4D5C-A968-72DE9C2CEAD3";
shapes = (
{
closed = 1;
nodes = (
(85,16,l),
(85,420,l),
(55,420,l),
(55,16,l)
);
},
{
attr = {
strokePos = 1;
};
closed = 1;
nodes = (
(118,0,l),
(118,30,l),
(0,30,l),
(-8,30,o),
(-15,23,o),
(-15,15,c),
(-15,7,o),
(-8,0,o),
(0,0,c)
);
},
{
pos = (-511,0);
ref = _part.sadcurve;
}
);
width = 508;
}
);
metricLeft = "kashida-ar";
metricRight = "alef-ar";
},
{
glyphname = "tah-ar";
lastChange = "2025-05-04 15:40:55 +0000";
layers = (
{
layerId = "71E51144-4680-4E23-982C-DE3E5ABB4D1F";
shapes = (
{
closed = 1;
nodes = (
(325,16,l),
(325,640,l),
(155,640,l),
(155,16,l)
);
},
{
attr = {
strokePos = 1;
};
closed = 1;
nodes = (
(240,0,l),
(240,170,l),
(80,170,l),
(80,0,l)
);
},
{
pos = (-210,0);
ref = _part.sadcurve;
}
);
width = 1134;
},
{
layerId = "A1E4B453-6299-48B5-AC61-B31B01EA2EEB";
shapes = (
{
closed = 1;
nodes = (
(228,16,l),
(228,640,l),
(198,640,l),
(198,16,l)
);
},
{
attr = {
strokePos = 1;
};
closed = 1;
nodes = (
(213,0,l),
(213,30,l),
(90,30,l),
(90,0,l)
);
},
{
pos = (-252,0);
ref = _part.sadcurve;
}
);
width = 1102;
},
{
layerId = "8544E31D-FA38-4D18-9DEA-5E3E35DDFD01";
shapes = (
{
closed = 1;
nodes = (
(217,16,l),
(217,640,l),
(67,640,l),
(67,16,l)
);
},
{
attr = {
strokePos = 1;
};
closed = 1;
nodes = (
(149,0,l),
(149,150,l),
(40,150,l),
(40,0,l)
);
},
{
pos = (-439,0);
ref = _part.sadcurve;
}
);
width = 567;
},
{
layerId = "3CC93672-F71B-4D5C-A968-72DE9C2CEAD3";
shapes = (
{
closed = 1;
nodes = (
(138,16,l),
(138,640,l),
(108,640,l),
(108,16,l)
);
},
{
attr = {
strokePos = 1;
};
closed = 1;
nodes = (
(123,0,l),
(123,30,l),
(45,30,l),
(45,0,l)
);
},
{
pos = (-458,0);
ref = _part.sadcurve;
}
);
width = 561;
}
);
metricLeft = "alef-ar";
metricRight = "alef-ar";
unicode = 1591;
},
{
glyphname = "tah-ar.fina";
lastChange = "2025-05-04 15:40:55 +0000";
layers = (
{
layerId = "71E51144-4680-4E23-982C-DE3E5ABB4D1F";
shapes = (
{
attr = {
strokePos = 1;
};
closed = 1;
nodes = (
(1144,0,l),
(1144,170,l),
(974,170,l),
(927,170,o),
(889,132,o),
(889,85,c),
(889,38,o),
(927,0,o),
(974,0,c)
);
},
{
ref = "tah-ar";
}
);
width = 1144;
},
{
layerId = "A1E4B453-6299-48B5-AC61-B31B01EA2EEB";
shapes = (
{
attr = {
strokePos = 1;
};
closed = 1;
nodes = (
(1122,0,l),
(1122,30,l),
(931,30,l),
(923,30,o),
(916,23,o),
(916,15,c),
(916,7,o),
(923,0,o),
(931,0,c)
);
},
{
ref = "tah-ar";
}
);
width = 1122;
},
{
layerId = "8544E31D-FA38-4D18-9DEA-5E3E35DDFD01";
shapes = (
{
attr = {
strokePos = 1;
};
closed = 1;
nodes = (
(567,0,l),
(567,150,l),
(467,150,l),
(426,150,o),
(392,116,o),
(392,75,c),
(392,34,o),
(426,0,o),
(467,0,c)
);
},
{
ref = "tah-ar";
}
);
width = 567;
},
{
layerId = "3CC93672-F71B-4D5C-A968-72DE9C2CEAD3";
shapes = (
{
attr = {
strokePos = 1;
};
closed = 1;
nodes = (
(571,0,l),
(571,30,l),
(456,30,l),
(448,30,o),
(441,23,o),
(441,15,c),
(441,7,o),
(448,0,o),
(456,0,c)
);
},
{
ref = "tah-ar";
}
);
width = 571;
}
);
metricLeft = "alef-ar";
metricRight = "kashida-ar";
},
{
glyphname = "tah-ar.medi";
lastChange = "2025-05-04 15:40:55 +0000";
layers = (
{
layerId = "71E51144-4680-4E23-982C-DE3E5ABB4D1F";
shapes = (
{
attr = {
strokePos = 1;
};
closed = 1;
nodes = (
(1079,0,l),
(1079,170,l),
(909,170,l),
(862,170,o),
(824,132,o),
(824,85,c),
(824,38,o),
(862,0,o),
(909,0,c)
);
},
{
ref = "tah-ar.init";
}
);
width = 1079;
},
{
layerId = "A1E4B453-6299-48B5-AC61-B31B01EA2EEB";
shapes = (
{
attr = {
strokePos = 1;
};
closed = 1;
nodes = (
(1036,0,l),
(1036,30,l),
(846,30,l),
(838,30,o),
(831,23,o),
(831,15,c),
(831,7,o),
(838,0,o),
(846,0,c)
);
},
{
ref = "tah-ar.init";
}
);
width = 1036;
},
{
layerId = "8544E31D-FA38-4D18-9DEA-5E3E35DDFD01";
shapes = (
{
attr = {
strokePos = 1;
};
closed = 1;
nodes = (
(540,0,l),
(540,150,l),
(440,150,l),
(399,150,o),
(365,116,o),
(365,75,c),
(365,34,o),
(399,0,o),
(440,0,c)
);
},
{
ref = "tah-ar.init";
}
);
width = 540;
},
{
layerId = "3CC93672-F71B-4D5C-A968-72DE9C2CEAD3";
shapes = (
{
attr = {
strokePos = 1;
};
closed = 1;
nodes = (
(527,0,l),
(527,30,l),
(412,30,l),
(404,30,o),
(397,23,o),
(397,15,c),
(397,7,o),
(404,0,o),
(412,0,c)
);
},
{
ref = "tah-ar.init";
}
);
width = 527;
}
);
metricLeft = "kashida-ar";
metricRight = "kashida-ar";
},
{
glyphname = "tah-ar.init";
lastChange = "2025-05-04 15:40:55 +0000";
layers = (
{
layerId = "71E51144-4680-4E23-982C-DE3E5ABB4D1F";
shapes = (
{
attr = {
strokePos = 1;
};
closed = 1;
nodes = (
(15,0,l),
(15,170,l),
(0,170,l),
(-48,170,o),
(-85,132,o),
(-85,85,c),
(-85,38,o),
(-48,0,o),
(0,0,c)
);
},
{
pos = (-65,0);
ref = "tah-ar";
}
);
width = 1069;
},
{
layerId = "A1E4B453-6299-48B5-AC61-B31B01EA2EEB";
shapes = (
{
attr = {
strokePos = 1;
};
closed = 1;
nodes = (
(4,0,l),
(4,30,l),
(0,30,l),
(-8,30,o),
(-15,23,o),
(-15,15,c),
(-15,7,o),
(-8,0,o),
(0,0,c)
);
},
{
pos = (-86,0);
ref = "tah-ar";
}
);
width = 1016;
},
{
layerId = "8544E31D-FA38-4D18-9DEA-5E3E35DDFD01";
shapes = (
{
attr = {
strokePos = 1;
};
closed = 1;
nodes = (
(13,0,l),
(13,150,l),
(0,150,l),
(-42,150,o),
(-75,116,o),
(-75,75,c),
(-75,34,o),
(-42,0,o),
(0,0,c)
);
},
{
pos = (-27,0);
ref = "tah-ar";
}
);
width = 540;
},
{
layerId = "3CC93672-F71B-4D5C-A968-72DE9C2CEAD3";
shapes = (
{
attr = {
strokePos = 1;
};
closed = 1;
nodes = (
(1,0,l),
(1,30,l),
(0,30,l),
(-8,30,o),
(-15,23,o),
(-15,15,c),
(-15,7,o),
(-8,0,o),
(0,0,c)
);
},
{
pos = (-44,0);
ref = "tah-ar";
}
);
width = 517;
}
);
metricLeft = "kashida-ar";
metricRight = "alef-ar";
},
{
glyphname = "ain-ar";
lastChange = "2025-05-04 16:00:35 +0000";
layers = (
{
anchors = (
{
name = bottom;
pos = (479,-240);
},
{
name = top;
pos = (604,440);
}
);
layerId = "71E51144-4680-4E23-982C-DE3E5ABB4D1F";
shapes = (
{
attr = {
strokePos = "1";
};
closed = 1;
nodes = (
(473,170,l),
(444,170,o),
(423,191,o),
(423,220,cs),
(423,249,o),
(444,270,o),
(473,270,cs),
(805,270,l),
(805,440,l),
(473,440,ls),
(350,440,o),
(253,343,o),
(253,220,cs),
(253,97,o),
(350,0,o),
(473,0,c)
);
},
{
closed = 1;
nodes = (
(700,-240,l),
(700,-70,l),
(285,-70,ls),
(265,-70,o),
(250,-55,o),
(250,-35,cs),
(250,-15,o),
(265,0,o),
(285,0,cs),
(865,0,l),
(865,170,l),
(285,170,ls),
(171,170,o),
(80,79,o),
(80,-35,cs),
(80,-149,o),
(171,-240,o),
(285,-240,cs)
);
}
);
width = 945;
},
{
anchors = (
{
name = bottom;
pos = (419,-240);
},
{
name = top;
pos = (555,450);
}
);
layerId = "A1E4B453-6299-48B5-AC61-B31B01EA2EEB";
shapes = (
{
attr = {
strokePos = "1";
};
closed = 1;
nodes = (
(402,30,l),
(301,30,o),
(222,111,o),
(222,215,cs),
(222,319,o),
(301,400,o),
(402,400,cs),
(770,400,l),
(770,430,l),
(402,430,ls),
(284,430,o),
(192,335,o),
(192,215,cs),
(192,95,o),
(284,0,o),
(402,0,c)
);
},
{
closed = 1;
nodes = (
(741,-240,l),
(741,-210,l),
(250,-210,ls),
(176,-210,o),
(120,-163,o),
(120,-105,cs),
(120,-47,o),
(176,0,o),
(250,0,cs),
(835,0,l),
(835,30,l),
(250,30,ls),
(162,30,o),
(90,-29,o),
(90,-105,cs),
(90,-181,o),
(162,-240,o),
(250,-240,cs)
);
}
);
width = 925;
},
{
anchors = (
{
name = bottom;
pos = (316,-240);
},
{
name = top;
pos = (316,440);
}
);
layerId = "8544E31D-FA38-4D18-9DEA-5E3E35DDFD01";
shapes = (
{
attr = {
strokePos = "1";
};
closed = 1;
nodes = (
(331,150,l),
(321,150,o),
(321,150,o),
(321,221,cs),
(321,290,o),
(321,290,o),
(331,290,cs),
(434,290,l),
(434,440,l),
(331,440,ls),
(241,440,o),
(171,344,o),
(171,221,cs),
(171,97,o),
(241,0,o),
(331,0,c)
);
},
{
closed = 1;
nodes = (
(400,-240,l),
(400,-90,l),
(215,-90,ls),
(205,-90,o),
(190,-74,o),
(190,-45,cs),
(190,-16,o),
(205,0,o),
(215,0,cs),
(468,0,l),
(468,150,l),
(215,150,ls),
(121,150,o),
(40,67,o),
(40,-45,cs),
(40,-158,o),
(121,-240,o),
(215,-240,cs)
);
}
);
width = 508;
},
{
anchors = (
{
name = bottom;
pos = (261,-240);
},
{
name = top;
pos = (268,450);
}
);
layerId = "3CC93672-F71B-4D5C-A968-72DE9C2CEAD3";
shapes = (
{
attr = {
strokePos = "1";
};
closed = 1;
nodes = (
(276,30,l),
(206,30,o),
(146,111,o),
(146,220,cs),
(146,324,o),
(205,400,o),
(276,400,cs),
(349,400,l),
(349,430,l),
(276,430,ls),
(186,430,o),
(116,338,o),
(116,220,cs),
(116,97,o),
(186,0,o),
(276,0,c)
);
},
{
closed = 1;
nodes = (
(352,-240,l),
(352,-210,l),
(160,-210,ls),
(113,-210,o),
(75,-165,o),
(75,-105,cs),
(75,-45,o),
(113,0,o),
(160,0,cs),
(381,0,l),
(381,30,l),
(160,30,ls),
(95,30,o),
(45,-31,o),
(45,-105,cs),
(45,-179,o),
(95,-240,o),
(160,-240,cs)
);
}
);
width = 426;
}
);
metricLeft = "alef-ar";
metricRight = "alef-ar";
unicode = 1593;
},
{
glyphname = "ain-ar.fina";
lastChange = "2025-05-04 15:40:55 +0000";
layers = (
{
layerId = "71E51144-4680-4E23-982C-DE3E5ABB4D1F";
shapes = (
{
attr = {
strokePos = 1;
};
closed = 1;
nodes = (
(895,0,l),
(895,170,l),
(865,170,l),
(865,0,l)
);
},
{
ref = "ain-ar";
}
);
width = 895;
},
{
layerId = "A1E4B453-6299-48B5-AC61-B31B01EA2EEB";
shapes = (
{
attr = {
strokePos = 1;
};
closed = 1;
nodes = (
(880,0,l),
(880,30,l),
(835,30,l),
(835,0,l)
);
},
{
ref = "ain-ar";
}
);
width = 880;
},
{
layerId = "8544E31D-FA38-4D18-9DEA-5E3E35DDFD01";
shapes = (
{
attr = {
strokePos = 1;
};
closed = 1;
nodes = (
(474,0,l),
(474,150,l),
(468,150,l),
(468,0,l)
);
},
{
ref = "ain-ar";
}
);
width = 474;
},
{
layerId = "3CC93672-F71B-4D5C-A968-72DE9C2CEAD3";
shapes = (
{
attr = {
strokePos = 1;
};
closed = 1;
nodes = (
(404,0,l),
(404,30,l),
(381,30,l),
(381,0,l)
);
},
{
ref = "ain-ar";
}
);
width = 404;
}
);
metricLeft = "alef-ar";
metricRight = "kashida-ar";
},
{
glyphname = "ain-ar.medi";
lastChange = "2025-05-04 15:40:55 +0000";
layers = (
{
layerId = "71E51144-4680-4E23-982C-DE3E5ABB4D1F";
shapes = (
{
attr = {
strokePos = 1;
};
closed = 1;
nodes = (
(732,0,l),
(732,170,l),
(702,170,l),
(702,0,l)
);
},
{
ref = "ain-ar.init";
}
);
width = 732;
},
{
layerId = "A1E4B453-6299-48B5-AC61-B31B01EA2EEB";
shapes = (
{
attr = {
strokePos = 1;
};
closed = 1;
nodes = (
(798,0,l),
(798,30,l),
(753,30,l),
(753,0,l)
);
},
{
ref = "ain-ar.init";
}
);
width = 798;
},
{
layerId = "8544E31D-FA38-4D18-9DEA-5E3E35DDFD01";
shapes = (
{
attr = {
strokePos = 1;
};
closed = 1;
nodes = (
(343,0,l),
(343,150,l),
(337,150,l),
(337,0,l)
);
},
{
ref = "ain-ar.init";
}
);
width = 343;
},
{
layerId = "3CC93672-F71B-4D5C-A968-72DE9C2CEAD3";
shapes = (
{
attr = {
strokePos = 1;
};
closed = 1;
nodes = (
(359,0,l),
(359,30,l),
(336,30,l),
(336,0,l)
);
},
{
ref = "ain-ar.init";
}
);
width = 359;
}
);
metricLeft = "kashida-ar";
metricRight = "kashida-ar";
},
{
glyphname = "ain-ar.init";
lastChange = "2025-05-04 16:00:37 +0000";
layers = (
{
anchors = (
{
name = bottom;
pos = (306,0);
},
{
name = top;
pos = (406,440);
}
);
layerId = "71E51144-4680-4E23-982C-DE3E5ABB4D1F";
shapes = (
{
attr = {
strokePos = "1";
};
closed = 1;
nodes = (
(290,170,l),
(277,170,o),
(260,187,o),
(260,220,cs),
(260,253,o),
(277,270,o),
(290,270,cs),
(642,270,l),
(642,440,l),
(290,440,ls),
(178,440,o),
(90,343,o),
(90,220,cs),
(90,97,o),
(178,0,o),
(290,0,c)
);
},
{
attr = {
strokePos = "0";
};
closed = 1;
nodes = (
(702,0,l),
(702,170,l),
(0,170,ls),
(-48,170,o),
(-85,132,o),
(-85,85,cs),
(-85,38,o),
(-48,0,o),
(0,0,cs)
);
}
);
width = 782;
},
{
anchors = (
{
name = bottom;
pos = (352,0);
},
{
name = top;
pos = (477,450);
}
);
layerId = "A1E4B453-6299-48B5-AC61-B31B01EA2EEB";
shapes = (
{
attr = {
strokePos = "1";
};
closed = 1;
nodes = (
(310,30,l),
(215,30,o),
(140,110,o),
(140,215,cs),
(140,320,o),
(215,400,o),
(310,400,cs),
(688,400,l),
(688,430,l),
(310,430,ls),
(198,430,o),
(110,336,o),
(110,215,cs),
(110,94,o),
(198,0,o),
(310,0,c)
);
},
{
attr = {
strokePos = "0";
};
closed = 1;
nodes = (
(753,0,l),
(753,30,l),
(0,30,ls),
(-8,30,o),
(-15,23,o),
(-15,15,cs),
(-15,7,o),
(-8,0,o),
(0,0,cs)
);
}
);
width = 843;
},
{
anchors = (
{
name = bottom;
pos = (201,0);
},
{
name = top;
pos = (190,440);
}
);
layerId = "8544E31D-FA38-4D18-9DEA-5E3E35DDFD01";
shapes = (
{
attr = {
strokePos = "1";
};
closed = 1;
nodes = (
(190,150,l),
(190,150,o),
(190,150,o),
(190,221,cs),
(190,290,o),
(190,290,o),
(190,290,cs),
(303,290,l),
(303,440,l),
(190,440,ls),
(106,440,o),
(40,344,o),
(40,221,cs),
(40,97,o),
(106,0,o),
(190,0,c)
);
},
{
attr = {
strokePos = 0;
};
closed = 1;
nodes = (
(337,0,l),
(337,150,l),
(0,150,ls),
(-42,150,o),
(-75,116,o),
(-75,75,cs),
(-75,34,o),
(-42,0,o),
(0,0,cs)
);
}
);
width = 377;
},
{
anchors = (
{
name = bottom;
pos = (205,0);
},
{
name = top;
pos = (205,465);
}
);
layerId = "3CC93672-F71B-4D5C-A968-72DE9C2CEAD3";
shapes = (
{
attr = {
strokePos = "1";
};
closed = 1;
nodes = (
(205,30,l),
(141,30,o),
(85,111,o),
(85,220,cs),
(85,324,o),
(141,400,o),
(205,400,cs),
(304,400,l),
(304,430,l),
(205,430,ls),
(121,430,o),
(55,338,o),
(55,220,cs),
(55,97,o),
(121,0,o),
(205,0,c)
);
},
{
attr = {
strokePos = 0;
};
closed = 1;
nodes = (
(336,0,l),
(336,30,l),
(0,30,ls),
(-8,30,o),
(-15,23,o),
(-15,15,cs),
(-15,7,o),
(-8,0,o),
(0,0,cs)
);
}
);
width = 381;
}
);
metricLeft = "kashida-ar";
metricRight = "alef-ar";
},
{
glyphname = "fehDotless-ar";
lastChange = "2025-05-05 13:15:33 +0000";
layers = (
{
anchors = (
{
name = bottom;
pos = (608,0);
}
);
layerId = "71E51144-4680-4E23-982C-DE3E5ABB4D1F";
shapes = (
{
attr = {
strokePos = "0";
};
closed = 1;
nodes = (
(484,0,l),
(484,170,l),
(250,170,ls),
(250,170,o),
(250,170,o),
(250,170,cs),
(250,390,l),
(80,390,l),
(80,80,ls),
(80,35,o),
(115,0,o),
(160,0,cs)
);
},
{
pos = (484,0);
ref = "fehDotless-ar.init";
}
);
width = 1239;
},
{
anchors = (
{
name = bottom;
pos = (583,0);
}
);
layerId = "A1E4B453-6299-48B5-AC61-B31B01EA2EEB";
shapes = (
{
attr = {
strokePos = "0";
};
closed = 1;
nodes = (
(471,0,l),
(471,30,l),
(170,30,ls),
(141,30,o),
(120,51,o),
(120,80,cs),
(120,360,l),
(90,360,l),
(90,80,ls),
(90,35,o),
(125,0,o),
(170,0,cs)
);
},
{
pos = (471,0);
ref = "fehDotless-ar.init";
}
);
width = 1186;
},
{
anchors = (
{
name = bottom;
pos = (314,0);
}
);
layerId = "8544E31D-FA38-4D18-9DEA-5E3E35DDFD01";
shapes = (
{
attr = {
strokePos = "0";
};
closed = 1;
nodes = (
(231,0,l),
(231,150,l),
(190,150,ls),
(190,150,o),
(190,150,o),
(190,150,cs),
(190,390,l),
(40,390,l),
(40,60,ls),
(40,26,o),
(66,0,o),
(100,0,cs)
);
},
{
pos = (231,0);
ref = "fehDotless-ar.init";
}
);
width = 626;
},
{
anchors = (
{
name = bottom;
pos = (247,0);
}
);
layerId = "3CC93672-F71B-4D5C-A968-72DE9C2CEAD3";
shapes = (
{
attr = {
strokePos = "0";
};
closed = 1;
nodes = (
(174,0,l),
(174,30,l),
(109,30,ls),
(92,30,o),
(75,50,o),
(75,80,cs),
(75,360,l),
(45,360,l),
(45,80,ls),
(45,35,o),
(73,0,o),
(109,0,cs)
);
},
{
pos = (174,0);
ref = "fehDotless-ar.init";
}
);
width = 529;
}
);
metricLeft = "alef-ar";
metricRight = "alef-ar";
unicode = 1697;
},
{
glyphname = "fehDotless-ar.fina";
lastChange = "2025-05-04 15:40:55 +0000";
layers = (
{
layerId = "71E51144-4680-4E23-982C-DE3E5ABB4D1F";
shapes = (
{
attr = {
strokePos = 1;
};
closed = 1;
nodes = (
(1249,0,l),
(1249,170,l),
(1079,170,l),
(1032,170,o),
(994,132,o),
(994,85,c),
(994,38,o),
(1032,0,o),
(1079,0,c)
);
},
{
ref = "fehDotless-ar";
}
);
width = 1249;
},
{
layerId = "A1E4B453-6299-48B5-AC61-B31B01EA2EEB";
shapes = (
{
attr = {
strokePos = 1;
};
closed = 1;
nodes = (
(1206,0,l),
(1206,30,l),
(1012,30,l),
(1004,30,o),
(997,23,o),
(997,15,c),
(997,7,o),
(1004,0,o),
(1012,0,c)
);
},
{
ref = "fehDotless-ar";
}
);
width = 1206;
},
{
layerId = "8544E31D-FA38-4D18-9DEA-5E3E35DDFD01";
shapes = (
{
attr = {
strokePos = 1;
};
closed = 1;
nodes = (
(626,0,l),
(626,150,l),
(526,150,l),
(485,150,o),
(451,116,o),
(451,75,c),
(451,34,o),
(485,0,o),
(526,0,c)
);
},
{
ref = "fehDotless-ar";
}
);
width = 626;
},
{
layerId = "3CC93672-F71B-4D5C-A968-72DE9C2CEAD3";
shapes = (
{
attr = {
strokePos = 1;
};
closed = 1;
nodes = (
(539,0,l),
(539,30,l),
(424,30,l),
(416,30,o),
(409,23,o),
(409,15,c),
(409,7,o),
(416,0,o),
(424,0,c)
);
},
{
ref = "fehDotless-ar";
}
);
width = 539;
}
);
metricLeft = "alef-ar";
metricRight = "kashida-ar";
},
{
glyphname = "fehDotless-ar.medi";
lastChange = "2025-05-04 15:40:55 +0000";
layers = (
{
layerId = "71E51144-4680-4E23-982C-DE3E5ABB4D1F";
shapes = (
{
attr = {
strokePos = 1;
};
closed = 1;
nodes = (
(765,0,l),
(765,170,l),
(595,170,l),
(548,170,o),
(510,132,o),
(510,85,c),
(510,38,o),
(548,0,o),
(595,0,c)
);
},
{
ref = "fehDotless-ar.init";
}
);
width = 765;
},
{
layerId = "A1E4B453-6299-48B5-AC61-B31B01EA2EEB";
shapes = (
{
attr = {
strokePos = 1;
};
closed = 1;
nodes = (
(735,0,l),
(735,30,l),
(545,30,l),
(537,30,o),
(530,23,o),
(530,15,c),
(530,7,o),
(537,0,o),
(545,0,c)
);
},
{
ref = "fehDotless-ar.init";
}
);
width = 735;
},
{
layerId = "8544E31D-FA38-4D18-9DEA-5E3E35DDFD01";
shapes = (
{
attr = {
strokePos = 1;
};
closed = 1;
nodes = (
(395,0,l),
(395,150,l),
(295,150,l),
(254,150,o),
(220,116,o),
(220,75,c),
(220,34,o),
(254,0,o),
(295,0,c)
);
},
{
ref = "fehDotless-ar.init";
}
);
width = 395;
},
{
layerId = "3CC93672-F71B-4D5C-A968-72DE9C2CEAD3";
shapes = (
{
attr = {
strokePos = 1;
};
closed = 1;
nodes = (
(365,0,l),
(365,30,l),
(250,30,l),
(242,30,o),
(235,23,o),
(235,15,c),
(235,7,o),
(242,0,o),
(250,0,c)
);
},
{
ref = "fehDotless-ar.init";
}
);
width = 365;
}
);
metricLeft = "kashida-ar";
metricRight = "kashida-ar";
},
{
glyphname = "fehDotless-ar.init";
lastChange = "2025-05-05 13:16:42 +0000";
layers = (
{
anchors = (
{
name = bottom;
pos = (388,0);
},
{
name = top;
pos = (388,440);
}
);
layerId = "71E51144-4680-4E23-982C-DE3E5ABB4D1F";
shapes = (
{
attr = {
strokePos = "1";
};
closed = 1;
nodes = (
(595,0,ls),
(640,0,o),
(675,35,o),
(675,80,cs),
(675,440,l),
(505,440,l),
(505,170,ls),
(505,170,o),
(505,170,o),
(505,170,cs),
(0,170,ls),
(-48,170,o),
(-85,132,o),
(-85,85,cs),
(-85,38,o),
(-48,0,o),
(0,0,cs)
);
},
{
attr = {
strokePos = "1";
};
closed = 1;
nodes = (
(260,10,l),
(260,240,ls),
(260,258,o),
(272,270,o),
(290,270,cs),
(505,270,l),
(505,440,l),
(290,440,ls),
(178,440,o),
(90,352,o),
(90,240,cs),
(90,10,l)
);
}
);
width = 755;
},
{
anchors = (
{
name = bottom;
pos = (413,0);
},
{
name = top;
pos = (413,450);
}
);
layerId = "A1E4B453-6299-48B5-AC61-B31B01EA2EEB";
shapes = (
{
attr = {
strokePos = "1";
};
closed = 1;
nodes = (
(545,0,ls),
(596,0,o),
(625,29,o),
(625,80,cs),
(625,430,l),
(595,430,l),
(595,80,ls),
(595,46,o),
(579,30,o),
(545,30,cs),
(0,30,ls),
(-8,30,o),
(-15,23,o),
(-15,15,cs),
(-15,7,o),
(-8,0,o),
(0,0,cs)
);
},
{
attr = {
strokePos = "1";
};
closed = 1;
nodes = (
(140,10,l),
(140,230,ls),
(140,326,o),
(214,400,o),
(310,400,cs),
(595,400,l),
(595,430,l),
(310,430,ls),
(198,430,o),
(110,342,o),
(110,230,cs),
(110,10,l)
);
}
);
width = 715;
},
{
anchors = (
{
name = bottom;
pos = (208,0);
},
{
name = top;
pos = (208,440);
}
);
layerId = "8544E31D-FA38-4D18-9DEA-5E3E35DDFD01";
shapes = (
{
attr = {
strokePos = "1";
};
closed = 1;
nodes = (
(295,0,ls),
(329,0,o),
(355,26,o),
(355,60,cs),
(355,440,l),
(215,440,l),
(215,150,ls),
(215,150,o),
(215,150,o),
(215,150,cs),
(0,150,ls),
(-42,150,o),
(-75,116,o),
(-75,75,cs),
(-75,34,o),
(-42,0,o),
(0,0,cs)
);
},
{
attr = {
strokePos = "1";
};
closed = 1;
nodes = (
(180,10,l),
(180,290,l),
(180,290,o),
(180,290,o),
(180,290,cs),
(215,290,l),
(215,440,l),
(190,440,ls),
(106,440,o),
(40,374,o),
(40,290,cs),
(40,10,l)
);
}
);
width = 395;
},
{
anchors = (
{
name = bottom;
pos = (192,0);
},
{
name = top;
pos = (192,450);
}
);
layerId = "3CC93672-F71B-4D5C-A968-72DE9C2CEAD3";
shapes = (
{
attr = {
strokePos = "1";
};
closed = 1;
nodes = (
(250,0,ls),
(288,0,o),
(310,22,o),
(310,60,cs),
(310,430,l),
(280,430,l),
(280,60,ls),
(280,39,o),
(271,30,o),
(250,30,cs),
(0,30,ls),
(-8,30,o),
(-15,23,o),
(-15,15,cs),
(-15,7,o),
(-8,0,o),
(0,0,cs)
);
},
{
attr = {
strokePos = "1";
};
closed = 1;
nodes = (
(85,10,l),
(85,280,ls),
(85,348,o),
(137,400,o),
(205,400,cs),
(280,400,l),
(280,430,l),
(205,430,ls),
(121,430,o),
(55,364,o),
(55,280,cs),
(55,10,l)
);
}
);
width = 355;
}
);
metricLeft = "kashida-ar";
metricRight = "alef-ar";
},
{
glyphname = "qafDotless-ar";
lastChange = "2025-05-04 16:19:24 +0000";
layers = (
{
anchors = (
{
name = bottom;
pos = (366,-200);
},
{
name = top;
pos = (571,440);
}
);
layerId = "71E51144-4680-4E23-982C-DE3E5ABB4D1F";
shapes = (
{
attr = {
strokePos = "0";
};
closed = 1;
nodes = (
(671,-200,ls),
(783,-200,o),
(871,-112,o),
(871,0,cs),
(871,440,l),
(486,440,ls),
(374,440,o),
(286,352,o),
(286,240,cs),
(286,0,l),
(701,0,l),
(701,0,l),
(701,-18,o),
(689,-30,o),
(671,-30,cs),
(280,-30,ls),
(262,-30,o),
(250,-18,o),
(250,0,cs),
(250,280,l),
(80,280,l),
(80,0,ls),
(80,-112,o),
(168,-200,o),
(280,-200,cs)
);
},
{
attr = {
strokePos = "1";
};
closed = 1;
nodes = (
(456,240,ls),
(456,258,o),
(468,270,o),
(486,270,cs),
(701,270,l),
(701,170,l),
(456,170,l)
);
}
);
width = 951;
},
{
anchors = (
{
name = bottom;
pos = (463,-180);
},
{
name = top;
pos = (671,450);
}
);
layerId = "A1E4B453-6299-48B5-AC61-B31B01EA2EEB";
shapes = (
{
attr = {
strokePos = "0";
};
closed = 1;
nodes = (
(671,-180,ls),
(783,-180,o),
(871,-92,o),
(871,20,cs),
(871,430,l),
(556,430,ls),
(444,430,o),
(356,342,o),
(356,230,cs),
(356,0,l),
(840,0,l),
(840,0,l),
(831,-85,o),
(760,-150,o),
(671,-150,cs),
(290,-150,ls),
(194,-150,o),
(120,-76,o),
(120,20,cs),
(120,280,l),
(90,280,l),
(90,20,ls),
(90,-92,o),
(178,-180,o),
(290,-180,cs)
);
},
{
attr = {
strokePos = "1";
};
closed = 1;
nodes = (
(386,230,ls),
(386,326,o),
(460,400,o),
(556,400,cs),
(841,400,l),
(841,30,l),
(386,30,l)
);
}
);
width = 961;
},
{
anchors = (
{
name = bottom;
pos = (298,-200);
},
{
name = top;
pos = (399,440);
}
);
layerId = "8544E31D-FA38-4D18-9DEA-5E3E35DDFD01";
shapes = (
{
attr = {
strokePos = "0";
};
closed = 1;
nodes = (
(370,-200,ls),
(458,-200,o),
(527,-134,o),
(527,-50,cs),
(527,440,l),
(362,440,ls),
(278,440,o),
(212,374,o),
(212,290,cs),
(212,0,l),
(377,0,l),
(377,-50,ls),
(377,-50,o),
(377,-50,o),
(377,-50,cs),
(190,-50,ls),
(190,-50,o),
(190,-50,o),
(190,-50,cs),
(190,280,l),
(40,280,l),
(40,-50,ls),
(40,-134,o),
(106,-200,o),
(190,-200,cs)
);
},
{
attr = {
strokePos = "1";
};
closed = 1;
nodes = (
(342,290,ls),
(342,290,o),
(342,290,o),
(342,290,cs),
(377,290,l),
(377,150,l),
(342,150,l)
);
}
);
width = 567;
},
{
anchors = (
{
name = bottom;
pos = (219,-180);
},
{
name = top;
pos = (342,450);
}
);
layerId = "3CC93672-F71B-4D5C-A968-72DE9C2CEAD3";
shapes = (
{
attr = {
strokePos = "0";
};
closed = 1;
nodes = (
(298,-180,ls),
(382,-180,o),
(448,-114,o),
(448,-30,cs),
(448,430,l),
(343,430,ls),
(259,430,o),
(193,364,o),
(193,280,cs),
(193,0,l),
(418,0,l),
(418,-30,ls),
(418,-98,o),
(366,-150,o),
(298,-150,cs),
(195,-150,ls),
(127,-150,o),
(75,-97,o),
(75,-30,cs),
(75,280,l),
(45,280,l),
(45,-30,ls),
(45,-114,o),
(111,-180,o),
(195,-180,cs)
);
},
{
attr = {
strokePos = "1";
};
closed = 1;
nodes = (
(223,280,ls),
(223,348,o),
(275,400,o),
(343,400,cs),
(418,400,l),
(418,30,l),
(223,30,l)
);
}
);
width = 493;
}
);
metricLeft = "alef-ar";
metricRight = "alef-ar";
unicode = 1647;
},
{
glyphname = "qafDotless-ar.fina";
lastChange = "2025-05-04 15:40:55 +0000";
layers = (
{
layerId = "71E51144-4680-4E23-982C-DE3E5ABB4D1F";
shapes = (
{
attr = {
strokePos = 1;
};
closed = 1;
nodes = (
(961,0,l),
(961,170,l),
(865,170,l),
(865,0,l)
);
},
{
ref = "qafDotless-ar";
}
);
width = 961;
},
{
layerId = "A1E4B453-6299-48B5-AC61-B31B01EA2EEB";
shapes = (
{
attr = {
strokePos = 1;
};
closed = 1;
nodes = (
(981,0,l),
(981,30,l),
(870,30,l),
(870,0,l)
);
},
{
ref = "qafDotless-ar";
}
);
width = 981;
},
{
layerId = "8544E31D-FA38-4D18-9DEA-5E3E35DDFD01";
shapes = (
{
attr = {
strokePos = 1;
};
closed = 1;
nodes = (
(567,0,l),
(567,150,l),
(527,150,l),
(527,0,l)
);
},
{
ref = "qafDotless-ar";
}
);
width = 567;
},
{
layerId = "3CC93672-F71B-4D5C-A968-72DE9C2CEAD3";
shapes = (
{
attr = {
strokePos = 1;
};
closed = 1;
nodes = (
(503,0,l),
(503,30,l),
(448,30,l),
(448,0,l)
);
},
{
ref = "qafDotless-ar";
}
);
width = 503;
}
);
metricLeft = "alef-ar";
metricRight = "kashida-ar";
},
{
glyphname = "kaf-ar";
lastChange = "2025-05-04 16:35:00 +0000";
layers = (
{
anchors = (
{
name = bottom;
pos = (536,0);
},
{
name = top;
pos = (536,519);
}
);
layerId = "71E51144-4680-4E23-982C-DE3E5ABB4D1F";
shapes = (
{
attr = {
strokePos = "0";
};
closed = 1;
nodes = (
(919,0,ls),
(964,0,o),
(999,35,o),
(999,80,cs),
(999,640,l),
(829,640,l),
(829,170,ls),
(829,170,o),
(829,170,o),
(829,170,cs),
(250,170,ls),
(250,170,o),
(250,170,o),
(250,170,cs),
(250,390,l),
(80,390,l),
(80,80,ls),
(80,35,o),
(115,0,o),
(160,0,cs)
);
},
{
attr = {
identifier = ID0x118a0c1a0;
};
closed = 1;
nodes = (
(616,322,ls),
(634,322,o),
(649,337,o),
(649,356,cs),
(649,385,ls),
(649,416,o),
(625,440,o),
(594,440,cs),
(500,440,l),
(500,453,ls),
(500,456,o),
(502,458,o),
(505,458,cs),
(596,458,l),
(596,508,l),
(505,508,ls),
(474,508,o),
(450,484,o),
(450,453,cs),
(450,390,l),
(594,390,ls),
(597,390,o),
(599,388,o),
(599,385,cs),
(599,372,ls),
(599,372,o),
(599,372,o),
(599,372,cs),
(450,372,l),
(450,322,l)
);
}
);
width = 1079;
},
{
anchors = (
{
name = bottom;
pos = (506,0);
},
{
name = top;
pos = (506,519);
}
);
layerId = "A1E4B453-6299-48B5-AC61-B31B01EA2EEB";
shapes = (
{
attr = {
strokePos = "0";
};
closed = 1;
nodes = (
(841,0,ls),
(892,0,o),
(921,29,o),
(921,80,cs),
(921,640,l),
(891,640,l),
(891,80,ls),
(891,46,o),
(875,30,o),
(841,30,cs),
(170,30,ls),
(136,30,o),
(120,46,o),
(120,80,cs),
(120,360,l),
(90,360,l),
(90,80,ls),
(90,29,o),
(119,0,o),
(170,0,cs)
);
},
{
attr = {
identifier = ID0x118a0c1a0;
};
closed = 1;
nodes = (
(556,343,ls),
(566,343,o),
(575,352,o),
(575,362,cs),
(575,380,ls),
(575,403,o),
(557,421,o),
(534,421,cs),
(446,421,l),
(446,438,ls),
(446,449,o),
(454,457,o),
(465,457,cs),
(546,457,l),
(546,479,l),
(465,479,ls),
(442,479,o),
(424,461,o),
(424,438,cs),
(424,399,l),
(534,399,ls),
(545,399,o),
(553,391,o),
(553,380,cs),
(553,362,ls),
(553,360,o),
(558,365,o),
(556,365,cs),
(424,365,l),
(424,343,l)
);
}
);
width = 1011;
},
{
anchors = (
{
name = bottom;
pos = (268,0);
},
{
name = top;
pos = (268,519);
}
);
layerId = "8544E31D-FA38-4D18-9DEA-5E3E35DDFD01";
shapes = (
{
attr = {
strokePos = "0";
};
closed = 1;
nodes = (
(440,0,ls),
(474,0,o),
(500,26,o),
(500,60,cs),
(500,640,l),
(350,640,l),
(350,150,ls),
(350,150,o),
(350,150,o),
(350,150,cs),
(190,150,ls),
(190,150,o),
(190,150,o),
(190,150,cs),
(190,390,l),
(40,390,l),
(40,60,ls),
(40,26,o),
(66,0,o),
(100,0,cs)
);
},
{
attr = {
identifier = ID0x118a0c1a0;
};
closed = 1;
nodes = (
(298,357,ls),
(311,357,o),
(321,368,o),
(321,381,cs),
(321,404,ls),
(321,433,o),
(299,451,o),
(279,451,cs),
(256,451,l),
(256,462,ls),
(256,469,o),
(259,473,o),
(261,473,cs),
(299,473,l),
(299,509,l),
(261,509,ls),
(240,509,o),
(220,490,o),
(220,462,cs),
(220,415,l),
(279,415,ls),
(281,415,o),
(285,411,o),
(285,404,cs),
(285,393,ls),
(285,393,o),
(285,393,o),
(285,393,cs),
(220,393,l),
(220,357,l)
);
}
);
width = 540;
},
{
anchors = (
{
name = bottom;
pos = (246,0);
},
{
name = top;
pos = (246,519);
}
);
layerId = "3CC93672-F71B-4D5C-A968-72DE9C2CEAD3";
shapes = (
{
attr = {
strokePos = "0";
};
closed = 1;
nodes = (
(389,0,ls),
(427,0,o),
(449,22,o),
(449,60,cs),
(449,640,l),
(419,640,l),
(419,60,ls),
(419,39,o),
(410,30,o),
(389,30,cs),
(105,30,ls),
(84,30,o),
(75,39,o),
(75,60,cs),
(75,380,l),
(45,380,l),
(45,60,ls),
(45,22,o),
(67,0,o),
(105,0,cs)
);
},
{
attr = {
identifier = ID0x118a0c1a0;
};
closed = 1;
nodes = (
(275,343,ls),
(284,343,o),
(291,351,o),
(291,360,cs),
(291,381,ls),
(291,403,o),
(276,421,o),
(256,421,cs),
(225,421,l),
(225,439,ls),
(225,449,o),
(232,457,o),
(238,457,cs),
(276,457,l),
(276,479,l),
(238,479,ls),
(218,479,o),
(203,461,o),
(203,439,cs),
(203,399,l),
(256,399,ls),
(262,399,o),
(269,391,o),
(269,381,cs),
(269,360,ls),
(269,358,o),
(277,365,o),
(275,365,cs),
(203,365,l),
(203,343,l)
);
}
);
width = 494;
}
);
metricLeft = "alef-ar";
metricRight = "alef-ar";
unicode = 1603;
},
{
glyphname = "kaf-ar.fina";
lastChange = "2025-05-04 15:40:55 +0000";
layers = (
{
layerId = "71E51144-4680-4E23-982C-DE3E5ABB4D1F";
shapes = (
{
attr = {
strokePos = 1;
};
closed = 1;
nodes = (
(1089,0,l),
(1089,170,l),
(919,170,l),
(872,170,o),
(834,132,o),
(834,85,c),
(834,38,o),
(872,0,o),
(919,0,c)
);
},
{
ref = "kaf-ar";
}
);
width = 1089;
},
{
layerId = "A1E4B453-6299-48B5-AC61-B31B01EA2EEB";
shapes = (
{
attr = {
strokePos = 1;
};
closed = 1;
nodes = (
(1031,0,l),
(1031,30,l),
(841,30,l),
(833,30,o),
(826,23,o),
(826,15,c),
(826,7,o),
(833,0,o),
(841,0,c)
);
},
{
ref = "kaf-ar";
}
);
width = 1031;
},
{
layerId = "8544E31D-FA38-4D18-9DEA-5E3E35DDFD01";
shapes = (
{
attr = {
strokePos = 1;
};
closed = 1;
nodes = (
(540,0,l),
(540,150,l),
(440,150,l),
(399,150,o),
(365,116,o),
(365,75,c),
(365,34,o),
(399,0,o),
(440,0,c)
);
},
{
ref = "kaf-ar";
}
);
width = 540;
},
{
layerId = "3CC93672-F71B-4D5C-A968-72DE9C2CEAD3";
shapes = (
{
attr = {
strokePos = 1;
};
closed = 1;
nodes = (
(504,0,l),
(504,30,l),
(389,30,l),
(381,30,o),
(374,23,o),
(374,15,c),
(374,7,o),
(381,0,o),
(389,0,c)
);
},
{
ref = "kaf-ar";
}
);
width = 504;
}
);
metricLeft = "alef-ar";
metricRight = "kashida-ar";
},
{
glyphname = "kaf-ar.medi";
lastChange = "2025-05-04 15:40:55 +0000";
layers = (
{
layerId = "71E51144-4680-4E23-982C-DE3E5ABB4D1F";
shapes = (
{
attr = {
strokePos = 1;
};
closed = 1;
nodes = (
(964,0,l),
(964,170,l),
(794,170,l),
(747,170,o),
(709,132,o),
(709,85,c),
(709,38,o),
(747,0,o),
(794,0,c)
);
},
{
ref = "kaf-ar.init";
}
);
width = 964;
},
{
layerId = "A1E4B453-6299-48B5-AC61-B31B01EA2EEB";
shapes = (
{
attr = {
strokePos = 1;
};
closed = 1;
nodes = (
(930,0,l),
(930,30,l),
(741,30,l),
(733,30,o),
(726,23,o),
(726,15,c),
(726,7,o),
(733,0,o),
(741,0,c)
);
},
{
ref = "kaf-ar.init";
}
);
width = 930;
},
{
layerId = "8544E31D-FA38-4D18-9DEA-5E3E35DDFD01";
shapes = (
{
attr = {
strokePos = 1;
};
closed = 1;
nodes = (
(454,0,l),
(454,150,l),
(354,150,l),
(313,150,o),
(279,116,o),
(279,75,c),
(279,34,o),
(313,0,o),
(354,0,c)
);
},
{
ref = "kaf-ar.init";
}
);
width = 454;
},
{
layerId = "3CC93672-F71B-4D5C-A968-72DE9C2CEAD3";
shapes = (
{
attr = {
strokePos = 1;
};
closed = 1;
nodes = (
(413,0,l),
(413,30,l),
(298,30,l),
(290,30,o),
(283,23,o),
(283,15,c),
(283,7,o),
(290,0,o),
(298,0,c)
);
},
{
ref = "kaf-ar.init";
}
);
width = 413;
}
);
metricLeft = "kashida-ar";
metricRight = "kashida-ar";
},
{
glyphname = "kaf-ar.init";
lastChange = "2025-05-05 12:51:50 +0000";
layers = (
{
anchors = (
{
name = bottom;
pos = (432,0);
},
{
name = top;
pos = (474,640);
}
);
layerId = "71E51144-4680-4E23-982C-DE3E5ABB4D1F";
shapes = (
{
attr = {
strokePos = "1";
};
closed = 1;
nodes = (
(794,0,ls),
(839,0,o),
(874,35,o),
(874,80,cs),
(874,218,ls),
(874,330,o),
(786,418,o),
(674,418,cs),
(260,418,l),
(260,453,ls),
(260,475,o),
(271,488,o),
(290,488,cs),
(682,488,l),
(682,640,l),
(290,640,ls),
(178,640,o),
(90,552,o),
(90,440,cs),
(90,248,l),
(674,248,ls),
(692,248,o),
(704,236,o),
(704,218,cs),
(704,170,ls),
(704,170,o),
(704,170,o),
(704,170,cs),
(0,170,ls),
(-48,170,o),
(-85,132,o),
(-85,85,cs),
(-85,38,o),
(-48,0,o),
(0,0,cs)
);
}
);
width = 954;
},
{
anchors = (
{
name = bottom;
pos = (376,0);
},
{
name = top;
pos = (460,640);
}
);
layerId = "A1E4B453-6299-48B5-AC61-B31B01EA2EEB";
shapes = (
{
attr = {
strokePos = "1";
};
closed = 1;
nodes = (
(741,0,ls),
(792,0,o),
(821,29,o),
(821,80,cs),
(821,146,ls),
(821,258,o),
(733,346,o),
(621,346,cs),
(105,346,l),
(105,440,ls),
(105,536,o),
(179,610,o),
(275,610,cs),
(667,610,l),
(667,640,l),
(275,640,ls),
(163,640,o),
(75,552,o),
(75,440,cs),
(75,316,l),
(621,316,ls),
(717,316,o),
(791,242,o),
(791,146,cs),
(791,80,ls),
(791,46,o),
(775,30,o),
(741,30,cs),
(0,30,ls),
(-8,30,o),
(-15,23,o),
(-15,15,cs),
(-15,7,o),
(-8,0,o),
(0,0,cs)
);
}
);
width = 911;
},
{
anchors = (
{
name = bottom;
pos = (191,0);
},
{
name = top;
pos = (185,640);
}
);
layerId = "8544E31D-FA38-4D18-9DEA-5E3E35DDFD01";
shapes = (
{
attr = {
strokePos = "1";
};
closed = 1;
nodes = (
(354,0,ls),
(388,0,o),
(414,26,o),
(414,60,cs),
(414,248,ls),
(414,332,o),
(348,398,o),
(264,398,cs),
(190,398,l),
(190,495,ls),
(190,495,o),
(190,495,o),
(190,495,cs),
(291,495,l),
(291,640,l),
(190,640,ls),
(106,640,o),
(40,574,o),
(40,490,cs),
(40,248,l),
(264,248,ls),
(264,248,o),
(264,248,o),
(264,248,cs),
(264,150,ls),
(264,150,o),
(264,150,o),
(264,150,cs),
(0,150,ls),
(-42,150,o),
(-75,116,o),
(-75,75,cs),
(-75,34,o),
(-42,0,o),
(0,0,cs)
);
}
);
width = 454;
},
{
anchors = (
{
name = bottom;
pos = (155,0);
},
{
name = top;
pos = (152,640);
}
);
layerId = "3CC93672-F71B-4D5C-A968-72DE9C2CEAD3";
shapes = (
{
attr = {
strokePos = "1";
};
closed = 1;
nodes = (
(298,0,ls),
(336,0,o),
(358,22,o),
(358,60,cs),
(358,196,ls),
(358,280,o),
(292,346,o),
(208,346,cs),
(38,346,l),
(38,490,ls),
(38,558,o),
(90,610,o),
(158,610,cs),
(259,610,l),
(259,640,l),
(158,640,ls),
(74,640,o),
(8,574,o),
(8,490,cs),
(8,316,l),
(208,316,ls),
(276,316,o),
(328,264,o),
(328,196,cs),
(328,60,ls),
(328,39,o),
(319,30,o),
(298,30,cs),
(0,30,ls),
(-8,30,o),
(-15,23,o),
(-15,15,cs),
(-15,7,o),
(-8,0,o),
(0,0,cs)
);
}
);
width = 403;
}
);
metricLeft = "kashida-ar";
metricRight = "alef-ar";
},
{
glyphname = "keheh-ar";
lastChange = "2025-05-04 16:35:47 +0000";
layers = (
{
layerId = "71E51144-4680-4E23-982C-DE3E5ABB4D1F";
shapes = (
{
attr = {
strokePos = "1";
};
closed = 1;
nodes = (
(306,0,l),
(306,170,l),
(250,170,ls),
(250,170,o),
(250,170,o),
(250,170,cs),
(250,390,l),
(80,390,l),
(80,80,ls),
(80,35,o),
(115,0,o),
(160,0,cs)
);
},
{
pos = (306,0);
ref = "keheh-ar.init";
}
);
width = 1260;
},
{
layerId = "A1E4B453-6299-48B5-AC61-B31B01EA2EEB";
shapes = (
{
attr = {
strokePos = 1;
};
closed = 1;
nodes = (
(286,0,l),
(286,30,l),
(170,30,ls),
(141,30,o),
(120,51,o),
(120,80,cs),
(120,360,l),
(90,360,l),
(90,80,ls),
(90,35,o),
(125,0,o),
(170,0,cs)
);
},
{
pos = (286,0);
ref = "keheh-ar.init";
}
);
width = 1197;
},
{
layerId = "8544E31D-FA38-4D18-9DEA-5E3E35DDFD01";
shapes = (
{
attr = {
strokePos = "1";
};
closed = 1;
nodes = (
(197,0,l),
(197,150,l),
(190,150,ls),
(190,150,o),
(190,150,o),
(190,150,cs),
(190,390,l),
(40,390,l),
(40,60,ls),
(40,26,o),
(66,0,o),
(100,0,cs)
);
},
{
pos = (197,0);
ref = "keheh-ar.init";
}
);
width = 651;
},
{
layerId = "3CC93672-F71B-4D5C-A968-72DE9C2CEAD3";
shapes = (
{
attr = {
strokePos = 1;
};
closed = 1;
nodes = (
(129,0,l),
(129,30,l),
(105,30,ls),
(84,30,o),
(75,39,o),
(75,60,cs),
(75,380,l),
(45,380,l),
(45,60,ls),
(45,22,o),
(67,0,o),
(105,0,cs)
);
},
{
pos = (129,0);
ref = "keheh-ar.init";
}
);
width = 532;
}
);
metricLeft = "kaf-ar";
metricRight = "kaf-ar.init";
unicode = 1705;
},
{
glyphname = "keheh-ar.fina";
lastChange = "2025-05-04 15:40:55 +0000";
layers = (
{
layerId = "71E51144-4680-4E23-982C-DE3E5ABB4D1F";
shapes = (
{
attr = {
strokePos = "1";
};
closed = 1;
nodes = (
(1270,0,l),
(1270,170,l),
(1100,170,l),
(1053,170,o),
(1015,132,o),
(1015,85,c),
(1015,38,o),
(1053,0,o),
(1100,0,c)
);
},
{
ref = "keheh-ar";
}
);
width = 1270;
},
{
layerId = "A1E4B453-6299-48B5-AC61-B31B01EA2EEB";
shapes = (
{
attr = {
strokePos = "1";
};
closed = 1;
nodes = (
(1217,0,l),
(1217,30,l),
(1027,30,l),
(1019,30,o),
(1012,23,o),
(1012,15,c),
(1012,7,o),
(1019,0,o),
(1027,0,c)
);
},
{
ref = "keheh-ar";
}
);
width = 1217;
},
{
layerId = "8544E31D-FA38-4D18-9DEA-5E3E35DDFD01";
shapes = (
{
attr = {
strokePos = "1";
};
closed = 1;
nodes = (
(651,0,l),
(651,150,l),
(551,150,l),
(510,150,o),
(476,116,o),
(476,75,c),
(476,34,o),
(510,0,o),
(551,0,c)
);
},
{
ref = "keheh-ar";
}
);
width = 651;
},
{
layerId = "3CC93672-F71B-4D5C-A968-72DE9C2CEAD3";
shapes = (
{
attr = {
strokePos = "1";
};
closed = 1;
nodes = (
(542,0,l),
(542,30,l),
(427,30,l),
(419,30,o),
(412,23,o),
(412,15,c),
(412,7,o),
(419,0,o),
(427,0,c)
);
},
{
ref = "keheh-ar";
}
);
width = 542;
}
);
metricLeft = "kaf-ar";
metricRight = "kashida-ar";
},
{
glyphname = "lam-ar";
lastChange = "2025-05-04 16:03:10 +0000";
layers = (
{
anchors = (
{
name = bottom;
pos = (477,-160);
},
{
name = top;
pos = (477,481);
}
);
layerId = "71E51144-4680-4E23-982C-DE3E5ABB4D1F";
shapes = (
{
attr = {
strokePos = "0";
};
closed = 1;
nodes = (
(675,-160,ls),
(787,-160,o),
(875,-72,o),
(875,40,cs),
(875,640,l),
(705,640,l),
(705,40,ls),
(705,22,o),
(693,10,o),
(675,10,cs),
(280,10,ls),
(262,10,o),
(250,22,o),
(250,40,cs),
(250,280,l),
(80,280,l),
(80,40,ls),
(80,-72,o),
(168,-160,o),
(280,-160,cs)
);
}
);
width = 955;
},
{
anchors = (
{
name = bottom;
pos = (457,-160);
},
{
name = top;
pos = (457,481);
}
);
layerId = "A1E4B453-6299-48B5-AC61-B31B01EA2EEB";
shapes = (
{
attr = {
strokePos = "0";
};
closed = 1;
nodes = (
(598,-160,ls),
(710,-160,o),
(798,-72,o),
(798,40,cs),
(798,640,l),
(768,640,l),
(768,40,ls),
(768,-56,o),
(694,-130,o),
(598,-130,cs),
(290,-130,ls),
(194,-130,o),
(120,-56,o),
(120,40,cs),
(120,280,l),
(90,280,l),
(90,40,ls),
(90,-72,o),
(178,-160,o),
(290,-160,cs)
);
}
);
width = 888;
},
{
anchors = (
{
name = bottom;
pos = (192,-160);
},
{
name = top;
pos = (142,420);
}
);
layerId = "8544E31D-FA38-4D18-9DEA-5E3E35DDFD01";
shapes = (
{
attr = {
strokePos = "0";
};
closed = 1;
nodes = (
(286,-160,ls),
(370,-160,o),
(436,-94,o),
(436,-10,cs),
(436,640,l),
(286,640,l),
(286,-10,l),
(286,-10,o),
(286,-10,o),
(286,-10,c),
(190,-10,l),
(190,-10,o),
(190,-10,o),
(190,-10,c),
(190,280,l),
(40,280,l),
(40,-10,ls),
(40,-94,o),
(106,-160,o),
(190,-160,cs)
);
}
);
width = 476;
},
{
anchors = (
{
name = bottom;
pos = (197,-160);
},
{
name = top;
pos = (199,481);
}
);
layerId = "3CC93672-F71B-4D5C-A968-72DE9C2CEAD3";
shapes = (
{
attr = {
strokePos = "0";
};
closed = 1;
nodes = (
(235,-160,ls),
(319,-160,o),
(385,-94,o),
(385,-10,cs),
(385,640,l),
(355,640,l),
(355,-10,ls),
(355,-77,o),
(303,-130,o),
(235,-130,cs),
(195,-130,ls),
(127,-130,o),
(75,-77,o),
(75,-10,cs),
(75,280,l),
(45,280,l),
(45,-10,ls),
(45,-94,o),
(111,-160,o),
(195,-160,cs)
);
}
);
width = 430;
}
);
metricLeft = "alef-ar";
metricRight = "alef-ar";
unicode = 1604;
},
{
glyphname = "lam-ar.fina";
lastChange = "2025-05-04 15:40:55 +0000";
layers = (
{
layerId = "71E51144-4680-4E23-982C-DE3E5ABB4D1F";
shapes = (
{
attr = {
strokePos = 1;
};
closed = 1;
nodes = (
(965,0,l),
(965,170,l),
(866,170,l),
(866,0,l)
);
},
{
ref = "lam-ar";
}
);
width = 965;
},
{
layerId = "A1E4B453-6299-48B5-AC61-B31B01EA2EEB";
shapes = (
{
attr = {
strokePos = 1;
};
closed = 1;
nodes = (
(908,0,l),
(908,30,l),
(793,30,l),
(793,0,l)
);
},
{
ref = "lam-ar";
}
);
width = 908;
},
{
layerId = "8544E31D-FA38-4D18-9DEA-5E3E35DDFD01";
shapes = (
{
attr = {
strokePos = 1;
};
closed = 1;
nodes = (
(476,0,l),
(476,150,l),
(436,150,l),
(436,0,l)
);
},
{
ref = "lam-ar";
}
);
width = 476;
},
{
layerId = "3CC93672-F71B-4D5C-A968-72DE9C2CEAD3";
shapes = (
{
attr = {
strokePos = 1;
};
closed = 1;
nodes = (
(440,0,l),
(440,30,l),
(385,30,l),
(385,0,l)
);
},
{
ref = "lam-ar";
}
);
width = 440;
}
);
metricLeft = "alef-ar";
metricRight = "kashida-ar";
},
{
glyphname = "lam-ar.medi";
lastChange = "2025-05-04 15:40:55 +0000";
layers = (
{
layerId = "71E51144-4680-4E23-982C-DE3E5ABB4D1F";
shapes = (
{
attr = {
strokePos = 1;
};
closed = 1;
nodes = (
(350,0,l),
(350,170,l),
(180,170,l),
(133,170,o),
(95,132,o),
(95,85,c),
(95,38,o),
(133,0,o),
(180,0,c)
);
},
{
ref = "lam-ar.init";
}
);
width = 350;
},
{
layerId = "A1E4B453-6299-48B5-AC61-B31B01EA2EEB";
shapes = (
{
attr = {
strokePos = 1;
};
closed = 1;
nodes = (
(250,0,l),
(250,30,l),
(60,30,l),
(52,30,o),
(45,23,o),
(45,15,c),
(45,7,o),
(52,0,o),
(60,0,c)
);
},
{
ref = "lam-ar.init";
}
);
width = 250;
},
{
layerId = "8544E31D-FA38-4D18-9DEA-5E3E35DDFD01";
shapes = (
{
attr = {
strokePos = 1;
};
closed = 1;
nodes = (
(230,0,l),
(230,150,l),
(131,150,l),
(90,150,o),
(56,116,o),
(56,75,c),
(56,34,o),
(90,0,o),
(131,0,c)
);
},
{
ref = "lam-ar.init";
}
);
width = 230;
},
{
layerId = "3CC93672-F71B-4D5C-A968-72DE9C2CEAD3";
shapes = (
{
attr = {
strokePos = 1;
};
closed = 1;
nodes = (
(140,0,l),
(140,30,l),
(25,30,l),
(17,30,o),
(10,23,o),
(10,15,c),
(10,7,o),
(17,0,o),
(25,0,c)
);
},
{
ref = "lam-ar.init";
}
);
width = 140;
}
);
metricLeft = "kashida-ar";
metricRight = "kashida-ar";
},
{
glyphname = "lam-ar.init";
lastChange = "2025-05-04 16:36:09 +0000";
layers = (
{
anchors = (
{
name = bottom;
pos = (163,0);
},
{
name = top;
pos = (185,640);
}
);
layerId = "71E51144-4680-4E23-982C-DE3E5ABB4D1F";
shapes = (
{
attr = {
strokePos = "0";
};
closed = 1;
nodes = (
(180,0,l),
(225,0,o),
(260,35,o),
(260,80,c),
(260,640,l),
(90,640,l),
(90,170,ls),
(90,170,o),
(90,170,o),
(90,170,cs),
(0,170,l),
(-48,170,o),
(-85,132,o),
(-85,85,c),
(-85,38,o),
(-48,0,o),
(0,0,c)
);
}
);
width = 340;
},
{
anchors = (
{
name = bottom;
pos = (104,0);
},
{
name = top;
pos = (125,640);
}
);
layerId = "A1E4B453-6299-48B5-AC61-B31B01EA2EEB";
shapes = (
{
attr = {
strokePos = "0";
};
closed = 1;
nodes = (
(60,0,l),
(111,0,o),
(140,29,o),
(140,80,c),
(140,640,l),
(110,640,l),
(110,80,l),
(110,46,o),
(94,30,o),
(60,30,c),
(0,30,l),
(-8,30,o),
(-15,23,o),
(-15,15,c),
(-15,7,o),
(-8,0,o),
(0,0,c)
);
}
);
width = 230;
},
{
anchors = (
{
name = bottom;
pos = (113,0);
},
{
name = top;
pos = (130,640);
}
);
layerId = "8544E31D-FA38-4D18-9DEA-5E3E35DDFD01";
shapes = (
{
attr = {
strokePos = "0";
};
closed = 1;
nodes = (
(130,0,l),
(164,0,o),
(190,26,o),
(190,60,c),
(190,640,l),
(40,640,l),
(40,150,ls),
(40,150,o),
(40,150,o),
(40,150,cs),
(0,150,l),
(-42,150,o),
(-75,116,o),
(-75,75,c),
(-75,34,o),
(-42,0,o),
(0,0,c)
);
}
);
width = 230;
},
{
anchors = (
{
name = bottom;
pos = (25,0);
},
{
name = top;
pos = (70,640);
}
);
layerId = "3CC93672-F71B-4D5C-A968-72DE9C2CEAD3";
shapes = (
{
attr = {
strokePos = "0";
};
closed = 1;
nodes = (
(25,0,l),
(63,0,o),
(85,22,o),
(85,60,c),
(85,640,l),
(55,640,l),
(55,60,l),
(55,39,o),
(46,30,o),
(25,30,c),
(0,30,l),
(-8,30,o),
(-15,23,o),
(-15,15,c),
(-15,7,o),
(-8,0,o),
(0,0,c)
);
}
);
width = 130;
}
);
metricLeft = "kashida-ar";
metricRight = "alef-ar";
},
{
glyphname = "meem-ar";
lastChange = "2025-05-04 15:52:40 +0000";
layers = (
{
anchors = (
{
name = bottom;
pos = (646,-77);
},
{
name = top;
pos = (646,390);
}
);
layerId = "71E51144-4680-4E23-982C-DE3E5ABB4D1F";
shapes = (
{
attr = {
strokePos = "1";
};
closed = 1;
nodes = (
(951,-60,l),
(951,190,ls),
(951,302,o),
(863,390,o),
(751,390,cs),
(365,390,l),
(365,20,ls),
(365,-25,o),
(400,-60,o),
(445,-60,cs)
);
},
{
closed = 1;
nodes = (
(250,-240,l),
(250,30,l),
(250,30,o),
(250,30,o),
(250,30,c),
(365,30,l),
(365,200,l),
(245,200,ls),
(153,200,o),
(80,127,o),
(80,35,cs),
(80,-240,l)
);
},
{
attr = {
strokePos = "1";
};
closed = 1;
nodes = (
(535,220,l),
(751,220,ls),
(769,220,o),
(781,208,o),
(781,190,cs),
(781,110,l),
(535,110,l),
(535,110,o),
(535,110,o),
(535,110,c)
);
}
);
width = 1031;
},
{
anchors = (
{
name = bottom;
pos = (437,-77);
},
{
name = top;
pos = (437,400);
}
);
layerId = "A1E4B453-6299-48B5-AC61-B31B01EA2EEB";
shapes = (
{
attr = {
strokePos = "1";
};
closed = 1;
nodes = (
(782,-60,l),
(782,180,ls),
(782,292,o),
(694,380,o),
(582,380,cs),
(267,380,l),
(267,20,ls),
(267,-31,o),
(296,-60,o),
(347,-60,cs)
);
},
{
closed = 1;
nodes = (
(120,-240,l),
(120,30,ls),
(120,73,o),
(142,95,o),
(185,95,cs),
(267,95,l),
(267,125,l),
(185,125,ls),
(126,125,o),
(90,89,o),
(90,30,cs),
(90,-240,l)
);
},
{
attr = {
strokePos = "1";
};
closed = 1;
nodes = (
(297,350,l),
(582,350,ls),
(678,350,o),
(752,276,o),
(752,180,cs),
(752,-30,l),
(347,-30,ls),
(313,-30,o),
(297,-14,o),
(297,20,cs)
);
}
);
width = 872;
},
{
anchors = (
{
name = bottom;
pos = (367,-77);
},
{
name = top;
pos = (367,390);
}
);
layerId = "8544E31D-FA38-4D18-9DEA-5E3E35DDFD01";
shapes = (
{
attr = {
strokePos = "1";
};
closed = 1;
nodes = (
(527,-60,l),
(527,240,ls),
(527,324,o),
(461,390,o),
(377,390,cs),
(219,390,l),
(219,0,ls),
(219,-34,o),
(245,-60,o),
(279,-60,cs)
);
},
{
closed = 1;
nodes = (
(190,-240,l),
(190,35,l),
(190,35,o),
(190,35,o),
(190,35,c),
(219,35,l),
(219,185,l),
(175,185,ls),
(99,185,o),
(40,126,o),
(40,50,cs),
(40,-240,l)
);
},
{
attr = {
strokePos = "1";
};
closed = 1;
nodes = (
(356,240,l),
(390,240,l),
(390,240,o),
(390,240,o),
(390,240,c),
(390,90,l),
(356,90,l),
(356,90,o),
(356,90,o),
(356,90,c)
);
}
);
width = 567;
},
{
anchors = (
{
name = bottom;
pos = (250,-77);
},
{
name = top;
pos = (250,400);
}
);
layerId = "3CC93672-F71B-4D5C-A968-72DE9C2CEAD3";
shapes = (
{
attr = {
strokePos = "1";
};
closed = 1;
nodes = (
(408,-60,l),
(408,230,ls),
(408,314,o),
(342,380,o),
(258,380,cs),
(156,380,l),
(156,0,ls),
(156,-38,o),
(178,-60,o),
(216,-60,cs)
);
},
{
closed = 1;
nodes = (
(75,-240,l),
(75,50,ls),
(75,80,o),
(90,95,o),
(120,95,cs),
(156,95,l),
(156,125,l),
(120,125,ls),
(74,125,o),
(45,96,o),
(45,50,cs),
(45,-240,l)
);
},
{
attr = {
strokePos = "1";
};
closed = 1;
nodes = (
(186,350,l),
(258,350,ls),
(326,350,o),
(378,298,o),
(378,230,cs),
(378,-30,l),
(216,-30,ls),
(195,-30,o),
(186,-21,o),
(186,0,cs)
);
}
);
width = 453;
}
);
metricLeft = "alef-ar";
metricRight = "alef-ar";
unicode = 1605;
},
{
glyphname = "meem-ar.fina";
lastChange = "2025-05-04 15:40:55 +0000";
layers = (
{
layerId = "71E51144-4680-4E23-982C-DE3E5ABB4D1F";
shapes = (
{
attr = {
strokePos = 1;
};
closed = 1;
nodes = (
(1041,0,l),
(1041,170,l),
(951,170,l),
(951,0,l)
);
},
{
ref = "meem-ar";
}
);
width = 1041;
},
{
layerId = "A1E4B453-6299-48B5-AC61-B31B01EA2EEB";
shapes = (
{
attr = {
strokePos = 1;
};
closed = 1;
nodes = (
(892,0,l),
(892,30,l),
(782,30,l),
(782,0,l)
);
},
{
ref = "meem-ar";
}
);
width = 892;
},
{
layerId = "8544E31D-FA38-4D18-9DEA-5E3E35DDFD01";
shapes = (
{
attr = {
strokePos = 1;
};
closed = 1;
nodes = (
(567,0,l),
(567,150,l),
(527,150,l),
(527,0,l)
);
},
{
ref = "meem-ar";
}
);
width = 567;
},
{
layerId = "3CC93672-F71B-4D5C-A968-72DE9C2CEAD3";
shapes = (
{
attr = {
strokePos = 1;
};
closed = 1;
nodes = (
(463,0,l),
(463,30,l),
(408,30,l),
(408,0,l)
);
},
{
ref = "meem-ar";
}
);
width = 463;
}
);
metricLeft = "alef-ar";
metricRight = "kashida-ar";
},
{
glyphname = "meem-ar.medi";
lastChange = "2025-05-04 15:40:55 +0000";
layers = (
{
layerId = "71E51144-4680-4E23-982C-DE3E5ABB4D1F";
shapes = (
{
attr = {
strokePos = 1;
};
closed = 1;
nodes = (
(765,0,l),
(765,170,l),
(675,170,l),
(675,0,l)
);
},
{
ref = "meem-ar.init";
}
);
width = 765;
},
{
layerId = "A1E4B453-6299-48B5-AC61-B31B01EA2EEB";
shapes = (
{
attr = {
strokePos = 1;
};
closed = 1;
nodes = (
(735,0,l),
(735,30,l),
(625,30,l),
(625,0,l)
);
},
{
ref = "meem-ar.init";
}
);
width = 735;
},
{
layerId = "8544E31D-FA38-4D18-9DEA-5E3E35DDFD01";
shapes = (
{
attr = {
strokePos = 1;
};
closed = 1;
nodes = (
(388,0,l),
(388,150,l),
(348,150,l),
(348,0,l)
);
},
{
ref = "meem-ar.init";
}
);
width = 388;
},
{
layerId = "3CC93672-F71B-4D5C-A968-72DE9C2CEAD3";
shapes = (
{
attr = {
strokePos = 1;
};
closed = 1;
nodes = (
(362,0,l),
(362,30,l),
(307,30,l),
(307,0,l)
);
},
{
ref = "meem-ar.init";
}
);
width = 362;
}
);
metricLeft = "kashida-ar";
metricRight = "kashida-ar";
},
{
glyphname = "meem-ar.init";
lastChange = "2025-05-04 15:56:31 +0000";
layers = (
{
anchors = (
{
name = bottom;
pos = (389,-65);
},
{
name = top;
pos = (389,390);
}
);
layerId = "71E51144-4680-4E23-982C-DE3E5ABB4D1F";
shapes = (
{
attr = {
strokePos = "1";
};
closed = 1;
nodes = (
(676,-60,l),
(676,190,ls),
(676,302,o),
(588,390,o),
(476,390,cs),
(90,390,l),
(90,20,ls),
(90,-25,o),
(125,-60,o),
(170,-60,cs)
);
},
{
attr = {
strokePos = 1;
};
closed = 1;
nodes = (
(94,0,l),
(94,170,l),
(0,170,ls),
(-48,170,o),
(-85,132,o),
(-85,85,cs),
(-85,38,o),
(-48,0,o),
(0,0,cs)
);
},
{
attr = {
strokePos = "1";
};
closed = 1;
nodes = (
(260,220,l),
(476,220,ls),
(494,220,o),
(506,208,o),
(506,190,cs),
(506,110,l),
(260,110,ls),
(145,110,o),
(260,110,o),
(260,110,cs)
);
}
);
width = 756;
},
{
anchors = (
{
name = bottom;
pos = (353,-65);
},
{
name = top;
pos = (353,400);
}
);
layerId = "A1E4B453-6299-48B5-AC61-B31B01EA2EEB";
shapes = (
{
attr = {
strokePos = "1";
};
closed = 1;
nodes = (
(625,-60,l),
(625,180,ls),
(625,292,o),
(537,380,o),
(425,380,cs),
(110,380,l),
(110,20,ls),
(110,-31,o),
(139,-60,o),
(190,-60,cs)
);
},
{
attr = {
strokePos = 1;
};
closed = 1;
nodes = (
(115,0,l),
(115,30,l),
(0,30,ls),
(-8,30,o),
(-15,23,o),
(-15,15,cs),
(-15,7,o),
(-8,0,o),
(0,0,cs)
);
},
{
attr = {
strokePos = "1";
};
closed = 1;
nodes = (
(140,350,l),
(425,350,ls),
(521,350,o),
(595,276,o),
(595,180,cs),
(595,-30,l),
(190,-30,ls),
(156,-30,o),
(140,-14,o),
(140,20,cs)
);
}
);
width = 715;
},
{
anchors = (
{
name = bottom;
pos = (192,-65);
},
{
name = top;
pos = (192,390);
}
);
layerId = "8544E31D-FA38-4D18-9DEA-5E3E35DDFD01";
shapes = (
{
attr = {
strokePos = "1";
};
closed = 1;
nodes = (
(348,-60,l),
(348,240,ls),
(348,324,o),
(282,390,o),
(198,390,cs),
(40,390,l),
(40,0,ls),
(40,-34,o),
(66,-60,o),
(100,-60,cs)
);
},
{
attr = {
strokePos = 1;
};
closed = 1;
nodes = (
(43,0,l),
(43,150,l),
(0,150,ls),
(-42,150,o),
(-75,116,o),
(-75,75,cs),
(-75,34,o),
(-42,0,o),
(0,0,cs)
);
},
{
attr = {
strokePos = "1";
};
closed = 1;
nodes = (
(177,240,l),
(206,240,ls),
(209,240,o),
(211,236,o),
(211,232,cs),
(211,90,l),
(177,90,l),
(177,90,o),
(177,90,o),
(177,90,cs)
);
}
);
width = 388;
},
{
anchors = (
{
name = bottom;
pos = (174,-65);
},
{
name = top;
pos = (174,400);
}
);
layerId = "3CC93672-F71B-4D5C-A968-72DE9C2CEAD3";
shapes = (
{
attr = {
strokePos = "1";
};
closed = 1;
nodes = (
(307,-60,l),
(307,230,ls),
(307,314,o),
(241,380,o),
(157,380,cs),
(55,380,l),
(55,0,ls),
(55,-38,o),
(77,-60,o),
(115,-60,cs)
);
},
{
attr = {
strokePos = 1;
};
closed = 1;
nodes = (
(58,0,l),
(58,30,l),
(0,30,ls),
(-8,30,o),
(-15,23,o),
(-15,15,cs),
(-15,7,o),
(-8,0,o),
(0,0,cs)
);
},
{
attr = {
strokePos = "1";
};
closed = 1;
nodes = (
(85,350,l),
(157,350,ls),
(225,350,o),
(277,298,o),
(277,230,cs),
(277,-30,l),
(115,-30,ls),
(94,-30,o),
(85,-21,o),
(85,0,cs)
);
}
);
width = 352;
}
);
metricLeft = "kashida-ar";
metricRight = "alef-ar";
},
{
glyphname = "noonghunna-ar";
lastChange = "2025-05-04 16:02:59 +0000";
layers = (
{
anchors = (
{
name = bottom;
pos = (475,-160);
},
{
name = top;
pos = (475,345);
}
);
layerId = "71E51144-4680-4E23-982C-DE3E5ABB4D1F";
shapes = (
{
attr = {
strokePos = 0;
};
closed = 1;
nodes = (
(675,-160,ls),
(787,-160,o),
(875,-72,o),
(875,40,cs),
(875,390,l),
(705,390,l),
(705,40,ls),
(705,22,o),
(693,10,o),
(675,10,cs),
(280,10,ls),
(262,10,o),
(250,22,o),
(250,40,cs),
(250,280,l),
(80,280,l),
(80,40,ls),
(80,-72,o),
(168,-160,o),
(280,-160,cs)
);
}
);
width = 955;
},
{
anchors = (
{
name = bottom;
pos = (448,-160);
},
{
name = top;
pos = (448,330);
}
);
layerId = "A1E4B453-6299-48B5-AC61-B31B01EA2EEB";
shapes = (
{
attr = {
strokePos = 0;
};
closed = 1;
nodes = (
(598,-160,ls),
(710,-160,o),
(798,-72,o),
(798,40,cs),
(798,380,l),
(768,380,l),
(768,40,ls),
(768,-56,o),
(694,-130,o),
(598,-130,cs),
(290,-130,ls),
(194,-130,o),
(120,-56,o),
(120,40,cs),
(120,280,l),
(90,280,l),
(90,40,ls),
(90,-72,o),
(178,-160,o),
(290,-160,cs)
);
}
);
width = 888;
},
{
anchors = (
{
name = bottom;
pos = (236,-160);
},
{
name = top;
pos = (236,345);
}
);
layerId = "8544E31D-FA38-4D18-9DEA-5E3E35DDFD01";
shapes = (
{
attr = {
strokePos = 0;
};
closed = 1;
nodes = (
(286,-160,ls),
(370,-160,o),
(436,-94,o),
(436,-10,cs),
(436,390,l),
(286,390,l),
(286,-10,l),
(286,-10,o),
(286,-10,o),
(286,-10,c),
(190,-10,l),
(190,-10,o),
(190,-10,o),
(190,-10,c),
(190,280,l),
(40,280,l),
(40,-10,ls),
(40,-94,o),
(106,-160,o),
(190,-160,cs)
);
}
);
width = 476;
},
{
anchors = (
{
name = bottom;
pos = (217,-160);
},
{
name = top;
pos = (217,330);
}
);
layerId = "3CC93672-F71B-4D5C-A968-72DE9C2CEAD3";
shapes = (
{
attr = {
strokePos = 0;
};
closed = 1;
nodes = (
(235,-160,ls),
(319,-160,o),
(385,-94,o),
(385,-10,cs),
(385,380,l),
(355,380,l),
(355,-10,ls),
(355,-77,o),
(303,-130,o),
(235,-130,cs),
(195,-130,ls),
(127,-130,o),
(75,-77,o),
(75,-10,cs),
(75,280,l),
(45,280,l),
(45,-10,ls),
(45,-94,o),
(111,-160,o),
(195,-160,cs)
);
}
);
width = 430;
}
);
metricLeft = "alef-ar";
metricRight = "alef-ar";
unicode = 1722;
},
{
glyphname = "noonghunna-ar.fina";
lastChange = "2025-05-04 15:40:55 +0000";
layers = (
{
layerId = "71E51144-4680-4E23-982C-DE3E5ABB4D1F";
shapes = (
{
attr = {
strokePos = 1;
};
closed = 1;
nodes = (
(965,0,l),
(965,170,l),
(865,170,l),
(865,0,l)
);
},
{
ref = "noonghunna-ar";
}
);
width = 965;
},
{
layerId = "A1E4B453-6299-48B5-AC61-B31B01EA2EEB";
shapes = (
{
attr = {
strokePos = 1;
};
closed = 1;
nodes = (
(908,0,l),
(908,30,l),
(791,30,l),
(791,0,l)
);
},
{
ref = "noonghunna-ar";
}
);
width = 908;
},
{
layerId = "8544E31D-FA38-4D18-9DEA-5E3E35DDFD01";
shapes = (
{
attr = {
strokePos = 1;
};
closed = 1;
nodes = (
(476,0,l),
(476,150,l),
(436,150,l),
(436,0,l)
);
},
{
ref = "noonghunna-ar";
}
);
width = 476;
},
{
layerId = "3CC93672-F71B-4D5C-A968-72DE9C2CEAD3";
shapes = (
{
attr = {
strokePos = 1;
};
closed = 1;
nodes = (
(440,0,l),
(440,30,l),
(385,30,l),
(385,0,l)
);
},
{
ref = "noonghunna-ar";
}
);
width = 440;
}
);
metricLeft = "alef-ar";
metricRight = "kashida-ar";
},
{
glyphname = "heh-ar";
lastChange = "2025-05-04 16:02:44 +0000";
layers = (
{
anchors = (
{
name = bottom;
pos = (396,0);
},
{
name = top;
pos = (396,440);
}
);
layerId = "71E51144-4680-4E23-982C-DE3E5ABB4D1F";
shapes = (
{
attr = {
strokePos = "1";
};
closed = 1;
nodes = (
(690,0,l),
(690,440,l),
(280,440,ls),
(168,440,o),
(80,352,o),
(80,240,cs),
(80,200,ls),
(80,88,o),
(168,0,o),
(280,0,cs)
);
},
{
attr = {
strokePos = "1";
};
closed = 1;
nodes = (
(250,240,ls),
(250,258,o),
(262,270,o),
(280,270,cs),
(520,270,l),
(520,170,l),
(280,170,ls),
(262,170,o),
(250,182,o),
(250,200,cs)
);
}
);
width = 770;
},
{
anchors = (
{
name = bottom;
pos = (433,0);
},
{
name = top;
pos = (433,450);
}
);
layerId = "A1E4B453-6299-48B5-AC61-B31B01EA2EEB";
shapes = (
{
attr = {
strokePos = "1";
};
closed = 1;
nodes = (
(643,0,l),
(643,430,l),
(290,430,ls),
(178,430,o),
(90,342,o),
(90,230,cs),
(90,200,ls),
(90,88,o),
(178,0,o),
(290,0,cs)
);
},
{
attr = {
strokePos = "1";
};
closed = 1;
nodes = (
(120,230,ls),
(120,326,o),
(194,400,o),
(290,400,cs),
(613,400,l),
(613,30,l),
(290,30,ls),
(194,30,o),
(120,104,o),
(120,200,cs)
);
}
);
width = 733;
},
{
anchors = (
{
name = bottom;
pos = (227,0);
},
{
name = top;
pos = (227,440);
}
);
layerId = "8544E31D-FA38-4D18-9DEA-5E3E35DDFD01";
shapes = (
{
attr = {
strokePos = "1";
};
closed = 1;
nodes = (
(370,0,l),
(370,440,l),
(190,440,ls),
(106,440,o),
(40,374,o),
(40,290,cs),
(40,150,ls),
(40,66,o),
(106,0,o),
(190,0,cs)
);
},
{
attr = {
strokePos = "1";
};
closed = 1;
nodes = (
(185,290,ls),
(185,290,o),
(185,290,o),
(185,290,cs),
(220,290,l),
(220,150,l),
(185,150,ls),
(185,150,o),
(185,150,o),
(185,150,cs)
);
}
);
width = 410;
},
{
anchors = (
{
name = bottom;
pos = (206,0);
},
{
name = top;
pos = (206,450);
}
);
layerId = "3CC93672-F71B-4D5C-A968-72DE9C2CEAD3";
shapes = (
{
attr = {
strokePos = "1";
};
closed = 1;
nodes = (
(316,0,l),
(316,430,l),
(195,430,ls),
(111,430,o),
(45,364,o),
(45,280,cs),
(45,150,ls),
(45,66,o),
(111,0,o),
(195,0,cs)
);
},
{
attr = {
strokePos = "1";
};
closed = 1;
nodes = (
(75,280,ls),
(75,348,o),
(127,400,o),
(195,400,cs),
(286,400,l),
(286,30,l),
(195,30,ls),
(127,30,o),
(75,82,o),
(75,150,cs)
);
}
);
width = 361;
}
);
metricLeft = "alef-ar";
metricRight = "alef-ar";
unicode = 1607;
},
{
glyphname = "heh-ar.fina";
lastChange = "2025-05-04 15:40:55 +0000";
layers = (
{
layerId = "71E51144-4680-4E23-982C-DE3E5ABB4D1F";
shapes = (
{
attr = {
strokePos = 1;
};
closed = 1;
nodes = (
(780,0,l),
(780,170,l),
(690,170,l),
(690,0,l)
);
},
{
ref = "heh-ar";
}
);
width = 780;
},
{
layerId = "A1E4B453-6299-48B5-AC61-B31B01EA2EEB";
shapes = (
{
attr = {
strokePos = 1;
};
closed = 1;
nodes = (
(753,0,l),
(753,30,l),
(643,30,l),
(643,0,l)
);
},
{
ref = "heh-ar";
}
);
width = 753;
},
{
layerId = "8544E31D-FA38-4D18-9DEA-5E3E35DDFD01";
shapes = (
{
attr = {
strokePos = 1;
};
closed = 1;
nodes = (
(410,0,l),
(410,150,l),
(370,150,l),
(370,0,l)
);
},
{
ref = "heh-ar";
}
);
width = 410;
},
{
layerId = "3CC93672-F71B-4D5C-A968-72DE9C2CEAD3";
shapes = (
{
attr = {
strokePos = 1;
};
closed = 1;
nodes = (
(371,0,l),
(371,30,l),
(316,30,l),
(316,0,l)
);
},
{
ref = "heh-ar";
}
);
width = 371;
}
);
metricLeft = "alef-ar";
metricRight = "kashida-ar";
},
{
glyphname = "heh-ar.medi";
lastChange = "2025-05-04 15:40:55 +0000";
layers = (
{
layerId = "71E51144-4680-4E23-982C-DE3E5ABB4D1F";
shapes = (
{
attr = {
strokePos = 1;
};
closed = 1;
nodes = (
(1100,0,l),
(1100,170,l),
(930,170,l),
(883,170,o),
(845,132,o),
(845,85,c),
(845,38,o),
(883,0,o),
(930,0,c)
);
},
{
ref = "heh-ar.init";
}
);
width = 1100;
},
{
layerId = "A1E4B453-6299-48B5-AC61-B31B01EA2EEB";
shapes = (
{
attr = {
strokePos = 1;
};
closed = 1;
nodes = (
(1052,0,l),
(1052,30,l),
(862,30,l),
(854,30,o),
(847,23,o),
(847,15,c),
(847,7,o),
(854,0,o),
(862,0,c)
);
},
{
ref = "heh-ar.init";
}
);
width = 1052;
},
{
layerId = "8544E31D-FA38-4D18-9DEA-5E3E35DDFD01";
shapes = (
{
attr = {
strokePos = 1;
};
closed = 1;
nodes = (
(540,0,l),
(540,150,l),
(440,150,l),
(399,150,o),
(365,116,o),
(365,75,c),
(365,34,o),
(399,0,o),
(440,0,c)
);
},
{
ref = "heh-ar.init";
}
);
width = 540;
},
{
layerId = "3CC93672-F71B-4D5C-A968-72DE9C2CEAD3";
shapes = (
{
attr = {
strokePos = 1;
};
closed = 1;
nodes = (
(514,0,l),
(514,30,l),
(399,30,l),
(391,30,o),
(384,23,o),
(384,15,c),
(384,7,o),
(391,0,o),
(399,0,c)
);
},
{
ref = "heh-ar.init";
}
);
width = 514;
}
);
metricLeft = "kashida-ar";
metricRight = "kashida-ar";
},
{
glyphname = "heh-ar.init";
lastChange = "2025-05-04 16:36:32 +0000";
layers = (
{
anchors = (
{
name = bottom;
pos = (531,0);
},
{
name = top;
pos = (553,483);
}
);
layerId = "71E51144-4680-4E23-982C-DE3E5ABB4D1F";
name = Regular;
shapes = (
{
attr = {
strokePos = "1";
};
closed = 1;
nodes = (
(930,0,ls),
(975,0,o),
(1010,35,o),
(1010,80,cs),
(1010,240,ls),
(1010,352,o),
(922,440,o),
(810,440,cs),
(290,440,ls),
(178,440,o),
(90,352,o),
(90,240,cs),
(90,14,l),
(260,14,l),
(260,240,ls),
(260,258,o),
(272,270,o),
(290,270,cs),
(810,270,ls),
(828,270,o),
(840,258,o),
(840,240,cs),
(840,170,ls),
(840,170,o),
(840,170,o),
(840,170,cs),
(0,170,ls),
(-48,170,o),
(-85,132,o),
(-85,85,cs),
(-85,38,o),
(-48,0,o),
(0,0,cs)
);
},
{
closed = 1;
nodes = (
(630,13,l),
(630,483,l),
(470,483,l),
(470,13,l)
);
}
);
width = 1090;
},
{
anchors = (
{
name = bottom;
pos = (526,0);
},
{
name = top;
pos = (526,493);
}
);
layerId = "A1E4B453-6299-48B5-AC61-B31B01EA2EEB";
name = Regular;
shapes = (
{
attr = {
strokePos = "1";
};
closed = 1;
nodes = (
(862,0,ls),
(913,0,o),
(942,29,o),
(942,80,cs),
(942,230,ls),
(942,342,o),
(854,430,o),
(742,430,cs),
(310,430,ls),
(198,430,o),
(110,342,o),
(110,230,cs),
(110,14,l),
(140,14,l),
(140,230,ls),
(140,326,o),
(214,400,o),
(310,400,cs),
(742,400,ls),
(838,400,o),
(912,326,o),
(912,230,cs),
(912,80,ls),
(912,46,o),
(896,30,o),
(862,30,cs),
(0,30,ls),
(-8,30,o),
(-15,23,o),
(-15,15,cs),
(-15,7,o),
(-8,0,o),
(0,0,cs)
);
},
{
closed = 1;
nodes = (
(541,13,l),
(541,473,l),
(511,473,l),
(511,13,l)
);
}
);
width = 1032;
},
{
anchors = (
{
name = bottom;
pos = (334,0);
},
{
name = top;
pos = (270,483);
}
);
layerId = "8544E31D-FA38-4D18-9DEA-5E3E35DDFD01";
name = Regular;
shapes = (
{
attr = {
strokePos = "1";
};
closed = 1;
nodes = (
(440,0,ls),
(474,0,o),
(500,26,o),
(500,60,cs),
(500,290,ls),
(500,374,o),
(434,440,o),
(350,440,cs),
(190,440,ls),
(106,440,o),
(40,374,o),
(40,290,cs),
(40,14,l),
(190,14,l),
(190,290,l),
(190,290,o),
(190,290,o),
(190,290,c),
(350,290,l),
(350,290,o),
(350,290,o),
(350,290,c),
(350,150,ls),
(350,150,o),
(350,150,o),
(350,150,cs),
(0,150,ls),
(-42,150,o),
(-75,116,o),
(-75,75,cs),
(-75,34,o),
(-42,0,o),
(0,0,cs)
);
},
{
closed = 1;
nodes = (
(315,13,l),
(315,483,l),
(225,483,l),
(225,13,l)
);
}
);
width = 540;
},
{
anchors = (
{
name = bottom;
pos = (257,0);
},
{
name = top;
pos = (257,493);
}
);
layerId = "3CC93672-F71B-4D5C-A968-72DE9C2CEAD3";
name = Regular;
shapes = (
{
attr = {
strokePos = "1";
};
closed = 1;
nodes = (
(399,0,ls),
(437,0,o),
(459,22,o),
(459,60,cs),
(459,280,ls),
(459,364,o),
(393,430,o),
(309,430,cs),
(205,430,ls),
(121,430,o),
(55,364,o),
(55,280,cs),
(55,14,l),
(85,14,l),
(85,280,ls),
(85,348,o),
(137,400,o),
(205,400,cs),
(309,400,ls),
(377,400,o),
(429,348,o),
(429,280,cs),
(429,60,ls),
(429,39,o),
(420,30,o),
(399,30,cs),
(0,30,ls),
(-8,30,o),
(-15,23,o),
(-15,15,cs),
(-15,7,o),
(-8,0,o),
(0,0,cs)
);
},
{
closed = 1;
nodes = (
(272,13,l),
(272,473,l),
(242,473,l),
(242,13,l)
);
}
);
width = 504;
}
);
metricLeft = "kashida-ar";
metricRight = "alef-ar";
},
{
glyphname = "hehgoal-ar.fina";
lastChange = "2025-05-04 16:01:14 +0000";
layers = (
{
anchors = (
{
name = bottom;
pos = (419,0);
},
{
name = top;
pos = (419,440);
}
);
layerId = "71E51144-4680-4E23-982C-DE3E5ABB4D1F";
shapes = (
{
attr = {
identifier = ID0x169c530e0;
strokePos = "1";
};
closed = 1;
nodes = (
(250,0,l),
(250,240,ls),
(250,258,o),
(262,270,o),
(280,270,cs),
(601,270,l),
(601,440,l),
(280,440,ls),
(168,440,o),
(80,352,o),
(80,240,cs),
(80,0,l)
);
},
{
attr = {
strokePos = "1";
};
closed = 1;
nodes = (
(781,0,l),
(781,170,l),
(691,170,l),
(691,0,l)
);
},
{
attr = {
identifier = ID0x169c530e0;
};
closed = 1;
nodes = (
(691,0,l),
(691,440,l),
(521,440,l),
(521,0,l)
);
}
);
width = 781;
},
{
anchors = (
{
name = bottom;
pos = (431,0);
},
{
name = top;
pos = (431,450);
}
);
layerId = "A1E4B453-6299-48B5-AC61-B31B01EA2EEB";
shapes = (
{
attr = {
identifier = ID0x30406ad90;
strokePos = "1";
};
closed = 1;
nodes = (
(120,0,l),
(120,230,ls),
(120,326,o),
(194,400,o),
(290,400,cs),
(622,400,l),
(622,430,l),
(290,430,ls),
(178,430,o),
(90,342,o),
(90,230,cs),
(90,0,l)
);
},
{
attr = {
strokePos = "1";
};
closed = 1;
nodes = (
(752,0,l),
(752,30,l),
(642,30,l),
(642,0,l)
);
},
{
attr = {
identifier = ID0x30406ad90;
};
closed = 1;
nodes = (
(642,0,l),
(642,430,l),
(612,430,l),
(612,0,l)
);
}
);
width = 752;
},
{
anchors = (
{
name = bottom;
pos = (157,0);
},
{
name = top;
pos = (157,440);
}
);
layerId = "8544E31D-FA38-4D18-9DEA-5E3E35DDFD01";
shapes = (
{
attr = {
identifier = ID0x169c530e0;
strokePos = "1";
};
closed = 1;
nodes = (
(190,0,l),
(190,250,ls),
(190,290,o),
(190,290,o),
(192,290,cs),
(292,290,l),
(292,440,l),
(192,440,ls),
(107,440,o),
(40,356,o),
(40,250,cs),
(40,0,l)
);
},
{
attr = {
strokePos = "1";
};
closed = 1;
nodes = (
(411,0,l),
(411,150,l),
(364,150,l),
(364,0,l)
);
},
{
attr = {
identifier = ID0x169c530e0;
};
closed = 1;
nodes = (
(371,0,l),
(371,440,l),
(221,440,l),
(221,0,l)
);
}
);
width = 411;
},
{
anchors = (
{
name = bottom;
pos = (193,0);
},
{
name = top;
pos = (193,450);
}
);
layerId = "3CC93672-F71B-4D5C-A968-72DE9C2CEAD3";
shapes = (
{
attr = {
identifier = ID0x30406ad90;
strokePos = "1";
};
closed = 1;
nodes = (
(75,0,l),
(75,280,ls),
(75,348,o),
(127,400,o),
(195,400,cs),
(297,400,l),
(297,430,l),
(195,430,ls),
(111,430,o),
(45,364,o),
(45,280,cs),
(45,0,l)
);
},
{
attr = {
strokePos = "1";
};
closed = 1;
nodes = (
(371,0,l),
(371,30,l),
(313,30,l),
(313,0,l)
);
},
{
attr = {
identifier = ID0x30406ad90;
};
closed = 1;
nodes = (
(316,0,l),
(316,430,l),
(286,430,l),
(286,0,l)
);
}
);
width = 371;
}
);
metricLeft = "alef-ar";
metricRight = "kashida-ar";
},
{
glyphname = "waw-ar";
lastChange = "2025-05-05 12:38:24 +0000";
layers = (
{
anchors = (
{
name = bottom;
pos = (310,-240);
},
{
name = center;
pos = (328,0);
},
{
name = top;
pos = (403,440);
}
);
layerId = "71E51144-4680-4E23-982C-DE3E5ABB4D1F";
shapes = (
{
closed = 1;
nodes = (
(450,-230,ls),
(569,-230,o),
(665,-139,o),
(665,-20,cs),
(665,440,l),
(495,440,l),
(495,-20,ls),
(495,-49,o),
(476,-70,o),
(450,-70,cs),
(80,-70,l),
(80,-230,l)
);
},
{
attr = {
strokePos = "1";
};
closed = 1;
nodes = (
(580,0,l),
(580,170,l),
(250,170,l),
(250,240,ls),
(250,258,o),
(262,270,o),
(280,270,cs),
(495,270,l),
(495,440,l),
(280,440,ls),
(168,440,o),
(80,352,o),
(80,240,cs),
(80,0,l)
);
}
);
width = 745;
},
{
anchors = (
{
name = bottom;
pos = (330,-185);
},
{
name = center;
pos = (338,0);
},
{
name = top;
pos = (368,450);
}
);
layerId = "A1E4B453-6299-48B5-AC61-B31B01EA2EEB";
shapes = (
{
closed = 1;
nodes = (
(460,-165,ls),
(541,-165,o),
(605,-102,o),
(605,-20,cs),
(605,430,l),
(575,430,l),
(575,-20,ls),
(575,-85,o),
(525,-135,o),
(460,-135,cs),
(90,-135,l),
(90,-165,l)
);
},
{
attr = {
strokePos = "1";
};
closed = 1;
nodes = (
(590,0,l),
(590,30,l),
(120,30,l),
(120,230,ls),
(120,326,o),
(194,400,o),
(290,400,cs),
(575,400,l),
(575,430,l),
(290,430,ls),
(178,430,o),
(90,342,o),
(90,230,cs),
(90,0,l)
);
}
);
width = 695;
},
{
anchors = (
{
name = bottom;
pos = (113,-224);
},
{
name = center;
pos = (118,0);
},
{
name = top;
pos = (192,440);
}
);
layerId = "8544E31D-FA38-4D18-9DEA-5E3E35DDFD01";
shapes = (
{
closed = 1;
nodes = (
(195,-220,ls),
(284,-220,o),
(355,-149,o),
(355,-60,cs),
(355,440,l),
(215,440,l),
(215,-60,ls),
(215,-71,o),
(206,-80,o),
(195,-80,cs),
(40,-80,l),
(40,-220,l)
);
},
{
attr = {
strokePos = "1";
};
closed = 1;
nodes = (
(280,0,l),
(280,150,l),
(180,150,l),
(180,290,l),
(180,290,o),
(180,290,o),
(190,290,cs),
(215,290,l),
(215,440,l),
(190,440,ls),
(106,440,o),
(40,374,o),
(40,290,cs),
(40,0,l)
);
}
);
width = 395;
},
{
anchors = (
{
name = bottom;
pos = (118,-186);
},
{
name = center;
pos = (123,0);
},
{
name = top;
pos = (187,450);
}
);
layerId = "3CC93672-F71B-4D5C-A968-72DE9C2CEAD3";
shapes = (
{
closed = 1;
nodes = (
(195,-165,ls),
(253,-165,o),
(300,-118,o),
(300,-60,cs),
(300,430,l),
(270,430,l),
(270,-60,ls),
(270,-102,o),
(237,-135,o),
(195,-135,cs),
(45,-135,l),
(45,-165,l)
);
},
{
attr = {
strokePos = "1";
};
closed = 1;
nodes = (
(285,0,l),
(285,30,l),
(75,30,l),
(75,280,ls),
(75,348,o),
(127,400,o),
(195,400,cs),
(270,400,l),
(270,430,l),
(195,430,ls),
(111,430,o),
(45,364,o),
(45,280,cs),
(45,0,l)
);
}
);
width = 345;
}
);
metricLeft = "alef-ar";
metricRight = "alef-ar";
unicode = 1608;
},
